<?xml version="1.0" encoding="utf-8"?>
<!-- Generator: Adobe Illustrator 25.4.1, SVG Export Plug-In . SVG Version: 6.00 Build 0)  -->
<svg version="1.1" id="Layer_1" xmlns="http://www.w3.org/2000/svg" xmlns:xlink="http://www.w3.org/1999/xlink" x="0px" y="0px"
	 viewBox="0 0 199.32 78.83" style="enable-background:new 0 0 199.32 78.83;" xml:space="preserve">
<style type="text/css">
	.st0{fill:#3C89FF;}
	.st1{fill:#FFFFFF;}
</style>
<rect x="5.17" y="20.21" class="st0" width="190" height="40"/>
<g>
	<path class="st1" d="M35.61,47.2h-2.16v-2.8h-6.86v2.79h-2.22l-0.12-4.67h0.86c0.46-0.39,0.82-0.95,1.07-1.7
		c0.25-0.75,0.42-1.67,0.51-2.78l0.33-5.02h7.45v9.49h1.33L35.61,47.2z M27.79,42.52h4.34v-7.59h-2.88l-0.2,2.99
		C28.89,39.93,28.47,41.46,27.79,42.52z"/>
	<path class="st1" d="M36.52,40.1c0-0.84,0.16-1.59,0.48-2.24c0.32-0.66,0.79-1.16,1.39-1.52c0.61-0.36,1.31-0.54,2.11-0.54
		c1.14,0,2.07,0.35,2.79,1.05c0.72,0.7,1.12,1.65,1.21,2.84l0.02,0.58c0,1.3-0.36,2.34-1.09,3.12c-0.72,0.78-1.7,1.18-2.91,1.18
		s-2.19-0.39-2.92-1.17s-1.09-1.84-1.09-3.19V40.1z M38.78,40.26c0,0.8,0.15,1.42,0.45,1.84c0.3,0.43,0.73,0.64,1.3,0.64
		c0.55,0,0.97-0.21,1.28-0.63c0.31-0.42,0.46-1.09,0.46-2.01c0-0.79-0.15-1.4-0.46-1.83c-0.31-0.43-0.74-0.65-1.3-0.65
		c-0.55,0-0.98,0.22-1.28,0.65C38.93,38.69,38.78,39.36,38.78,40.26z"/>
	<path class="st1" d="M45.62,42.59c0.51-0.54,0.86-1.08,1.04-1.61c0.18-0.53,0.28-1.28,0.3-2.26l0.06-2.77h6.22v6.63h1.22v4.36H52.2
		v-2.54H47.2v2.54h-2.3v-4.36H45.62z M48.28,42.59h2.71v-4.77h-1.76l-0.02,1.02C49.17,40.39,48.86,41.64,48.28,42.59z"/>
	<path class="st1" d="M60.5,44.41c-0.1-0.2-0.18-0.46-0.23-0.76c-0.55,0.61-1.26,0.91-2.13,0.91c-0.83,0-1.51-0.24-2.06-0.72
		c-0.54-0.48-0.82-1.08-0.82-1.81c0-0.9,0.33-1.58,1-2.06c0.66-0.48,1.62-0.72,2.88-0.73h1.04v-0.48c0-0.39-0.1-0.7-0.3-0.94
		c-0.2-0.23-0.52-0.35-0.95-0.35c-0.38,0-0.68,0.09-0.89,0.27c-0.22,0.18-0.32,0.43-0.32,0.75h-2.26c0-0.49,0.15-0.94,0.45-1.36
		c0.3-0.42,0.73-0.74,1.28-0.98c0.55-0.24,1.17-0.36,1.86-0.36c1.04,0,1.87,0.26,2.48,0.79c0.61,0.52,0.92,1.26,0.92,2.21v3.66
		c0,0.8,0.12,1.41,0.34,1.82v0.13H60.5z M58.63,42.84c0.33,0,0.64-0.07,0.92-0.22s0.49-0.35,0.62-0.6v-1.45h-0.84
		c-1.13,0-1.73,0.39-1.8,1.17l-0.01,0.13c0,0.28,0.1,0.51,0.3,0.7C58.02,42.74,58.29,42.84,58.63,42.84z"/>
	<path class="st1" d="M71.05,37.77h-2.71v6.63h-2.27v-6.63h-2.66v-1.82h7.64V37.77z"/>
	<path class="st1" d="M77.27,35.95h2.26v8.45h-2.26v-5.22l-2.83,5.22h-2.27v-8.45h2.27v5.21L77.27,35.95z"/>
	<path class="st1" d="M84.89,40.1c0-0.84,0.16-1.59,0.48-2.24c0.32-0.66,0.79-1.16,1.39-1.52c0.61-0.36,1.31-0.54,2.11-0.54
		c1.14,0,2.07,0.35,2.79,1.05c0.72,0.7,1.12,1.65,1.21,2.84l0.02,0.58c0,1.3-0.36,2.34-1.09,3.12c-0.72,0.78-1.7,1.18-2.91,1.18
		s-2.19-0.39-2.92-1.17s-1.09-1.84-1.09-3.19V40.1z M87.15,40.26c0,0.8,0.15,1.42,0.45,1.84c0.3,0.43,0.73,0.64,1.3,0.64
		c0.55,0,0.97-0.21,1.28-0.63c0.31-0.42,0.46-1.09,0.46-2.01c0-0.79-0.15-1.4-0.46-1.83c-0.31-0.43-0.74-0.65-1.3-0.65
		c-0.55,0-0.98,0.22-1.28,0.65C87.3,38.69,87.15,39.36,87.15,40.26z"/>
	<path class="st1" d="M100.05,37.77h-3.5v6.63h-2.26v-8.45h5.76V37.77z"/>
	<path class="st1" d="M100.57,40.1c0-0.84,0.16-1.59,0.48-2.24c0.32-0.66,0.79-1.16,1.39-1.52c0.61-0.36,1.31-0.54,2.11-0.54
		c1.14,0,2.07,0.35,2.79,1.05c0.72,0.7,1.12,1.65,1.21,2.84l0.02,0.58c0,1.3-0.36,2.34-1.09,3.12c-0.72,0.78-1.7,1.18-2.91,1.18
		s-2.19-0.39-2.92-1.17s-1.09-1.84-1.09-3.19V40.1z M102.83,40.26c0,0.8,0.15,1.42,0.45,1.84c0.3,0.43,0.73,0.64,1.3,0.64
		c0.55,0,0.97-0.21,1.28-0.63c0.31-0.42,0.46-1.09,0.46-2.01c0-0.79-0.15-1.4-0.46-1.83c-0.31-0.43-0.74-0.65-1.3-0.65
		c-0.55,0-0.98,0.22-1.28,0.65C102.98,38.69,102.83,39.36,102.83,40.26z"/>
	<path class="st1" d="M117.17,35.95v8.45h-2.26v-6.63h-1.99l-0.14,2.61c-0.09,1.39-0.36,2.41-0.82,3.04
		c-0.46,0.64-1.14,0.96-2.05,0.98h-0.77l-0.02-1.84l0.28-0.02c0.41-0.03,0.7-0.27,0.89-0.72c0.19-0.45,0.3-1.21,0.35-2.29l0.16-3.59
		H117.17z"/>
	<path class="st1" d="M118.56,40.1c0-0.84,0.16-1.59,0.48-2.24c0.32-0.66,0.79-1.16,1.39-1.52c0.61-0.36,1.31-0.54,2.11-0.54
		c1.14,0,2.07,0.35,2.79,1.05c0.72,0.7,1.12,1.65,1.21,2.84l0.02,0.58c0,1.3-0.36,2.34-1.09,3.12c-0.72,0.78-1.7,1.18-2.91,1.18
		s-2.19-0.39-2.92-1.17s-1.09-1.84-1.09-3.19V40.1z M120.82,40.26c0,0.8,0.15,1.42,0.45,1.84c0.3,0.43,0.73,0.64,1.3,0.64
		c0.55,0,0.97-0.21,1.28-0.63c0.31-0.42,0.46-1.09,0.46-2.01c0-0.79-0.15-1.4-0.46-1.83c-0.31-0.43-0.74-0.65-1.3-0.65
		c-0.55,0-0.98,0.22-1.28,0.65C120.97,38.69,120.82,39.36,120.82,40.26z"/>
	<path class="st1" d="M130.22,35.95v6.63h2.32v-6.63h2.27v6.63h2.32v-6.63h2.26v8.45h-11.42v-8.45H130.22z"/>
	<path class="st1" d="M145.09,44.56c-1.24,0-2.25-0.38-3.03-1.14c-0.78-0.76-1.17-1.77-1.17-3.04v-0.22c0-0.85,0.16-1.61,0.49-2.28
		c0.33-0.67,0.79-1.18,1.39-1.55c0.6-0.36,1.29-0.54,2.06-0.54c1.16,0,2.07,0.36,2.73,1.09c0.66,0.73,1,1.76,1,3.1v0.92h-5.38
		c0.07,0.55,0.29,1,0.66,1.33c0.37,0.33,0.83,0.5,1.39,0.5c0.87,0,1.55-0.31,2.04-0.95l1.11,1.24c-0.34,0.48-0.8,0.85-1.38,1.12
		S145.79,44.56,145.09,44.56z M144.83,37.62c-0.45,0-0.81,0.15-1.09,0.46c-0.28,0.3-0.46,0.74-0.54,1.3h3.14v-0.18
		c-0.01-0.5-0.15-0.89-0.41-1.17C145.68,37.75,145.31,37.62,144.83,37.62z"/>
	<path class="st1" d="M157.17,44.41h-2.27v-3.24h-2.8v3.24h-2.26v-8.45h2.26v3.39h2.8v-3.39h2.27V44.41z"/>
	<path class="st1" d="M166.25,44.41h-2.27v-3.24h-2.8v3.24h-2.26v-8.45h2.26v3.39h2.8v-3.39h2.27V44.41z"/>
	<path class="st1" d="M175.05,35.95v8.45h-2.25v-2.92h-1.43l-1.62,2.92h-2.29l1.84-3.3c-0.51-0.23-0.89-0.55-1.17-0.95
		c-0.27-0.4-0.41-0.86-0.41-1.37c0-0.82,0.32-1.49,0.95-2.01s1.48-0.8,2.54-0.82H175.05z M171.25,39.91h1.55v-2.13h-1.47
		c-0.4,0-0.73,0.1-0.98,0.32c-0.25,0.21-0.38,0.47-0.38,0.77s0.12,0.55,0.36,0.75C170.58,39.8,170.88,39.9,171.25,39.91z"/>
</g>
</svg>
