<?xml version="1.0" encoding="utf-8"?>
<!-- Generator: Adobe Illustrator 25.4.1, SVG Export Plug-In . SVG Version: 6.00 Build 0)  -->
<svg version="1.1" id="Layer_1" xmlns="http://www.w3.org/2000/svg" xmlns:xlink="http://www.w3.org/1999/xlink" x="0px" y="0px"
	 viewBox="0 0 199.66 79.94" style="enable-background:new 0 0 199.66 79.94;" xml:space="preserve">
<style type="text/css">
	.st0{fill:#65CE00;}
	.st1{fill:#FFFFFF;}
</style>
<rect x="10" y="9.7" class="st0" width="180" height="60"/>
<g>
	<path class="st1" d="M47.12,30.87c1.1-0.72,2.52-1.22,4.27-1.22c2.81,0,4.75,1.46,4.75,3.96c0,1.99-1.44,3.5-3.34,3.94v0.05
		c2.28,0.24,3.94,1.73,3.94,4.06c0,3.36-2.9,4.7-5.86,4.7c-1.46,0-3-0.31-4.22-1.06l0.55-1.63c0.86,0.5,2.3,0.98,3.62,0.98
		c2.4,0,3.72-1.3,3.72-3.07c0-2.42-2.33-3.12-4.39-3.12h-0.96v-1.58h0.96c2.14,0,3.79-1.32,3.79-2.98c0-1.63-1.15-2.54-2.9-2.54
		c-1.22,0-2.5,0.5-3.36,1.06L47.12,30.87z"/>
	<path class="st1" d="M59.43,34.61c0.82-0.14,2.33-0.26,3.7-0.26c1.94,0,5.16,0.31,5.16,2.9c0,1.44-1.1,2.33-2.42,2.62v0.05
		c1.7,0.24,2.95,1.2,2.95,2.88c0,3.05-3.84,3.43-6.12,3.43c-1.3,0-2.64-0.1-3.26-0.14V34.61z M61.42,44.69
		c0.6,0.07,1.03,0.1,1.7,0.1c1.42,0,3.53-0.34,3.53-2.02c0-1.68-1.68-2.04-3.7-2.04h-1.54V44.69z M61.45,39.34h1.58
		c1.56,0,3.17-0.46,3.17-1.82c0-1.15-1.01-1.7-3.12-1.7c-0.7,0-1.13,0.05-1.63,0.1V39.34z"/>
	<path class="st1" d="M74.14,29.64c-0.55,2.02-1.58,4.58-2.26,5.69l-1.34,0.17c0.53-1.42,1.15-3.91,1.42-5.64L74.14,29.64z"/>
	<path class="st1" d="M84.92,46.08h-2.09v-4.87h-1.56c-0.89,0-1.49,0.24-1.94,0.65c-0.86,0.7-1.18,2.14-1.63,3.26
		c-0.14,0.36-0.31,0.67-0.48,0.96h-2.26c0.26-0.38,0.5-0.82,0.72-1.32c0.5-1.13,0.79-2.64,1.82-3.5c0.36-0.31,0.79-0.58,1.32-0.67
		v-0.07c-1.51-0.17-3.07-1.1-3.07-2.88c0-1.2,0.65-2.02,1.54-2.52c0.96-0.55,2.38-0.79,3.89-0.79c1.39,0,2.74,0.12,3.74,0.24V46.08z
		 M82.83,35.86c-0.53-0.07-1.01-0.12-1.75-0.12c-1.44,0-3.14,0.41-3.14,2.02c0,1.49,1.85,2.02,3.1,2.02c0.86,0,1.32,0,1.8,0V35.86z"
		/>
	<path class="st1" d="M89.31,39.34h1.01c1.78,0,2.98-0.82,2.98-1.9c0-1.03-0.94-1.68-2.26-1.68c-0.94,0-1.99,0.31-2.81,0.82
		l-0.53-1.3c1.18-0.72,2.52-1.06,3.86-1.06c1.78,0,3.94,0.79,3.94,3.05c0,1.44-1.32,2.38-2.62,2.64v0.05
		c1.73,0.14,3.17,1.2,3.17,2.9c0,2.52-2.57,3.46-5.02,3.46c-1.37,0-2.74-0.36-3.77-0.94l0.55-1.42c0.84,0.46,1.97,0.79,3.07,0.79
		c1.75,0,2.86-0.84,2.86-1.99c0-1.56-1.63-1.99-3.38-1.99h-1.06V39.34z"/>
	<path class="st1" d="M105.13,46.08l-0.17-1.46h-0.07c-0.65,0.91-1.9,1.73-3.55,1.73c-2.35,0-3.55-1.66-3.55-3.34
		c0-2.81,2.5-4.34,6.98-4.32v-0.24c0-0.96-0.26-2.69-2.64-2.69c-1.08,0-2.21,0.34-3.02,0.86l-0.48-1.39
		c0.96-0.62,2.35-1.03,3.82-1.03c3.55,0,4.42,2.42,4.42,4.75v4.34c0,1.01,0.05,1.99,0.19,2.78H105.13z M104.82,40.16
		c-2.3-0.05-4.92,0.36-4.92,2.62c0,1.37,0.91,2.02,1.99,2.02c1.51,0,2.47-0.96,2.81-1.94c0.07-0.22,0.12-0.46,0.12-0.67V40.16z"/>
	<path class="st1" d="M117.94,34.47v1.68h-3.62v9.94h-2.09v-9.94h-3.62v-1.68H117.94z"/>
	<path class="st1" d="M121.74,34.47v4.9c0,1.85-0.02,3-0.12,4.66l0.07,0.02c0.7-1.42,1.1-2.23,1.87-3.58l3.62-6h2.47v11.62h-2.02
		v-4.92c0-1.9,0.05-2.88,0.14-4.75h-0.07c-0.74,1.49-1.25,2.42-1.92,3.6c-1.1,1.8-2.38,4.03-3.62,6.07h-2.42V34.47H121.74z"/>
	<path class="st1" d="M141.37,45.65c-0.55,0.29-1.78,0.67-3.34,0.67c-3.5,0-5.78-2.38-5.78-5.93c0-3.58,2.45-6.17,6.24-6.17
		c1.25,0,2.35,0.31,2.93,0.6l-0.48,1.63c-0.5-0.29-1.3-0.55-2.45-0.55c-2.66,0-4.1,1.97-4.1,4.39c0,2.69,1.73,4.34,4.03,4.34
		c1.2,0,1.99-0.31,2.59-0.58L141.37,45.65z"/>
	<path class="st1" d="M145.88,34.47v3.94c0.48-0.1,1.3-0.12,1.92-0.12c2.62,0,5.38,0.82,5.38,3.91c0,1.2-0.48,2.04-1.22,2.66
		c-1.27,1.08-3.34,1.34-5.04,1.34c-1.18,0-2.26-0.07-3.12-0.17V34.47H145.88z M145.88,44.62c0.41,0.05,0.86,0.1,1.56,0.1
		c1.58,0,3.62-0.53,3.62-2.47c0-2.02-2.11-2.45-3.67-2.45c-0.55,0-1.03,0.05-1.51,0.12V44.62z"/>
</g>
</svg>
