<?xml version="1.0" encoding="utf-8"?>
<!-- Generator: Adobe Illustrator 25.4.1, SVG Export Plug-In . SVG Version: 6.00 Build 0)  -->
<svg version="1.1" id="Layer_1" xmlns="http://www.w3.org/2000/svg" xmlns:xlink="http://www.w3.org/1999/xlink" x="0px" y="0px"
	 viewBox="0 0 393.86 305.95" style="enable-background:new 0 0 393.86 305.95;" xml:space="preserve">
<style type="text/css">
	.st0{opacity:0.7;}
	.st1{fill:#FFD262;}
	.st2{fill:#1A2E35;}
	.st3{fill:#FFFFFF;}
	.st4{fill:#3C89FF;}
	.st5{clip-path:url(#SVGID_00000124130935739465326110000013063333318749706659_);}
	.st6{opacity:0.2;}
</style>
<g>
	<g>
		<g class="st0">
			<g>
				<path class="st1" d="M105.84,87.04c39.11-44.5,106.26-51.92,136.2-37.62c12.51,5.98,23.09,13.3,31.93,21.34
					c1.25,1.13,2.47,2.28,3.64,3.44c3.8,3.74,7.23,7.6,10.34,11.54c3.99,5.04,7.42,10.2,10.35,15.35
					c4.71,8.28,8.1,16.54,10.34,24.26c1.77,6.1,2.82,11.86,3.23,17.03c0.85,10.83,0.11,21.75-1.35,32.51
					c-0.13,1.03-0.28,2.05-0.44,3.08c-0.04,0.28-0.08,0.57-0.12,0.85c-1.6,10.7-3.87,21.5-8.93,30.83
					c-5.51,10.18-24.87,37.8-45.78,38.54c-10.85,0.39-68.17-0.09-78-5.11c-15.64-7.97,14.5-15.46-2.75-15.92s-34.71,0.03-51.51-4.24
					c-16.81-4.27-33.29-14.1-41.88-30.45c-2.92-5.55-5.14-13.54-5.14-19.94c-0.01-18.87,3.08-35.38,8.46-49.72
					c1.75-4.68,3.75-9.13,5.97-13.36c3.41-6.51,7.34-12.49,11.68-17.96L105.84,87.04z"/>
			</g>
		</g>
	</g>
	<g>
		<path class="st2" d="M304.81,248.52H64.77c-0.15,0-0.28-0.12-0.28-0.28s0.12-0.28,0.28-0.28h240.05c0.15,0,0.28,0.12,0.28,0.28
			S304.97,248.52,304.81,248.52z"/>
	</g>
	<g>
		<g>
			<g>
				<rect x="64.77" y="179" class="st3" width="106.61" height="69.25"/>
				<path class="st2" d="M171.38,248.52H64.77c-0.15,0-0.28-0.12-0.28-0.28V179c0-0.15,0.12-0.28,0.28-0.28h106.61
					c0.15,0,0.28,0.12,0.28,0.28v69.25C171.66,248.4,171.53,248.52,171.38,248.52z M65.05,247.97H171.1v-68.69H65.05V247.97z"/>
			</g>
			<g>
				<polygon class="st3" points="64.77,179 118.07,213.62 171.38,179 				"/>
				<path class="st2" d="M118.07,213.9c-0.05,0-0.11-0.02-0.15-0.04l-53.31-34.62c-0.1-0.07-0.15-0.2-0.12-0.31
					c0.04-0.12,0.14-0.2,0.27-0.2h106.61c0.12,0,0.23,0.08,0.27,0.2c0.04,0.12-0.01,0.25-0.12,0.31l-53.31,34.62
					C118.18,213.89,118.13,213.9,118.07,213.9z M65.71,179.28l52.36,34.01l52.36-34.01H65.71z"/>
			</g>
			<g>
				<path class="st2" d="M64.77,248.52c-0.06,0-0.13-0.02-0.18-0.06c-0.12-0.1-0.14-0.27-0.04-0.39l37.28-45.03
					c0.1-0.12,0.27-0.13,0.39-0.04c0.12,0.1,0.14,0.27,0.04,0.39l-37.28,45.03C64.93,248.49,64.85,248.52,64.77,248.52z"/>
			</g>
			<g>
				<path class="st2" d="M171.67,248.52c-0.08,0-0.16-0.03-0.21-0.1l-37.28-45.03c-0.1-0.12-0.08-0.29,0.04-0.39
					c0.12-0.1,0.29-0.08,0.39,0.04l37.28,45.03c0.1,0.12,0.08,0.29-0.04,0.39C171.79,248.5,171.73,248.52,171.67,248.52z"/>
			</g>
		</g>
	</g>
</g>
<g>
	<g>
		<g>
			<g>
				<g>
					<g>
						<path class="st2" d="M224.19,248.29l-54.5-0.25c-6.55-0.03-11.84-5.37-11.82-11.92l0.58-136.62
							c0.03-6.56,5.37-11.85,11.93-11.82l54.5,0.25c6.55,0.03,11.84,5.37,11.82,11.92l-0.58,136.62
							C236.08,243.02,230.74,248.32,224.19,248.29z"/>
					</g>
				</g>
				<g>
					<g>
						<path class="st4" d="M224.8,92.63l-10.57-0.05c-1.42-0.01-2.57,1.19-2.58,2.67l-0.01,1.92c-0.01,1.48-1.16,2.68-2.58,2.67
							l-20.6-0.1c-1.42-0.01-2.56-1.21-2.55-2.69l0.01-1.92c0.01-1.48-1.14-2.69-2.55-2.69l-3.72-0.02l-9.25-0.04
							c-4.59-0.02-8.33,3.69-8.35,8.28l-0.56,133.36c-0.02,4.59,3.69,8.33,8.28,8.35l54.39,0.25c4.59,0.02,8.33-3.69,8.35-8.28
							l0.56-133.36C233.09,96.39,229.39,92.65,224.8,92.63z"/>
					</g>
				</g>
			</g>
		</g>
	</g>
	<g>
		<g>
			<g>
				<g>
					<path class="st3" d="M210.42,210.63c0.12,6.76-5.26,12.23-12.02,12.23c-6.76,0-12.33-5.48-12.45-12.23
						c-0.12-6.76,5.26-12.23,12.02-12.23S210.3,203.88,210.42,210.63z"/>
				</g>
			</g>
			<g>
				<path class="st4" d="M194.18,219.76c-1.14-0.42-2.18-1.06-3.06-1.89c-0.89-0.86-1.59-1.91-2.03-3.06
					c-0.5-1.3-0.75-2.68-0.73-4.07c-0.01-1.19,0.2-2.37,0.62-3.48c0.38-1.02,0.94-1.96,1.67-2.77c1.43-1.57,3.29-2.7,5.34-3.25
					c1.01-0.27,2.05-0.41,3.09-0.41c0.87,0,1.73,0.1,2.57,0.31c0.81,0.2,1.59,0.52,2.31,0.96c0.71,0.43,1.34,0.96,1.88,1.59
					c0.56,0.68,0.99,1.45,1.26,2.29c0.32,0.95,0.47,1.95,0.46,2.95c-0.01,1.93-0.7,3.79-1.95,5.26c-0.54,0.62-1.18,1.14-1.9,1.54
					c-0.62,0.36-1.31,0.55-2.02,0.56c-0.49,0.01-0.97-0.15-1.36-0.44c-0.4-0.3-0.64-0.76-0.64-1.26c-0.83,1.17-1.96,1.76-3.38,1.76
					c-1.16,0-2.08-0.4-2.77-1.19c-0.69-0.79-1.04-1.76-1.03-2.92c0-0.88,0.16-1.75,0.45-2.58c0.29-0.84,0.7-1.62,1.23-2.33
					c0.52-0.7,1.19-1.28,1.96-1.7c0.76-0.43,1.63-0.66,2.51-0.66c0.61-0.01,1.21,0.14,1.75,0.43c0.52,0.28,0.95,0.71,1.22,1.24
					l0.11-0.37c0.18-0.55,0.77-0.84,1.32-0.66c0.1,0.03,0.2,0.08,0.29,0.15c0.17,0.14,0.27,0.35,0.25,0.57
					c0,0.1-0.02,0.21-0.05,0.31l-1.81,6.02c-0.2,0.69-0.31,1.16-0.31,1.42c0,0.43,0.22,0.65,0.66,0.65c0.58,0,1.15-0.27,1.7-0.8
					c0.6-0.6,1.06-1.32,1.36-2.12c0.35-0.87,0.52-1.8,0.52-2.74c0.01-0.83-0.11-1.65-0.36-2.43c-0.2-0.68-0.53-1.32-0.96-1.88
					c-0.41-0.51-0.9-0.95-1.46-1.3c-0.56-0.35-1.16-0.61-1.8-0.78c-0.65-0.17-1.32-0.26-2-0.26c-0.86,0-1.71,0.12-2.53,0.36
					c-0.84,0.24-1.65,0.6-2.39,1.08c-0.75,0.47-1.42,1.05-2.01,1.71c-0.6,0.7-1.07,1.5-1.39,2.36c-0.35,0.94-0.52,1.95-0.52,2.95
					c-0.02,1.19,0.2,2.38,0.64,3.49c0.38,0.96,0.97,1.82,1.74,2.51c0.74,0.64,1.6,1.14,2.52,1.47c0.98,0.35,2.01,0.52,3.04,0.51
					c1.11,0,2.21-0.17,3.26-0.5c0.11-0.04,0.22-0.05,0.33-0.05c0.22-0.01,0.43,0.08,0.57,0.24c0.14,0.15,0.22,0.34,0.22,0.54
					c0.03,0.34-0.19,0.64-0.52,0.71c-1.32,0.4-2.69,0.61-4.07,0.62C196.7,220.45,195.4,220.22,194.18,219.76z M198.79,213.98
					c0.55-0.4,0.96-0.96,1.17-1.6l1.17-4.1l-0.08-0.17c-0.07-0.14-0.16-0.26-0.27-0.38c-0.14-0.16-0.29-0.31-0.45-0.45
					c-0.21-0.17-0.45-0.3-0.7-0.38c-0.66-0.23-1.38-0.21-2.03,0.07c-0.35,0.15-0.67,0.36-0.95,0.62c-0.29,0.27-0.55,0.58-0.77,0.91
					c-0.23,0.34-0.43,0.71-0.58,1.09c-0.16,0.38-0.28,0.78-0.36,1.18c-0.08,0.38-0.13,0.77-0.13,1.17c0,0.25,0.01,0.5,0.05,0.75
					c0.03,0.22,0.08,0.44,0.15,0.65c0.06,0.19,0.15,0.37,0.26,0.54c0.1,0.16,0.23,0.29,0.38,0.4c0.16,0.12,0.34,0.2,0.53,0.26
					c0.22,0.06,0.46,0.09,0.69,0.09C197.55,214.62,198.23,214.4,198.79,213.98L198.79,213.98z"/>
			</g>
		</g>
		<g>
			<g>
				<g>
					<path class="st3" d="M210.14,168.69c0.12,6.76-5.26,12.23-12.02,12.23c-6.76,0-12.33-5.48-12.45-12.23
						c-0.12-6.76,5.26-12.23,12.02-12.23C204.45,156.46,210.02,161.94,210.14,168.69z"/>
				</g>
			</g>
			<g>
				<path class="st4" d="M205.59,167.58c-3.83-2.51-11.35-2.51-15,0c-1.36,0.25-2.36,1.46-2.31,2.9c0.06,1.62,6.8,1.62,6.75,0
					c-0.02-0.7-0.3-1.34-0.73-1.84c2.42-0.54,5.23-0.54,7.68,0c-0.39,0.51-0.63,1.14-0.6,1.84c0.06,1.62,6.8,1.62,6.75,0
					C208.05,169.04,206.96,167.83,205.59,167.58z"/>
			</g>
		</g>
		<g>
			<g>
				<g>
					<g>
						<path class="st3" d="M210.14,127.96c0.07,3.01-1.57,5.7-4.21,7.49v7.31l-5.24-5.24c-0.83,0.15-1.68,0.22-2.57,0.22
							c-6.75,0-12.33-4.37-12.45-9.77c-0.12-5.39,5.26-9.77,12.02-9.77C204.45,118.19,210.02,122.56,210.14,127.96z"/>
					</g>
				</g>
			</g>
			<g>
				<path class="st4" d="M192.7,127.96c0,0.87-0.71,1.58-1.58,1.58c-0.87,0-1.58-0.71-1.58-1.58c0-0.87,0.71-1.58,1.58-1.58
					C191.99,126.38,192.7,127.09,192.7,127.96z"/>
			</g>
			<g>
				<path class="st4" d="M199.48,127.96c0,0.87-0.71,1.58-1.58,1.58c-0.87,0-1.58-0.71-1.58-1.58c0-0.87,0.71-1.58,1.58-1.58
					C198.77,126.38,199.48,127.09,199.48,127.96z"/>
			</g>
			<g>
				<path class="st4" d="M206.26,127.96c0,0.87-0.71,1.58-1.58,1.58c-0.87,0-1.58-0.71-1.58-1.58c0-0.87,0.71-1.58,1.58-1.58
					C205.55,126.38,206.26,127.09,206.26,127.96z"/>
			</g>
		</g>
	</g>
	<g>
		<defs>
			<path id="SVGID_1_" d="M224.9,92.63l-10.57-0.05c-1.42-0.01-2.57,1.19-2.58,2.67l-0.01,1.92c-0.01,1.48-1.16,2.68-2.58,2.67
				l-20.6-0.1c-1.42-0.01-2.56-1.21-2.55-2.69l0.01-1.92c0.01-1.48-1.14-2.69-2.55-2.69l-3.72-0.02l-9.25-0.04
				c-4.59-0.02-8.33,3.69-8.35,8.28l-0.56,133.36c-0.02,4.59,3.69,8.33,8.28,8.35l54.39,0.25c4.59,0.02,8.33-3.69,8.35-8.28
				l0.56-133.36C233.19,96.39,229.49,92.65,224.9,92.63z"/>
		</defs>
		<clipPath id="SVGID_00000050630571871529585060000014702214941954419619_">
			<use xlink:href="#SVGID_1_"  style="overflow:visible;"/>
		</clipPath>
		<g style="clip-path:url(#SVGID_00000050630571871529585060000014702214941954419619_);">
			<g class="st6">
				<polygon class="st3" points="214.25,92.7 171.12,242.52 188.25,242.51 229.79,92.7 				"/>
			</g>
			<g class="st6">
				<polygon class="st3" points="206.41,92.7 160.81,242.53 163.31,242.51 208.06,92.7 				"/>
			</g>
		</g>
	</g>
</g>
</svg>
