<?xml version="1.0" encoding="utf-8"?>
<!-- Generator: Adobe Illustrator 25.4.1, SVG Export Plug-In . SVG Version: 6.00 Build 0)  -->
<svg version="1.1" id="Layer_1" xmlns="http://www.w3.org/2000/svg" xmlns:xlink="http://www.w3.org/1999/xlink" x="0px" y="0px"
	 viewBox="0 0 38.81 41.81" style="enable-background:new 0 0 38.81 41.81;" xml:space="preserve">
<style type="text/css">
	.st0{fill:#1677F0;}
	.st1{fill:#FFFFFF;}
</style>
<g>
	<path class="st0" d="M37.53,21.49c0-10.07-8.16-18.23-18.23-18.23S1.07,11.42,1.07,21.49c0,9.1,6.67,16.64,15.38,18.01V26.76h-4.63
		v-5.27h4.63v-4.02c0-4.57,2.72-7.09,6.88-7.09c1.99,0,4.08,0.36,4.08,0.36v4.49h-2.3c-2.26,0-2.97,1.41-2.97,2.85v3.42h5.06
		l-0.81,5.27h-4.25V39.5C30.86,38.13,37.53,30.59,37.53,21.49z"/>
	<path class="st1" d="M26.39,26.76l0.81-5.27h-5.06v-3.42c0-1.44,0.71-2.85,2.97-2.85h2.3v-4.49c0,0-2.09-0.36-4.08-0.36
		c-4.16,0-6.88,2.52-6.88,7.09v4.02h-4.63v5.27h4.63V39.5c0.93,0.15,1.88,0.22,2.85,0.22s1.92-0.08,2.85-0.22V26.76H26.39z"/>
</g>
</svg>
