<?xml version="1.0" encoding="utf-8"?>
<!-- Generator: Adobe Illustrator 25.4.1, SVG Export Plug-In . SVG Version: 6.00 Build 0)  -->
<svg version="1.1" id="Layer_1" xmlns="http://www.w3.org/2000/svg" xmlns:xlink="http://www.w3.org/1999/xlink" x="0px" y="0px"
	 viewBox="0 0 1200 627" style="enable-background:new 0 0 1200 627;" xml:space="preserve">
<style type="text/css">
	.st0{fill:#3C89FF;}
	.st1{fill:#FFD262;}
	.st2{fill:#FF9E5D;}
	.st3{fill:#134EC6;}
	.st4{fill:#0B2E68;}
	.st5{fill:#EFAC7F;}
	.st6{fill:#F8A492;}
	.st7{fill:#3B77BE;}
	.st8{fill:#FE875E;}
	.st9{fill:#FF511F;}
	.st10{fill:#D19369;}
	.st11{fill:#282828;}
	.st12{fill:#FFC564;}
	.st13{fill:#13375B;}
	.st14{fill:#ED9780;}
	.st15{fill:#F48C7F;}
	.st16{fill:#F7A491;}
	.st17{fill:#FFB023;}
	.st18{fill:#45258F;}
	.st19{fill:#BF7E71;}
</style>
<g>
	<g>
		<g>
			<rect x="550.22" y="233.59" class="st0" width="161.11" height="119.7"/>
			<path class="st1" d="M712.81,354.76H548.75V232.11h164.06V354.76z M551.7,351.8h158.15V235.06H551.7V351.8z"/>
		</g>
		<g>
			<path class="st0" d="M372.21,285.49c5.6-5.25,21.75-17.78,18.37-26.08c-1.27-3.07-4.53-5.73-6.2-8.67
				c-1.93-3.4-3.33-7.47-5.27-11c-1.67-2.93-3.53-5.6-4.67-8.67c5.73-0.8,11.06-2.6,15.66-6.27c6.93-5.53,11.93-11.33,20.93-13.8
				c5.6-1.53,13-2.07,18.53-0.27c7.6,2.4,12.33,7.4,21.13,6.67c9-0.73,15.6-6.2,24.79-4.13c5.2,1.2,7.67,3.47,13.2,3.53
				c3.53,0,7.27,0.27,10.8-0.27c8-1.33,14-0.73,22.13,0.8c7.93,1.47,22.19,7.07,29.19,0.27c6.07-6,0.27-15.06,6.73-21
				c5.47-5.07,18.6-3.67,19.4-12.73c0-0.13,0-0.33,0.07-0.47c3.93,1.33,8.93,2.27,11,0.8c3.93-2.73,0.73-11.2,5.73-13.33
				c1.93-0.87,4.33,0.73,6.47,0.8c3.07,0,4.47-1.13,6.87-2.6c4.67-2.87,9.53-3.67,15.06-3.13c1.27,0.07,4.91,0.33,6.25,0.73
				c0,25.6-0.67,51.26-0.67,76.99c0,0-8.45-1.93-11.38-3.67c-1.87-1.07-4-1.67-6.13-1.67c-6.6,0-11.93,5.33-11.93,11.93
				c0,6.6,5.33,11.93,11.93,11.93c2.13,0,4.27-0.6,6.13-1.73c3.2-1.8,7.78-3.07,11.38-3.6v27.13c0,0-36.03,0-48.89,0"/>
			<path class="st1" d="M373.22,286.57l-2.02-2.15c0.78-0.73,1.76-1.6,2.87-2.58c6.17-5.48,17.66-15.67,15.15-21.87
				c-0.62-1.5-1.85-2.96-3.15-4.51c-1.07-1.27-2.17-2.58-2.97-3.98c-1.04-1.83-1.93-3.84-2.79-5.79c-0.78-1.76-1.58-3.58-2.49-5.23
				c-0.43-0.76-0.89-1.52-1.34-2.28c-1.25-2.07-2.53-4.22-3.41-6.58l-0.64-1.72l1.82-0.25c6.09-0.85,10.98-2.8,14.95-5.96
				c1.51-1.21,2.95-2.45,4.35-3.64c5.03-4.33,9.79-8.42,17.11-10.42c5.29-1.45,13.15-2.27,19.38-0.25c2.69,0.85,5.01,2,7.26,3.12
				c4.24,2.11,7.91,3.93,13.29,3.48c3.4-0.28,6.53-1.29,9.56-2.27c4.79-1.55,9.74-3.16,15.68-1.83c2.12,0.49,3.76,1.13,5.34,1.74
				c2.37,0.92,4.42,1.72,7.55,1.75c0,0,0.01,0,0.01,0c0.87,0,1.76,0.02,2.67,0.03c2.63,0.05,5.35,0.1,7.89-0.28
				c8.18-1.36,14.26-0.77,22.62,0.81c1.58,0.29,3.41,0.74,5.34,1.22c7.8,1.93,17.51,4.34,22.56-0.56c2.55-2.53,2.66-5.83,2.76-9.32
				c0.12-3.87,0.25-8.27,4-11.7c2.33-2.16,5.76-3.22,9.07-4.24c5.85-1.81,9.44-3.22,9.85-7.47c0-0.25,0.02-0.65,0.22-1.05l0.57-1.16
				l1.23,0.42c4.41,1.5,8.39,1.9,9.67,0.99c1.29-0.9,1.54-3.04,1.79-5.3c0.34-2.99,0.76-6.71,4.22-8.19
				c1.66-0.75,3.39-0.24,4.92,0.21c0.79,0.23,1.54,0.45,2.17,0.47c2.23,0,3.36-0.7,5.22-1.87c0.27-0.17,0.54-0.34,0.83-0.51
				c4.69-2.88,9.76-3.94,15.97-3.34l0,0c0.03,0,4.74,0.25,6.53,0.79l1.05,0.32v1.1c0,12.79-0.17,25.82-0.33,38.41
				c-0.17,12.64-0.33,25.7-0.33,38.57v1.85l-1.81-0.41c-0.35-0.08-8.71-2-11.8-3.83c-1.67-0.95-3.53-1.46-5.38-1.46
				c-5.77,0-10.46,4.69-10.46,10.46s4.69,10.46,10.46,10.46c1.87,0,3.73-0.52,5.37-1.52c3.62-2.04,8.53-3.29,11.93-3.8l1.69-0.25
				v30.32h-50.36v-2.95h47.41v-23.9c-2.93,0.58-6.49,1.62-9.18,3.13c-2.06,1.25-4.44,1.92-6.86,1.92c-7.39,0-13.41-6.01-13.41-13.41
				s6.01-13.41,13.41-13.41c2.36,0,4.73,0.64,6.86,1.86c1.81,1.07,6.28,2.34,9.17,3.07c0.01-12.28,0.18-24.7,0.33-36.74
				c0.16-12.19,0.32-24.79,0.33-37.17c-1.38-0.21-3.5-0.39-4.85-0.46c-5.6-0.54-10.1,0.39-14.21,2.92l-0.81,0.5
				c-1.99,1.24-3.71,2.32-6.83,2.32c-1.05-0.03-2.02-0.32-2.95-0.59c-1.14-0.33-2.22-0.65-2.91-0.34c-1.78,0.76-2.12,2.7-2.47,5.81
				c-0.3,2.68-0.65,5.73-3.03,7.38c-2.54,1.8-7.49,0.82-10.64-0.09c-1.23,5.52-6.78,7.24-11.72,8.76c-3.14,0.97-6.1,1.89-7.94,3.59
				c-2.83,2.6-2.93,5.85-3.05,9.62c-0.12,3.74-0.25,7.98-3.65,11.34c-6.23,6.05-17.27,3.32-25.33,1.32
				c-1.89-0.47-3.67-0.91-5.17-1.19c-8.03-1.52-13.85-2.09-21.62-0.8c-2.8,0.42-5.65,0.37-8.4,0.32c-0.89-0.02-1.77-0.03-2.64-0.03
				c-3.68-0.04-6.07-0.97-8.6-1.96c-1.49-0.58-3.02-1.18-4.93-1.61c-5.15-1.16-9.5,0.26-14.12,1.76c-3.19,1.03-6.48,2.1-10.23,2.41
				c-6.2,0.52-10.6-1.67-14.85-3.78c-2.14-1.06-4.36-2.17-6.85-2.95c-4.63-1.51-11.57-1.4-17.7,0.28
				c-6.68,1.83-10.99,5.53-15.97,9.82c-1.41,1.21-2.87,2.47-4.43,3.71c-3.97,3.16-8.72,5.22-14.49,6.27
				c0.7,1.49,1.57,2.92,2.46,4.42c0.47,0.78,0.94,1.56,1.39,2.36c0.97,1.78,1.8,3.66,2.61,5.47c0.87,1.97,1.69,3.83,2.66,5.52
				c0.66,1.17,1.63,2.32,2.66,3.54c1.39,1.65,2.82,3.36,3.62,5.29c3.3,8.14-8.73,18.81-15.92,25.19
				C374.94,285,373.98,285.85,373.22,286.57z"/>
		</g>
		<g>
			<path class="st0" d="M629.65,166.69c1.57,1.48,4.5,7.25,5.5,9.01c1.67,2.93,4.4,3.13,6.47,5.4c1.6,1.73,1.87,4.07,2.47,6.27
				c1,4.07,1.8,12.53,6.33,13.86c2.27,0.73,5-1,7.2-1.13c3.13-0.13,4.87,0.67,7.4,2.27c5.2,3.13,8,7.6,10.93,12.73
				c1.47,2.6,3.33,5.93,5.67,7.87c3.47,2.67,5.2,1.27,8.8,0.73c3.67-0.53,9-0.53,12.53,0.4c3.27,0.93,5.33,3.07,8.93,2.67
				c6.53-0.8,7.8-8.13,14.13-9.2c8.6-1.33,12.66,3,19.2,7.8c8.8,6.33,16.4,2.4,26.26,1.73c4.53-0.27,9.86-1.2,14,0.73
				c3.87,1.87,6.13,4.2,10.27,5.07c7.6,1.67,21.86,2.93,20.13,13.86c-0.47,3.2-2,5.47-1.93,8.86c0.13,6.87,4.4,13.26,6.53,19.6
				c0.53,1.6,1.07,7.4,1.53,9.07c-39.59,0.33-42.13,0.2-78.85-0.13h-43.59c0-5.2,1.33-10.33,3.93-14.86c1.13-1.87,1.73-4,1.73-6.2
				c0-6.53-5.33-11.93-11.93-11.93c-6.6,0-11.93,5.4-11.93,11.93c0,2.2,0.6,4.33,1.73,6.2c2.6,4.53,3.93,9.66,3.93,14.86
				c0,0-52.67,0-58.15,0"/>
			<path class="st1" d="M787.47,285.95c-9.91,0-17.99-0.08-31.28-0.2l-13.06-0.12h-45.06v-1.48c0-5.5,1.43-10.89,4.13-15.6
				c1.01-1.67,1.54-3.55,1.54-5.46c0-5.77-4.69-10.46-10.45-10.46c-5.77,0-10.46,4.69-10.46,10.46c0,1.92,0.52,3.8,1.52,5.43
				c2.72,4.74,4.15,10.13,4.15,15.63v1.48h-59.62v-2.95h56.63c-0.23-4.47-1.5-8.81-3.7-12.65c-1.25-2.07-1.93-4.48-1.93-6.93
				c0-7.39,6.01-13.41,13.41-13.41c7.39,0,13.41,6.01,13.41,13.41c0,2.46-0.67,4.87-1.95,6.97c-2.19,3.81-3.45,8.16-3.68,12.62
				h42.08l13.08,0.12c24.37,0.23,31.23,0.3,63.99,0.03c-0.12-0.73-0.23-1.59-0.36-2.5c-0.24-1.74-0.54-3.91-0.79-4.63
				c-0.67-2-1.56-3.99-2.5-6.1c-1.97-4.43-4.01-9.01-4.11-13.93c-0.04-2.25,0.52-4.02,1.07-5.73c0.36-1.12,0.7-2.18,0.87-3.37
				c1.21-7.64-6.55-9.78-16.05-11.62c-1.05-0.2-2.04-0.39-2.94-0.59c-2.9-0.61-4.91-1.85-7.04-3.16c-1.1-0.68-2.24-1.38-3.55-2.02
				c-3.02-1.41-6.95-1.09-10.74-0.78c-0.86,0.07-1.71,0.14-2.52,0.19c-2.46,0.17-4.81,0.55-7.09,0.92
				c-6.74,1.09-13.1,2.13-20.12-2.93c-0.9-0.66-1.74-1.3-2.55-1.92c-5.07-3.88-8.75-6.67-15.56-5.62c-2.59,0.44-4.18,2.14-6.02,4.12
				c-2.01,2.16-4.29,4.61-8.16,5.08c-2.76,0.31-4.73-0.63-6.62-1.53c-0.96-0.46-1.86-0.89-2.89-1.18
				c-3.34-0.88-8.53-0.85-11.91-0.36c-0.75,0.11-1.42,0.26-2.07,0.41c-2.37,0.54-4.6,1.06-7.84-1.44c-2.56-2.12-4.47-5.51-6.01-8.23
				c-2.97-5.19-5.59-9.34-10.45-12.27c-2.45-1.55-3.89-2.17-6.57-2.06c-0.64,0.04-1.46,0.29-2.32,0.56c-1.66,0.52-3.55,1.1-5.39,0.5
				c-4.57-1.34-5.86-7.81-6.8-12.53c-0.18-0.88-0.34-1.7-0.51-2.38c-0.11-0.41-0.22-0.87-0.33-1.33c-0.39-1.64-0.76-3.18-1.79-4.29
				c-0.73-0.8-1.6-1.31-2.51-1.86c-1.4-0.83-3-1.78-4.15-3.81c-0.21-0.36-0.5-0.9-0.85-1.54c-1.16-2.14-3.32-6.11-4.39-7.13
				l2.03-2.14c1.31,1.24,3.09,4.42,4.96,7.86c0.33,0.61,0.62,1.13,0.82,1.49c0.77,1.36,1.85,2,3.09,2.73
				c1.01,0.6,2.16,1.28,3.18,2.4c1.54,1.67,2.04,3.76,2.48,5.6c0.1,0.43,0.2,0.85,0.32,1.27c0.19,0.76,0.36,1.61,0.54,2.55
				c0.75,3.76,1.89,9.44,4.78,10.29c0.99,0.32,2.34-0.1,3.65-0.5c1-0.31,2.03-0.63,3.05-0.69c3.45-0.14,5.48,0.73,8.28,2.49
				c5.44,3.27,8.39,7.94,11.42,13.25l0.05,0.09c1.42,2.51,3.18,5.63,5.28,7.37c2.09,1.61,3.18,1.36,5.34,0.87
				c0.67-0.15,1.43-0.33,2.3-0.46c3.57-0.52,9.2-0.6,13.12,0.43c1.3,0.37,2.36,0.88,3.38,1.36c1.73,0.83,3.1,1.48,5.01,1.26
				c2.78-0.34,4.43-2.11,6.34-4.16c1.93-2.07,4.11-4.42,7.71-5.02c8.09-1.25,12.6,2.19,17.82,6.19c0.8,0.61,1.62,1.24,2.49,1.88
				c6.02,4.33,11.27,3.48,17.91,2.4c2.34-0.38,4.76-0.77,7.38-0.95c0.81-0.05,1.63-0.12,2.47-0.18c3.99-0.33,8.5-0.7,12.25,1.05
				c1.47,0.71,2.67,1.45,3.84,2.17c1.99,1.23,3.7,2.28,6.11,2.79c0.89,0.2,1.86,0.38,2.88,0.58c8.03,1.55,20.16,3.9,18.41,14.96
				c-0.21,1.42-0.6,2.65-0.98,3.83c-0.5,1.55-0.97,3.02-0.93,4.77c0.08,4.33,2,8.63,3.85,12.79c0.93,2.08,1.88,4.23,2.6,6.37
				c0.33,0.99,0.61,3.02,0.91,5.17c0.22,1.62,0.46,3.29,0.65,3.97l0.52,1.86l-1.93,0.02C806.05,285.89,796.07,285.95,787.47,285.95z
				"/>
		</g>
		<g>
			<path class="st0" d="M626.06,400.86c-1.59-0.79-5.43-3.46-6.51-4.85c-5.72-7.38-9.8-8.4-14.73-11.33
				c-1.67,2.4-3.6,4.67-6.47,3.07c-2.13-1.27-3.33-7.8-5.07-10.27c-0.4-0.2-0.87-0.47-1.27-0.8c-0.67,0-1.4,0.67-2.33,2.47
				c-2.4,4.6-3.73,12.2-2.53,17.26c0.93,3.27,4.4,8.73,0.2,11.4c-3.73,2.47-7.59-3.33-10.47-0.56c-3.29,3.18-1.6,6.95-1,11.15
				c0.8,5.33-1.93,7.4-7.07,9.93c-3,1.47-7.33,2.87-6.07,7.4c0.67,2.47,3.47,3.27,3.67,6.07c0.13,1.73-0.45,4.82-1.96,5.68
				c-6.38,3.64-11.37-4.22-18.37-0.15c-6.93,4-15.51,5.48-17.4-0.4c-0.77-2.39,0.93-4.87,1.8-6.73c2.47-5.27,7.07-9.13,10.2-13.93
				c1.93-3.13,3.4-6.33,3.27-10.06c-0.07-2.53-1.62-6.13-1.87-8.46c-0.44-4.23,1.58-5.53,3.98-5.6c2.67,0,4.24,3.98,6.81,3.57
				c6.47-1.02,6.38-3.85,9.36-5.02c5.19-2.04,7.84,3.11,6.44-2.62c-0.93-4-1.8-8.33-5.4-10.4c-3.47-2.13-7.93-2.07-10.33-5.8
				c-2.4-3.8,0-8.53-2.87-11.8c-3.2-3.6-7.33-2.27-9.33-7.4c-2.6-6.53,1.33-13.8-5.47-17.73c-7.4-4.33-14.33-0.4-21.86-1.73
				c-6.73-1.13-11.53-7.73-18.6-8.8c-3.8-0.53-6.67,1.07-10.13,2.2c-3.6,1.07-6.6,1.07-10.4,1.13c-6.47,0.07-6.93,3.4-7.33,7.4
				c-6.2,0-10,4.73-14.73,8.73c-5.6,4.73-13.26,9.2-20.33,11.53c-9.13,2.93-11.66-2.4-19.66-4.2c-5.67-1.33-13.53,0.13-19.66-0.53
				c-5.66-0.6-12.06-0.27-17.8-0.53c-2.33-0.13-6.27-0.67-8.4,0c-0.73,0.2-1.2,0.4-1.6,0.53c-3.87-5.8-8.13-11-15.86-11.93
				c-1.2-0.13-2.33-0.13-3.47-0.07c0.13-1.13,0.27-2.2,0.33-3.27c0.47-5.53,3.13-9.4,6.2-13.8c1.73-2.33,3.47-5,3.53-7.73
				c0.47-0.07,1-0.2,1.47-0.27c8.4-1.6,2.67-10.6,3.4-17.6c0.93-8.13,5.87-14.93,11.86-20.33c46.86,0.07,91.45-0.73,139.84-0.73
				h0.27l49.99-0.07c-0.27,4.53-1.47,8.27-3.73,12.13c-1.13,1.87-1.73,4-1.73,6.2c0,6.6,5.33,11.93,11.93,11.93
				c6.6,0,11.93-5.33,11.93-11.93c0-2.2-0.6-4.33-1.73-6.2c-2.27-3.87-3.6-8.33-3.87-12.86c0,0,42.38,0,52.18,0"/>
			<path class="st1" d="M534.97,452.33c-1.29,0-2.51-0.19-3.61-0.61c-2-0.77-3.4-2.27-4.06-4.33c-0.82-2.55,0.45-5.01,1.37-6.81
				c0.18-0.35,0.35-0.68,0.49-0.99c1.55-3.32,3.88-6.07,6.12-8.74c1.52-1.81,2.96-3.51,4.18-5.38c1.56-2.53,3.15-5.63,3.03-9.21
				c-0.03-1.23-0.5-2.87-0.95-4.45c-0.4-1.41-0.79-2.75-0.91-3.92c-0.25-2.38,0.18-4.23,1.29-5.49c0.95-1.08,2.38-1.68,4.12-1.73
				c0,0,0,0,0,0c1.9,0,3.27,1.24,4.37,2.23c0.98,0.88,1.67,1.46,2.25,1.36c3.67-0.58,4.9-1.75,6.09-2.87
				c0.8-0.75,1.62-1.54,2.96-2.07c2.41-0.95,4.41-0.59,5.7-0.24c-0.04-0.19-0.09-0.4-0.15-0.65l-0.12-0.53
				c-0.87-3.74-1.69-7.28-4.58-8.94c-1.15-0.71-2.41-1.15-3.75-1.62c-2.48-0.87-5.28-1.85-7.09-4.66c-1.37-2.16-1.43-4.5-1.48-6.56
				c-0.05-2.01-0.1-3.75-1.25-5.06c-1.12-1.26-2.4-1.8-3.76-2.38c-2.09-0.89-4.45-1.9-5.84-5.45c-1.08-2.71-1.13-5.52-1.18-8
				c-0.08-3.89-0.14-6.96-3.65-8.99c-4.1-2.4-8.12-2-12.37-1.58c-2.89,0.29-5.87,0.58-9.01,0.03c-3.59-0.6-6.62-2.6-9.55-4.52
				c-2.95-1.94-5.73-3.77-9.02-4.27c-2.59-0.37-4.73,0.43-7.21,1.34c-0.73,0.27-1.47,0.54-2.25,0.8c-3.66,1.08-6.73,1.14-10.29,1.2
				l-0.55,0.01c-5.29,0.05-5.51,2.32-5.89,6.07l-0.13,1.33h-1.34c-4.48,0-7.58,2.81-11.17,6.07c-0.85,0.77-1.71,1.55-2.61,2.31
				c-5.99,5.07-13.78,9.48-20.82,11.8c-6.51,2.09-10.08,0.3-13.86-1.59c-1.95-0.97-3.96-1.98-6.6-2.57
				c-3.04-0.71-6.92-0.57-10.68-0.43c-2.98,0.11-6.06,0.22-8.82-0.07c-3.37-0.36-7.09-0.38-10.69-0.4
				c-2.33-0.01-4.74-0.03-7.02-0.13c-0.5-0.03-1.06-0.07-1.65-0.12c-2.03-0.17-4.81-0.39-6.24,0.06c-0.51,0.14-0.85,0.27-1.14,0.37
				c-0.16,0.06-0.3,0.11-0.44,0.15l-1.07,0.35l-0.62-0.94c-3.48-5.23-7.5-10.4-14.81-11.29c-0.99-0.11-2.01-0.13-3.2-0.06l-1.76,0.1
				l0.25-2.1c0.12-0.99,0.23-1.92,0.29-2.84c0.51-6.01,3.4-10.16,6.46-14.55c1.68-2.26,3.21-4.63,3.27-6.92l0.03-1.25l1.23-0.18
				c0.21-0.03,0.43-0.07,0.65-0.12c0.28-0.06,0.56-0.11,0.82-0.15c3.82-0.73,3.8-2.99,2.77-8.79c-0.44-2.47-0.89-5.03-0.63-7.5
				c0.86-7.53,5.02-14.68,12.35-21.27l0.42-0.38l0.57,0c24.16,0.03,48.22-0.17,71.49-0.36c22.08-0.18,44.9-0.37,68.35-0.37h0.27
				l51.56-0.07l-0.09,1.56c-0.27,4.67-1.49,8.62-3.93,12.79c-1.01,1.66-1.53,3.53-1.53,5.45c0,5.76,4.69,10.45,10.45,10.45
				c5.77,0,10.46-4.69,10.46-10.45c0-1.92-0.52-3.8-1.52-5.43c-2.39-4.08-3.8-8.75-4.08-13.54l-0.09-1.56h53.74v2.95h-50.57
				c0.44,3.78,1.64,7.43,3.53,10.64c1.26,2.08,1.94,4.49,1.94,6.95c0,7.39-6.01,13.41-13.41,13.41c-7.39,0-13.41-6.01-13.41-13.41
				c0-2.46,0.67-4.87,1.95-6.97c1.91-3.25,2.98-6.36,3.38-9.89l-48.65,0.06c-23.43,0-46.25,0.19-68.32,0.37
				c-23.1,0.19-46.97,0.38-70.95,0.36c-6.52,5.99-10.21,12.39-10.97,19.02c-0.21,2.04,0.2,4.39,0.61,6.66
				c0.86,4.84,1.92,10.86-5.19,12.22c-0.14,0.02-0.26,0.04-0.38,0.06c-0.44,2.64-2.02,5.09-3.71,7.36
				c-2.93,4.2-5.48,7.86-5.91,13.04c-0.03,0.54-0.08,1.07-0.14,1.62c0.68,0.01,1.32,0.05,1.97,0.12
				c8.08,0.98,12.69,6.37,16.29,11.63c0.19-0.06,0.39-0.12,0.63-0.19c1.92-0.6,4.9-0.36,7.3-0.17c0.57,0.05,1.1,0.09,1.57,0.12
				c2.2,0.1,4.58,0.11,6.88,0.13c3.67,0.02,7.47,0.04,10.98,0.41c2.55,0.28,5.52,0.17,8.4,0.06c3.95-0.15,8.04-0.3,11.45,0.5
				c2.97,0.67,5.25,1.81,7.25,2.81c3.64,1.82,6.27,3.14,11.62,1.42c6.59-2.18,14.19-6.49,19.83-11.25c0.87-0.73,1.7-1.49,2.53-2.24
				c3.41-3.09,6.92-6.28,11.82-6.77c0.44-3.56,1.58-7.39,8.65-7.46l0.54-0.01c3.48-0.06,6.23-0.11,9.46-1.06
				c0.7-0.23,1.4-0.49,2.1-0.75c2.61-0.97,5.32-1.97,8.66-1.5c3.94,0.59,7.13,2.69,10.21,4.72c2.79,1.84,5.43,3.58,8.42,4.08
				c2.75,0.49,5.41,0.22,8.22-0.05c4.53-0.45,9.22-0.91,14.14,1.97c4.95,2.86,5.03,7.24,5.12,11.48c0.05,2.34,0.09,4.76,0.98,6.98
				c0.94,2.41,2.33,3,4.25,3.82c1.53,0.65,3.26,1.39,4.82,3.14c1.86,2.12,1.93,4.68,1.99,6.93c0.05,1.85,0.1,3.59,1.02,5.06
				c1.25,1.95,3.26,2.65,5.58,3.46c1.42,0.5,2.9,1.01,4.28,1.87c3.97,2.28,5.02,6.81,5.94,10.81l0.12,0.51
				c0.45,1.85,0.7,3.24-0.21,4.11c-0.84,0.8-1.9,0.49-2.76,0.23c-1.06-0.31-2.51-0.75-4.37-0.01c-0.81,0.32-1.34,0.82-2.01,1.46
				c-1.37,1.3-3.08,2.92-7.66,3.65c-2.03,0.32-3.5-1.01-4.69-2.09c-0.84-0.76-1.63-1.47-2.35-1.47c-0.88,0.02-1.54,0.27-1.94,0.73
				c-0.53,0.61-0.73,1.73-0.57,3.24c0.1,0.91,0.44,2.13,0.81,3.41c0.5,1.76,1.02,3.57,1.06,5.17c0.16,4.35-1.67,7.94-3.49,10.88
				c-1.34,2.05-2.9,3.91-4.41,5.7c-2.22,2.64-4.32,5.12-5.71,8.08c-0.16,0.34-0.35,0.71-0.54,1.09c-0.76,1.49-1.63,3.18-1.19,4.56
				c0.39,1.21,1.15,2.02,2.32,2.47c2.88,1.11,7.96-0.03,12.94-2.9c4.17-2.42,7.72-1.2,10.86-0.12c2.67,0.92,4.99,1.71,7.51,0.27
				c0.71-0.4,1.35-2.65,1.22-4.29c-0.07-0.96-0.58-1.55-1.49-2.5c-0.81-0.85-1.73-1.82-2.13-3.3c-1.46-5.25,2.95-7.3,5.87-8.65
				c0.33-0.15,0.66-0.31,0.97-0.46c5.16-2.55,6.88-4.2,6.25-8.39c-0.11-0.8-0.27-1.58-0.42-2.34c-0.65-3.27-1.38-6.98,1.85-10.09
				c2.15-2.07,4.67-0.95,6.52-0.14c1.84,0.81,3.02,1.28,4.16,0.52c2.18-1.39,1.43-3.83,0.03-7.41c-0.32-0.83-0.63-1.62-0.84-2.35
				c-1.24-5.24-0.1-13.1,2.64-18.35c0.79-1.52,1.91-3.26,3.64-3.26h0.53l0.41,0.34c0.25,0.21,0.58,0.41,0.98,0.61l0.33,0.17
				l0.22,0.31c0.83,1.18,1.48,2.96,2.16,4.83c0.66,1.81,1.65,4.54,2.45,5.01c1.26,0.71,2.32,0.5,4.5-2.64l0.78-1.13l1.18,0.7
				c1.01,0.6,2,1.13,2.96,1.64c3.84,2.05,7.47,3.98,12.19,10.06c0.89,1.15,4.54,3.71,6,4.43l-1.31,2.64
				c-1.63-0.81-5.72-3.59-7.02-5.27c-4.33-5.58-7.53-7.29-11.24-9.26c-0.62-0.33-1.26-0.67-1.91-1.03c-1.48,1.92-4.06,4.39-7.6,2.41
				c-1.74-1.03-2.72-3.72-3.75-6.56c-0.53-1.46-1.08-2.96-1.62-3.87c-0.13-0.07-0.25-0.14-0.36-0.21c-0.2,0.23-0.5,0.66-0.9,1.43
				c-2.37,4.55-3.45,11.83-2.41,16.24c0.15,0.53,0.44,1.25,0.73,2.02c1.27,3.26,3.19,8.19-1.18,10.96c-2.52,1.67-5.09,0.53-6.97-0.3
				c-1.98-0.88-2.65-1.04-3.27-0.44c-1.98,1.91-1.69,3.95-1.01,7.4c0.16,0.8,0.32,1.63,0.44,2.49c0.98,6.52-2.99,9.05-7.87,11.46
				c-0.33,0.16-0.68,0.32-1.03,0.49c-3.44,1.6-4.98,2.63-4.27,5.19c0.21,0.77,0.77,1.36,1.42,2.04c0.96,1,2.15,2.25,2.29,4.31
				c0.13,1.72-0.35,5.73-2.7,7.07c-3.69,2.1-7.01,0.96-9.94-0.04c-2.9-1-5.41-1.86-8.42-0.11
				C543.4,450.59,538.89,452.33,534.97,452.33z"/>
		</g>
		<g>
			<path class="st0" d="M770.47,403.99c1,1.25,0.63,2.38,0.13,3.56c-0.25,0.69-0.56,1.38-0.69,2.13c-0.31,1.69,0.13,3.56,0,5.25
				c-0.37,5.06-5.13,3.63-8.69,5.38c-4.63,2.31-7.38,0.75-12.19,0.44c-5.88-0.38-6.38,3.88-8.82,8c-2.88,5.06-7,6.88-12.25,9.07
				c-4.88,1.88-4.94,6.56-8.81,9.38c-2.31,1.63-3.81,1.44-5.31,3.88c-1.19,2-2.06,3.44-4.44,4.13c-4.38,1.25-8.5-0.69-12.38-2.56
				c-1.75-0.81-2.69-1.13-3.13-3.5c-0.37-1.75,0.25-3.56,0.69-5.13c1-3.25,2.06-9.13-0.81-11.82c-3.06-2.88-7.69,0.44-11.19-0.25
				c-3.81-0.75-7.63-5.81-12.25-4.13c-1.81,0.69-2.25,2-4.44,1c-1.94-0.94-2.13-2.44-2.06-4.63c-0.13-2.44,2.75-3.56,4.31-4.25
				c1.31-0.56,3.56-1.06,4.5-2.13c1.06-1.06,1.06-3,1.75-4.25c1.75-3.06,5.56-4,8.69-5.31c3.44-1.31,7.81-2.75,6.94-7.31
				c-0.44-2.38-2.63-5-0.12-6.44c0.31-0.19,0.62-0.31,1.06-0.44c3-0.94,6.06,1.69,8.75,2.5c2,0.56,4.19,1,6.31,1.19
				c1.69,0.13,5-0.69,6.5-0.06c2.06,0.88,2.31,3.94,3.88,5.44c2.81,2.56,7.19,1.75,10.38,3.56c2.44,1.44,2.44,3.06,3.31,5.5
				c1.06,3.19,3.63,3.13,7,3.5c6.38,0.63,11.63-3.13,16.25-6.81c2.13-1.69,3.69-4.75,6.31-5.81
				C762.03,402.12,768.72,401.87,770.47,403.99z"/>
		</g>
		<g>
			<path class="st0" d="M820.74,285.14c-0.13,0.96,0.92,1.15,1.46,2.94c1.51,5.55-2.87,7.4-7.87,9.53
				c-10.8,4.53-28.19,10.73-28.53,25.2c-0.2,4.53,1.4,5.93-1.53,9.93c-0.6,0.87-1.27,1.67-2,2.33c-3.6,3.87-8.07,5.8-12.53,8.93
				c-2.13,1.53-11.73,10.6-13.66,7.4c-9.13-0.6-11.93,9.2-18.33,12.53c-4.2,2.27-10.6,1.13-14.46,4.13c-1.8,1.4-1.67,2.93-3,4.6
				c-1.73,2.27-1.53,1.13-4.2,1.93c-5.47,1.6-5.93,3.6-8.4,8.4c-2.07,4.07-5.33,6.4-9.93,6.87c-7.2,0.67-15.46-1.6-22.4,0.27
				c-2.67,0.73-4.33,2.27-5.93,3.93c-1,1-1.93,2.13-3.07,3.07c-3.2,2.53-7.27,2.2-11.46,2.2c-8.67,0-19.2,3.67-28.06,1.6
				c0-6.6,0.27-12.93,0.53-19.26v-39.13h0.2c4,0.53,7.8,1.8,11.27,3.8c1.87,1.13,3.93,1.67,6.07,1.67c6.47,0,11.73-5.27,11.73-11.73
				c0-6.4-5.27-11.66-11.73-11.66c-2.13,0-4.2,0.53-6.07,1.67c-3.47,2-7.27,3.27-11.27,3.8h-0.2c0,0,0-38.84,0-44.72"/>
			<path class="st1" d="M632.89,403.03c-2.17,0-4.31-0.19-6.39-0.67l-1.14-0.27v-1.17c0-6.65,0.27-13.09,0.53-19.33l0-40.54
				l1.87,0.01c4.23,0.56,8.2,1.9,11.81,3.98c1.62,0.98,3.4,1.47,5.33,1.47c5.65,0,10.25-4.6,10.25-10.25
				c0-5.62-4.6-10.19-10.25-10.19c-1.93,0-3.71,0.49-5.3,1.45c-3.63,2.1-7.61,3.44-11.84,4l-0.39,0.01h-1.48v-46.19h2.95v43.02
				c3.3-0.6,6.4-1.74,9.25-3.38c2.03-1.23,4.33-1.87,6.8-1.87c7.28,0,13.21,5.9,13.21,13.14c0,7.28-5.92,13.21-13.21,13.21
				c-2.48,0-4.78-0.63-6.83-1.88c-2.82-1.63-5.93-2.76-9.22-3.37v37.43c-0.25,5.88-0.5,11.89-0.53,18.06
				c4.92,0.85,10.46,0.03,15.82-0.77c3.78-0.56,7.35-1.1,10.76-1.1c0.44,0,0.89,0,1.33,0.01c3.63,0.03,6.77,0.06,9.22-1.89
				c0.67-0.55,1.28-1.21,1.93-1.9c0.33-0.36,0.67-0.71,1.01-1.05c1.64-1.71,3.52-3.47,6.58-4.31c4.31-1.16,9.01-0.82,13.57-0.5
				c3.2,0.23,6.22,0.45,9.08,0.18c4.02-0.41,6.88-2.39,8.75-6.06c0.25-0.5,0.48-0.96,0.7-1.39c1.99-3.96,3.08-6.14,8.6-7.76
				c1.06-0.32,1.76-0.37,2.23-0.41c0.14-0.01,0.31-0.02,0.36-0.04c0.04-0.02,0.24-0.17,0.85-0.96c0.46-0.57,0.69-1.1,0.97-1.71
				c0.45-0.99,0.95-2.11,2.3-3.16c2.43-1.88,5.54-2.32,8.55-2.74c2.29-0.32,4.45-0.62,6.12-1.52c2.17-1.13,3.93-3.14,5.79-5.26
				c3.23-3.69,6.88-7.88,13.33-7.44l0.77,0.05l0.4,0.66c0.64,0.19,2.91-0.7,9.62-6.29c0.83-0.69,1.48-1.23,1.92-1.54
				c1.51-1.06,3-1.98,4.44-2.86c2.87-1.76,5.58-3.43,7.87-5.88l0.09-0.09c0.6-0.55,1.2-1.25,1.78-2.08
				c1.73-2.36,1.62-3.41,1.42-5.51c-0.1-1.01-0.21-2.16-0.15-3.65c0.33-14.46,16.54-21.16,27.26-25.59c0.75-0.31,1.47-0.61,2.17-0.9
				c5.39-2.3,8.13-3.68,7.01-7.78c-0.17-0.58-0.43-0.9-0.71-1.25c-0.38-0.47-0.94-1.17-0.79-2.28l2.93,0.4
				c0.01-0.08-0.01-0.19-0.04-0.25c0.05,0.09,0.13,0.18,0.21,0.28c0.35,0.44,0.89,1.11,1.24,2.28c1.85,6.81-3.73,9.19-8.65,11.29
				c-0.76,0.32-1.49,0.62-2.24,0.93c-10.61,4.39-25.15,10.4-25.44,22.96c-0.06,1.31,0.04,2.3,0.13,3.26
				c0.22,2.29,0.42,4.28-1.95,7.51c-0.67,0.96-1.4,1.82-2.15,2.51c-2.55,2.72-5.41,4.48-8.44,6.34c-1.4,0.86-2.85,1.75-4.28,2.75
				c-0.33,0.24-0.98,0.78-1.74,1.41c-4.7,3.91-9.15,7.37-12.05,6.89c-0.55-0.09-1.03-0.32-1.42-0.66c-0.03,0-0.06,0-0.08,0
				c-4.57,0-7.33,3.15-10.24,6.47c-1.96,2.23-3.99,4.54-6.63,5.92c-2.11,1.14-4.64,1.5-7.09,1.84c-2.75,0.39-5.35,0.75-7.15,2.15
				c-0.76,0.59-1.04,1.2-1.42,2.04c-0.31,0.69-0.67,1.48-1.34,2.32c-1.29,1.69-1.96,2.02-3.3,2.12c-0.4,0.03-0.86,0.07-1.62,0.3
				c-4.29,1.26-4.92,2.52-6.8,6.25c-0.22,0.44-0.46,0.91-0.71,1.41c-2.32,4.57-6.06,7.15-11.09,7.66c-3.12,0.29-6.4,0.05-9.58-0.18
				c-4.31-0.31-8.76-0.63-12.58,0.4c-2.34,0.64-3.82,2.04-5.25,3.53c-0.34,0.34-0.65,0.67-0.96,1c-0.69,0.73-1.4,1.49-2.23,2.18
				c-3.29,2.61-7.26,2.58-11.1,2.54c-0.43,0-0.87-0.01-1.3-0.01c-3.2,0-6.66,0.52-10.33,1.06
				C640.7,402.44,636.74,403.03,632.89,403.03z"/>
		</g>
	</g>
	<g>
		<g>
			<path class="st2" d="M786.63,434.68c0,5.86,20.11,10.62,44.92,10.62c24.81,0,44.92-4.75,44.92-10.62
				c0-5.86-20.11-10.62-44.92-10.62C806.74,424.07,786.63,428.82,786.63,434.68z"/>
		</g>
		<g>
			<g>
				<path class="st3" d="M776.56,296.88h20.58c1.02,0,1.85-0.83,1.85-1.85l0,0c0-1.02-0.83-1.85-1.85-1.85h-20.58
					c-1.02,0-1.85,0.83-1.85,1.85l0,0C774.72,296.05,775.54,296.88,776.56,296.88z"/>
			</g>
			<g>
				<path class="st4" d="M774.54,299.79h24.62c1.02,0,1.85-0.83,1.85-1.85l0,0c0-1.02-0.83-1.85-1.85-1.85h-24.62
					c-1.02,0-1.85,0.83-1.85,1.85l0,0C772.69,298.96,773.52,299.79,774.54,299.79z"/>
			</g>
			<g>
				<g>
					<path class="st5" d="M846.74,422.62c0,0,1.9,1.87,1.94,2.56c0.04,0.69,0.17,8.06-0.61,8.75c-0.77,0.69-3.05,1.18-2.32,1.95
						c0.55,0.58,4.8,0.46,7.62,0.3c0.82-0.05,1.85-6.69,2.18-7.67c0.47-1.42,2.18-4.51,1.75-5.5c-0.21-0.48-1.77-1.58-3.18-2.5
						c-1.48-0.97-2.91-3.14-2.91-3.14L846.74,422.62z"/>
				</g>
				<g>
					<path class="st5" d="M821.38,427.23c0,0,1.7,4.86,1.7,4.87c0.13,0.77,0.62,2.67,0.62,3.37c0,2.63-11.69-2.23-9.07-3.4
						c0.24-0.11,0.98-0.95,1.06-1.84c0.12-1.38-0.99-3.11-0.99-3.11L821.38,427.23z"/>
				</g>
				<g>
					<g>
						<path class="st4" d="M805.25,335.01l-4.23,10.96c0,0-2.76,26.16-1.15,41.82c0.67,6.55,15.23,41.61,15.23,41.61l7.23-1.03
							l-9.69-41.52l3.56-15.88l5.04-31.39L805.25,335.01z"/>
					</g>
					<g>
						<path class="st3" d="M825.19,335.58l3.63,12.21l5.52,36.84l18.68,34.47c0,0-2.81,4.31-5.82,4.99l-26.51-34.83l-14.37-43.61
							l0.5-9.69L825.19,335.58z"/>
					</g>
				</g>
				<g>
					<path class="st6" d="M769.44,315.26c2.17,0.98,1.95,1.39,2.23,1.51c0.33,0.14,4.91-1.32,4.91-1.32s13.51-4.18,14.24-4.44
						l11.36-10.96l5.97,5.32c0,0-12.61,11.53-13.35,11.99c-0.74,0.46-19.52,3.51-21.17,3.84c0,0-1.85,1.29-3.04,2.05
						c-1.18,0.76-2.58,0.84-2.94,0.99c-0.05,0.02-1.27,0.44-2.89,0.47c-1.39,0.02-0.07-0.78-0.07-0.78s2.57-0.61,2.5-0.85
						c-0.06-0.19-1.45,0.25-2.98,0.29c-0.4,0.01-0.79,0.02-1.14,0.03c-0.94,0.01-1.21-0.69-0.23-0.9c0.35-0.07,0.93-0.18,1.35-0.18
						c0.46,0,0.87-0.19,1.26-0.26c0.76-0.15,1.32-0.24,1.29-0.28c-0.03-0.05,0.11-0.2-0.31-0.21c-0.5,0-1.58,0.28-2.32,0.2
						c-0.42-0.04-1.3-0.07-1.3-0.07s-1.43-0.23-1.44-0.34c-0.05-0.55,1.01-0.74,1.58-0.59c0.4-0.13,1.33-0.07,1.33-0.07
						s1.9-0.4,1.86-0.73c-0.03-0.27-4.73-0.4-4.75-0.96c-0.01-0.46,1.4-0.5,1.4-0.5s0.86,0.06,1.14,0.05
						c0.34-0.01,1.34-0.13,1.34-0.13s3.48-0.63,3.42-0.93c-0.06-0.31-0.47-1.03-0.69-1.08c-0.23-0.05-0.68,0.12-0.91,0.06
						c-0.23-0.05-0.48-0.36-0.45-0.71c0.03-0.35,1.21-0.61,1.21-0.61S768.81,314.98,769.44,315.26z"/>
				</g>
				<g>
					<path class="st7" d="M798.09,302.84l5.68,7.72c0,0,5.02-6.02,7.28-9.05c2.74-3.67,5.74-8.75,5.3-9.02
						c-1.25-0.77-2.81-1.59-4.64-1.12C805.37,293.02,798.09,302.84,798.09,302.84z"/>
				</g>
				<g>
					<path class="st4" d="M854.03,420.46c0,0-3.99,12.23-5.7,12.83c-0.45,0.16-3.01,0.81-3.42,1.78c-0.01,0.02-0.02,0.05-0.03,0.09
						c-0.13,0.62,0.39,1.19,1.02,1.19h8.11c0,0,1.15-5.49,1.61-7.91c0,0,2.41-5.9,2.14-6.43
						C857.49,421.48,854.03,420.46,854.03,420.46z"/>
				</g>
				<g>
					<path class="st4" d="M824.37,436.33l-1.3-4.29c0,0-2.85,1.21-4.25,1c-1.41-0.2-4.15-1-4.15-1c-5.61,1.87-10.21,2.78-9.37,4.29
						l0,0H824.37z"/>
				</g>
				<g>
					<path class="st8" d="M771.17,319c-1.04-0.03-1.87-0.49-2.48-1.5C768.91,318.91,770.25,319.5,771.17,319z"/>
				</g>
				<g>
					<path class="st9" d="M823.74,291.14c0,0,6.78,0.72,9.05,1.51c1.89,0.66,4.46,6.86,4.46,6.86s-10.28,29.72-9.88,35.03
						c0.4,5.31,1.55,13.18,1.55,13.18s-20.24,1.28-27.91-1.75c0,0,2.42-12.04,2.42-15.2c0-3.16,1.36-34.76,2.33-36.41
						c0.97-1.66,2.92-2.6,6.62-3.4C816.07,290.15,823.74,291.14,823.74,291.14z"/>
				</g>
				<g>
					<path class="st5" d="M822.39,282.3l1.35,8.84c0,0-4.06,4.68-7.01,3.77c-2.47-0.77-1.82-4.24-1.82-4.24s1.35-5,0.94-7.51
						C815.45,280.67,822.39,282.3,822.39,282.3z"/>
				</g>
				<g>
					<path class="st10" d="M815.85,283.17c-0.4-2.5,6.53-0.87,6.53-0.87l0.11,0.73c-0.2,0.49-0.45,0.91-0.75,1.23
						c-1.55,1.66-3.97,2.65-6.07,2.73C815.89,285.64,816.02,284.2,815.85,283.17z"/>
				</g>
				<g>
					<g>
						<path class="st5" d="M823.52,269.79c0.2-0.07,1.57,10.07-1.04,12.86c-2.61,2.79-7.7,3.7-9.52,1.51
							c-2.02-2.43-1.92-13.33,2.14-16.2C819.16,265.08,823.52,269.79,823.52,269.79z"/>
					</g>
					<g>
						<path class="st11" d="M816.65,262.53c3.14,0.64,5.17,2.54,5.92,3.35c1.42,0.17,3.36,0.95,5.36,4.24
							c2.46,4.04,0.64,8.52-2.22,10.72c-2.86,2.2-2.82,4.73-2.82,4.73l-0.45-1.31c-0.33-0.99-0.47-2.05-0.36-3.09
							c0.07-0.63,0.2-1.3,0.46-1.86c0.69-1.47-1.48-2.44-2.09-3.66c-0.47-0.94-0.49-3.09-1.23-4.65l-0.88-1.19
							c0,0-2.03-1.57-4.02-1.13C812.34,269.13,812.63,261.71,816.65,262.53z"/>
					</g>
					<g>
						<path class="st5" d="M820.59,277.45c-0.02,1.24,0.55,2.25,1.26,2.26c0.72,0.01,1.32-0.98,1.34-2.22
							c0.02-1.24-0.55-2.25-1.26-2.26C821.21,275.22,820.61,276.21,820.59,277.45z"/>
					</g>
				</g>
				<g>
					<rect x="770.55" y="298.62" class="st2" width="40.86" height="35.44"/>
				</g>
				<g>
					<rect x="750.54" y="298.62" class="st12" width="35.44" height="35.44"/>
				</g>
				<g>
					<path class="st5" d="M786.68,333.32c2.09-0.6,25.98-6.73,26.88-7.32c0.9-0.59,15.66-14.38,15.66-14.38l-8.45-4.47l-13.21,13.01
						c-0.9,0.38-17.82,6.81-17.82,6.81s-5.17,2.11-5.62,2.02c-0.38-0.07-0.7-0.42-3.65-1.07c-0.85-0.19-2.06,0.17-2.06,0.17
						s-1.48,0.45-1.48,0.81c0,0.36,0.37,0.63,0.67,0.65c0.3,0.02,0.87-0.23,1.17-0.21c0.3,0.02,0.93,0.68,1.04,0.99
						c0.07,0.19-4.11,3.24-4.32,3.66c-0.1,0.1-5.12-0.25-4.91,0.07c0,0.52,0.6,0.37,0.6,0.44c0.08,1.37,7.19,2.4,7.67,2.26
						C779.66,336.54,786.68,333.32,786.68,333.32z"/>
				</g>
				<g>
					<path class="st9" d="M824.66,317.97l-9.68-6.34c0,0,11.22-17.01,15.04-18.76c2.64-1.21,5.92,0.61,7.2,5.09
						C838.62,302.8,824.66,317.97,824.66,317.97z"/>
				</g>
			</g>
			<g>
				<path class="st3" d="M754.08,306.63l1.64,1.57v-9.2c0-0.95,0.77-1.73,1.73-1.73h14.36c0.95,0,1.73,0.77,1.73,1.73v10.69
					l1.77-3.07l6.06,1.77c0,0-4.87,9.26-7.83,10.77c-3.97,2.02-13.82,1.98-17.81,0c-2.43-1.2-6.57-8.62-6.57-8.62L754.08,306.63z"/>
			</g>
			<g>
				<path class="st4" d="M759.55,320.28c0.28-3.18,2.42-5.65,5.02-5.65c2.61,0,4.76,2.49,5.02,5.69
					C766.48,320.81,762.64,320.79,759.55,320.28z"/>
			</g>
		</g>
	</g>
	<g>
		<g>
			<path class="st2" d="M498,428.07c0,5.89-39.05,10.67-87.21,10.67s-87.21-4.78-87.21-10.67c0-5.89,39.05-10.67,87.21-10.67
				S498,422.18,498,428.07z"/>
		</g>
		<g>
			<g>
				<path class="st13" d="M395.25,353.25h-17.78c-1.47,0-2.66,1.19-2.66,2.66v9.98h2.97v-9.46h17.46V353.25z"/>
			</g>
			<g>
				<path class="st14" d="M398.65,346.51l-5.51-5.81c0,0-5.9,3.24-12.78,6.34c-1.89-3.29-4.98-14.11-5.14-14.63
					c-0.17-0.52,3.61-7.02,2.77-7.18c-0.85-0.16-1.94,3.47-2.84,3.1c-0.89-0.37-3.19-8.8-3.73-8.34c-1.01,0.86,1.21,5.24,0.68,5.56
					c-0.53,0.32-1.88-4.86-2.9-4.64c-1.02,0.22,1.73,4.71,1.43,5.15c-0.3,0.43-3.18-3.78-3.78-2.81c-0.32,0.53,2.66,3.67,2.04,4.02
					c-0.61,0.35-3.3-1.63-3.62-0.99c-0.32,0.64,2.51,1.31,3.29,2.93c0.78,1.62,2.21,2.25,2.68,5.32c0.47,3.06,1.77,19.45,5.11,20.77
					C379.28,356.46,398.65,346.51,398.65,346.51z"/>
			</g>
			<g>
				<g>
					<path class="st5" d="M449.48,422.07c0.44-3.09,0.4-8.8,0.18-14.82c2.7-0.14,4.98-0.31,7.67-0.49
						c-1.12,7.69-1.88,15.61-1.88,15.61l0.18,1.52l0.1,4.5l-15.26,0.11c0,0,3.22-1.43,7.72-4.24
						C448.53,424.06,449.29,423.4,449.48,422.07z"/>
				</g>
				<g>
					<path class="st4" d="M456.15,429.37l-16.09,0.19c-0.58-0.05-0.72-0.52-0.52-0.81c0.42-0.6,2.25-1.04,4.32-1.99
						c3.62,0.38,11.2-2.1,11.78-2.93C455.96,425.49,456.47,429.29,456.15,429.37z"/>
				</g>
			</g>
			<g>
				<g>
					<path class="st5" d="M476.82,418.89c-1.26-2.86-4.3-7.69-7.66-12.69c2.22-1.54,4.42-3.1,6.62-4.67
						c3.1,7.13,6.28,14.47,6.28,14.47l0.96,1.2l2.46,3.78l-12.91,8.14c0,0,1.98-2.91,4.32-7.67
						C477.06,421.08,477.36,420.11,476.82,418.89z"/>
				</g>
				<g>
					<path class="st4" d="M486.15,421.91l-13.39,8.3c-0.52,0.26-0.89-0.06-0.87-0.42c0.04-0.73,1.37-2.07,2.62-3.97
						c3.28-1.59,8.39-7.73,8.43-8.74C484.1,418.33,486.39,421.68,486.15,421.91z"/>
				</g>
			</g>
			<g>
				<path class="st11" d="M470.55,293.18c1.19-5.82-2.55-11.59-7.8-13.75c0.04-3.31-1.04-7.51-3.3-9.77
					c-4.46-4.47-12.97-6.04-16.25-0.34c-4.33,2.45-7.74,7.76-6.45,12.6c-4.2,4.35-2.6,12.22,3.52,15.93
					c-0.1,4.88,2.48,9.73,6.75,11.81c1.02,0.5,2.63,1.2,2.83,1.42c-0.27-0.25,3.16,9.29,13.81,4.92
					C474.52,311.54,477.63,298.99,470.55,293.18z"/>
			</g>
			<g>
				<path class="st4" d="M449.2,417.7c1.32-7.33-3.27-25.51-6.07-33.5c-2.91-8.31-4.76-43.49-4.76-43.49l3.3-3.86l13.48-0.81
					c0,0-5.73,17.62-5.73,23.67c0,6.05,2.79,21.68,6.07,29.81c3.02,7.5,1.77,23.23,0.85,28.4
					C453.89,418.33,451.58,418.18,449.2,417.7z"/>
			</g>
			<g>
				<path class="st3" d="M458.55,337.69c0.62,0.62,4.24,4.91,4.24,7.9c0,3-6.83,29.98-5.19,31.62c1.64,1.64,7.7,5.73,11.57,11.43
					c3.26,4.81,10.73,18.7,12.16,22.01c-2.82,1.96-5.26,2.85-8.08,3.8c-0.45-2.46-22.52-26.79-25.04-31.88
					c-2.52-5.09-3.89-28.35-5.16-31.43c-1.27-3.09-4.67-10.94-4.67-10.94L458.55,337.69z"/>
			</g>
			<g>
				<path class="st5" d="M438.89,317.8c0,0-8.32,9.49-17.53,13.07c-1.44,0.56-2.68,1.65-2.68,1.65c0,0.97,1.73,0.27,1.73,0.27
					s-0.58,0.94-0.27,2.09c0.3,1.15,2.31,0.39,3.4,0.39c0.5,0,3.07-2.87,6.53-4.56c4.1-2,8.94-3.95,9.53-4.54
					C440.7,325.07,439.21,317.45,438.89,317.8z"/>
			</g>
			<g>
				<path class="st9" d="M455.81,291.08c0,0-8.37-0.85-12.74,1.94c-4.37,2.79-7.16,12.72-7.16,16.96c0,4.24,3.15,26.53,1.94,30.77
					c0,0,13.84-0.61,18.57-0.61c4.73,0,5.7-1.82,5.7-1.82s-9.83-9.69-9.83-13.93C452.29,320.15,455.81,291.08,455.81,291.08z"/>
			</g>
			<g>
				<g>
					<g>
						<path class="st4" d="M341.48,405.28v14.52h1.57v-13.2h10.41v4.53c-4.02,0.43-7.17,4.15-7.17,8.67c0,4.81,3.56,8.71,7.95,8.71
							s7.95-3.9,7.95-8.71c0-4.52-3.14-8.24-7.17-8.67v-4.53h2.16v-1.72h-2.16v-5.23h2.16v-1.72h-2.16v-5.82h28.48v-2.58h-15.74
							v-14.79c0-3.95,3.63-8.37,8.49-8.37h13.53v-2.58h-13.53c-5.78,0-10.85,5.12-10.85,10.95v14.79h-10.39v-8.29h-1.57v16.69h-5.27
							C344.49,397.93,341.48,401.23,341.48,405.28z M353.46,404.88h-10.4c0.19-2.92,2.42-5.23,5.13-5.23h5.27V404.88z"/>
					</g>
				</g>
				<g>
					<path class="st15" d="M347.64,407.56c0,0,0.32,5.6,0.32,5.61c0.12,0.71,0.58,2.47,0.58,3.11c0,2.43-10.8-2.06-8.38-3.14
						c0.22-0.1,1.47-1.44,1.78-2.21c0.56-1.37,0.8-4.05,0.8-4.05L347.64,407.56z"/>
				</g>
				<g>
					<path class="st11" d="M340.18,413.13c0,0,2.54,0.74,3.84,0.93c1.3,0.19,3.01-1.38,3.93-0.95c1.01,0.46,1.07,4.73,1.07,4.73
						s-13.58,0.45-17.52-0.13C329.92,417.48,335,414.86,340.18,413.13z"/>
				</g>
				<g>
					<g>
						<path class="st4" d="M401.72,395.6h2.98v-56.85c0-1.92,1.88-3.48,4.19-3.48h26.85c0.72,0,1.3-0.56,1.3-1.24l0,0
							c0-0.68-0.58-1.24-1.3-1.24h-26.85c-3.95,0-7.17,2.67-7.17,5.96V395.6z"/>
					</g>
				</g>
				<g>
					<g>
						<path class="st4" d="M387.73,383.67c9.95,0,18.01,8.14,18.01,18.17s-8.06,18.17-18.01,18.17c-9.95,0-18.01-8.14-18.01-18.17
							S377.79,383.67,387.73,383.67z"/>
					</g>
					<g>
						<path class="st4" d="M365.8,401.84c0,12.22,9.82,22.13,21.93,22.13c12.11,0,21.93-9.91,21.93-22.13
							c0-12.22-9.82-22.13-21.93-22.13C375.62,379.72,365.8,389.62,365.8,401.84z M367.88,401.84c0-11.06,8.89-20.03,19.85-20.03
							c10.96,0,19.85,8.97,19.85,20.03s-8.89,20.03-19.85,20.03C376.77,421.87,367.88,412.9,367.88,401.84z"/>
					</g>
				</g>
				<g>
					
						<rect x="402.13" y="342.5" transform="matrix(-1 -1.224647e-16 1.224647e-16 -1 813.0723 719.1306)" class="st0" width="8.81" height="34.14"/>
				</g>
				<g>
					<g>
						<path class="st0" d="M373.23,397.93h-7.45c-4.02,0-7.29,3.3-7.29,7.35v14.52h1.71v-14.52c0-3.1,2.5-5.63,5.58-5.63h7.45
							V397.93z"/>
					</g>
				</g>
				<g>
					<rect x="346.97" y="378.83" class="st4" width="23.17" height="3.97"/>
				</g>
				<g>
					<g>
						<rect x="359.34" y="404.88" class="st0" width="13.76" height="1.72"/>
					</g>
				</g>
				<g>
					<g>
						<rect x="372.35" y="389.53" class="st0" width="31.77" height="2.58"/>
					</g>
				</g>
				<g>
					<rect x="369.58" y="378.77" class="st4" width="41.37" height="4.04"/>
				</g>
				<g>
					<g>
						<path class="st0" d="M409.66,398.64h2.56v-56.85c0-1.92,1.61-3.48,3.59-3.48h24.13v-2.48h-24.13c-3.39,0-6.15,2.67-6.15,5.96
							V398.64z"/>
					</g>
				</g>
				<g>
					<path class="st4" d="M362.75,419.8c0,4.81,4.3,8.71,9.6,8.71c5.3,0,9.6-3.9,9.6-8.71c0-4.81-4.3-8.71-9.6-8.71
						C367.05,411.09,362.75,414.99,362.75,419.8z"/>
				</g>
				<g>
					<path class="st0" d="M366.5,419.8c0,2.93,2.62,5.31,5.85,5.31c3.23,0,5.85-2.38,5.85-5.31c0-2.93-2.62-5.31-5.85-5.31
						C369.12,414.5,366.5,416.87,366.5,419.8z"/>
				</g>
				<g>
					<path class="st4" d="M348.93,363.8c2.78-2.78,41.47-1.44,41.47-1.44s-32.78,8-34.7,9.04c-1.91,1.04-9.04,36.25-9.05,36.71
						c-1.98-0.47-3.17-0.11-5.19-0.53C341.8,401.47,344.46,368.27,348.93,363.8z"/>
				</g>
				<g>
					<path class="st16" d="M352.7,407.73c0,0,0.32,5.6,0.32,5.61c0.12,0.71,0.58,2.47,0.58,3.11c0,2.43-10.8-2.06-8.38-3.14
						c0.22-0.1,1.71-1.38,1.78-2.21c0.11-1.27,0.05-3.3,0.05-3.3L352.7,407.73z"/>
				</g>
				<g>
					<path class="st4" d="M345.24,413.3c0,0,2.54,0.74,3.84,0.93c1.3,0.19,3.01-1.38,3.93-0.95c1.01,0.46,1.07,4.73,1.07,4.73
						s-13.58,0.45-17.52-0.13C334.98,417.65,340.06,415.03,345.24,413.3z"/>
				</g>
				<g>
					<path class="st3" d="M396.44,370.3c0,0-0.33,8.78-3.26,8.89c-2.92,0.11-21.69,0.52-32.25-0.42l-7.11,31.42l-8.35-0.8
						c0,0,2.51-20.99,3.41-28.97c0.88-7.85,3.42-14.44,7.86-14.6c4.44-0.16,33.63-4.68,33.63-4.68L396.44,370.3z"/>
				</g>
				<g>
					<path class="st17" d="M404.31,329.3c0,0,4.74,1.2,4.09,10.45c-0.64,9.25-5.76,37.24-15.22,39.44
						c-9.46,2.2-15.63-17.73-15.63-17.73s5.97-1.96,8.46-11.22c1.72-6.42,6.34-20.9,7.5-21.59
						C396.38,326.92,404.31,329.3,404.31,329.3z"/>
				</g>
				<g>
					<path class="st0" d="M384.48,391.52h2.56v-16.77c0-3.95,3.94-8.37,9.22-8.37h14.69v-2.58h-14.69
						c-6.27,0-11.78,5.12-11.78,10.95V391.52z"/>
				</g>
				<g>
					<ellipse class="st0" cx="410.94" cy="404.24" rx="20.68" ry="20.87"/>
				</g>
				<g>
					<path class="st0" d="M385.76,404.24c0,14.03,11.28,25.41,25.19,25.41s25.19-11.38,25.19-25.41c0-14.03-11.28-25.41-25.19-25.41
						S385.76,390.21,385.76,404.24z M388.14,404.24c0-12.7,10.21-23,22.8-23c12.59,0,22.8,10.3,22.8,23c0,12.7-10.21,23-22.8,23
						C398.35,427.24,388.14,416.94,388.14,404.24z"/>
				</g>
				<g>
					<path class="st4" d="M393.88,404.24c0,9.51,7.64,17.21,17.06,17.21c9.42,0,17.06-7.71,17.06-17.21
						c0-9.51-7.64-17.21-17.06-17.21C401.52,387.03,393.88,394.74,393.88,404.24z"/>
				</g>
				<g>
					<path class="st0" d="M407.1,404.24c0,2.14,1.72,3.87,3.84,3.87c2.12,0,3.84-1.73,3.84-3.87c0-2.14-1.72-3.87-3.84-3.87
						C408.82,400.37,407.1,402.1,407.1,404.24z"/>
				</g>
				<g>
					<rect x="334.86" y="417.94" class="st4" width="26.04" height="4.51"/>
				</g>
				<g>
					
						<rect x="346.12" y="417.94" transform="matrix(-1 -1.224647e-16 1.224647e-16 -1 707.0264 840.3871)" class="st0" width="14.78" height="4.51"/>
				</g>
				<g>
					<g>
						<rect x="371.49" y="382.76" class="st0" width="1.71" height="39.69"/>
					</g>
				</g>
				<g>
					<path class="st18" d="M371.34,420.31c0,0.59,0.47,1.06,1.05,1.06c0.58,0,1.05-0.48,1.05-1.06c0-0.59-0.47-1.06-1.05-1.06
						C371.81,419.25,371.34,419.72,371.34,420.31z"/>
				</g>
				<g>
					<g>
						<path class="st11" d="M401.45,304.53c0,0,3.32-2.24,4.72,1.69c-0.01-0.03,1.17-0.02,1.33,0.03c0.68,0.23,1.34,0.94,1.95,1.33
							c2.17,1.39,3.17,4.08,3.28,6.56c0.14,3-1.1,5.2-3.07,7.37c-0.58,0.64-1.2,1.26-1.97,1.67c-0.92,0.49-1.65,0.1-2.51,0.31
							c-0.73,0.18-0.98,0.94-1.84,0.67c-1.2-0.39-2.47-1.89-3.96-1.67c-1.49,0.22-4.93-1.12-4.94-1.12
							c-4.42-1.72-1.44-10.28-0.59-13.31C394.65,305.2,398.71,303.49,401.45,304.53z"/>
					</g>
					<g>
						<path class="st14" d="M397.46,323.96l-1.15,3.13l-0.62,1.75c0,0-0.04,3.13,0.69,3.95c1.26,1.4,6.43-3.78,6.43-3.78l1.64-9.85
							L397.46,323.96z"/>
					</g>
					<g>
						<path class="st19" d="M403.91,322.35c-1.97,3.05-5.36,4.44-7.62,4.77l1.16-3.16l6.99-4.81L403.91,322.35z"/>
					</g>
					<g>
						<path class="st14" d="M403.1,309.04c-2.63-1.61-6.09-0.39-7.17,2.45c-0.47,1.24-1,2.8-1.42,4.55
							c-1.01,4.21,0.27,8.8,2.19,9.22c1.92,0.42,7.82-1.14,9.34-7.09C406.97,314.5,405.86,310.73,403.1,309.04z"/>
					</g>
					<g>
						<path class="st14" d="M404.52,318.33c-0.21,0.93,0.24,1.82,1.01,1.99c0.76,0.17,1.55-0.45,1.75-1.38
							c0.21-0.93-0.24-1.82-1.01-1.99C405.51,316.78,404.72,317.4,404.52,318.33z"/>
					</g>
					<g>
						<path class="st11" d="M398.59,320.08c0,0,2.53,0.83,2.73,1.75c0.21,0.93-0.1,2.27-1.34,3.3c-1.24,1.03-3.89,0.4-4.61-0.17
							c-0.72-0.57-1.27-2.97-0.55-4.31C395.55,319.3,398.59,320.08,398.59,320.08z"/>
					</g>
					<g>
						<path class="st14" d="M399.42,322.02c0,0-0.02,1.03-0.36,1.22c-0.34,0.18-0.76,0.33-1.15,0.37c-0.64,0.06-1.21-0.21-1.54-0.7
							c-0.03-0.05-0.06-0.1-0.09-0.15c-0.26-0.52-0.31-1.43-0.31-1.43s1.07-0.26,1.68-0.15
							C398.27,321.28,399.42,322.02,399.42,322.02z"/>
					</g>
				</g>
			</g>
			<g>
				<path class="st5" d="M426.75,334.08c1-1,5.64-2.54,9.16-5.09c1.56-1.12,4.55-2.61,7.46-4.22c2.13,1.18,4.05,2.66,5.49,4.43
					c-5.27,2.42-10.99,4.86-11.85,5.72c-1.64,1.63-4.49,5.33-5.16,5.33c-0.67,0-5.73-1.48-6.49-2.24
					C424.59,337.26,425.74,335.08,426.75,334.08z"/>
			</g>
			<g>
				<path class="st9" d="M443.37,324.78c3.67-2.03,7.22-4.27,7.59-6.26c0.67-3.57-2.37-19.02-0.67-21.99
					c1.7-2.97,5.52-5.45,5.52-5.45c0.61,0,2.79,1.33,3.4,4c0.61,2.66-0.49,26.65-1.09,28.83c-0.28,1.02-4.44,5.1-9.1,7.24
					C447.58,329.38,445.49,325.96,443.37,324.78z"/>
			</g>
			<g>
				<path class="st14" d="M405.54,357.13l-14.64,3.84c0,0-4.3,3.1-6.24,3.72c-1.94,0.62-4.3,2.75-3.84,3.4
					c0.46,0.65,2.9-1.57,3.29-1.5c0.39,0.07-1.43,2.7-1.73,4.42c-0.3,1.73-0.89,3.4,0.1,3.27c0.99-0.14,1.71-4.02,1.71-4.02
					s1.52-2.94,1.77-2.59c0.25,0.35-1.02,2.36-1.02,2.36s-0.3,2.18-0.43,2.95c-0.1,0.57,0.43,2.29,0.88,1.66
					c0.26-0.37,0.14-1.79,0.45-2.6c0.63-1.66,1.66-2.98,1.66-2.98s-1.1,4.97-0.41,5.09c0.69,0.12,1.41-4,1.41-4s1.69-3.43,2.43-3.73
					c0.74-0.31,2.76-1.61,4.33-2.16c1.57-0.54,8.05,1.25,10.94,1.29c2.89,0.04,7.58-1.75,7.97-4.02c0.12-0.69-0.31-1.46-0.97-2.19
					C411.28,357.22,408.3,356.4,405.54,357.13z"/>
			</g>
			<g>
				<path class="st17" d="M404.31,329.3c0,0,4.43-0.79,8.44,6.42c4.01,7.21,1.41,25.8,1.41,25.8l-8.62-4.4L404.31,329.3z"/>
			</g>
			<g>
				<path class="st5" d="M424.03,335.52c-0.52,0-3.25,0.17-3.68-0.26c-0.43-0.43,1.41-1.52,1.6-1.34c0.19,0.19,0.97-0.22,1.23,0.04
					c0.26,0.26,1.04-0.04,1.26,0.18C424.66,334.37,424.55,335.52,424.03,335.52z"/>
			</g>
			<g>
				<path class="st5" d="M451.46,283.6c0,0-0.93,5.13-0.75,7.15c0.19,2.02-0.71,8.54-4.74,8.56c-4.03,0.02-1.29-6.77-0.91-8.75
					c0.38-1.98,0.99-9.63,0.99-9.63L451.46,283.6z"/>
			</g>
			<g>
				<path class="st10" d="M445.81,283.83c0.06-1.68,0.37-3.01,0.37-3.01l5.28,2.78c0,0-0.19,1.05-0.38,2.38
					C448.72,286.49,446.84,285.39,445.81,283.83z"/>
			</g>
			<g>
				<path class="st5" d="M451.58,268.71c0,0,2.27,0.81,3.5,3.27c1.23,2.47,1.64,9.37-3.34,12.03c-4.98,2.65-8.26-2.24-7.95-6.62
					C444.1,273.01,445.48,267.26,451.58,268.71z"/>
			</g>
			<g>
				<path class="st5" d="M442.31,276.17c-0.13,1.14,0.27,2.11,0.9,2.17c0.63,0.06,1.24-0.81,1.37-1.95c0.13-1.14-0.27-2.11-0.9-2.17
					C443.06,274.16,442.45,275.03,442.31,276.17z"/>
			</g>
			<g>
				<path class="st5" d="M454.64,278.08c-0.44,1.1-0.22,2.26,0.49,2.58c0.71,0.32,1.63-0.3,2.07-1.4c0.44-1.1,0.22-2.25-0.49-2.58
					C456.01,276.35,455.08,276.98,454.64,278.08z"/>
			</g>
		</g>
	</g>
	<g>
		<g>
			<path class="st2" d="M648.44,453.83c0,5.2-14.91,9.42-33.29,9.42c-18.39,0-33.29-4.22-33.29-9.42c0-5.2,14.91-9.42,33.29-9.42
				C633.54,444.41,648.44,448.63,648.44,453.83z"/>
		</g>
		<g>
			<g>
				<g>
					<g>
						<path class="st5" d="M610.88,286.45c0,0-9.44-16.84-11.73-20.42c-2.3-3.58-8.28-17.8-8.49-18.37
							c-0.21-0.56,4.12-7.29,3.15-7.52c-0.97-0.23-2.04,3.55-3.07,3.1c-1.03-0.45-4.05-9.55-4.63-9.1c-1.1,0.84,1.62,5.64,1.04,5.95
							c-0.59,0.3-2.36-5.28-3.51-5.12c-1.15,0.16,2.19,5.12,1.87,5.55c-0.32,0.44-3.79-4.23-4.42-3.23
							c-0.34,0.54,3.19,4.07,2.51,4.4c-0.68,0.33-3.82-1.95-4.15-1.29c-0.33,0.66,2.9,1.56,3.87,3.33c0.97,1.77,2.62,2.54,3.3,5.82
							c0.68,3.28,1.71,15.17,5.21,21.1c3.51,5.93,11.22,19.05,11.22,19.05L610.88,286.45z"/>
					</g>
					<g>
						<g>
							<path class="st5" d="M652.7,367.72c0,0-0.77-0.96-1-1.3c-0.27-0.4-0.99-1.65-0.99-1.65s-2.3-4.47-1.95-4.62
								c0.34-0.14,1.17,0.4,1.41,0.63c0.24,0.23,0.54,0.47,0.78,0.69c0.24,0.23,0.6,0.24,0.91-0.04c0.3-0.28-0.45-1.39-0.79-1.72
								c-1.05-1.03-4.42-3.23-4.76-3.47c-0.41-0.29-2.97-8.79-4.07-11.63c0,0,0,0,0,0c-1.67-4.7-3.16-9.62-3.33-10.12l-1.05-21.35
								l-7.98-2.66c0,0,0.84,23.71,1.01,24.9c0.08,0.56,4.81,11.16,4.81,11.16c2.66,5.07,5.01,9.54,5.43,10.41
								c0,0,0.58,2.95,0.84,4.84c0.26,1.9,1.26,3.54,1.41,4.06c0.02,0.08,0.46,1.9,1.77,3.79c1.13,1.63,0.81-0.45,0.81-0.45
								s-1.56-3.41-1.27-3.49c0.22-0.06,0.96,1.85,2.2,3.67c0.32,0.47,0.63,0.93,0.93,1.35c0.77,1.1,1.67,0.93,1.05-0.35
								c-0.22-0.45-0.6-1.2-0.95-1.69c-0.38-0.53-0.55-1.14-0.8-1.64c-0.49-0.98-0.86-1.7-0.81-1.69c0.07,0,0.11-0.26,0.46,0.22
								c0.42,0.58,1.05,2.03,1.74,2.84c0.39,0.46,1.15,1.47,1.15,1.47s1.41,1.5,1.52,1.44c0.57-0.32-0.13-1.69-0.75-2.24
								c-0.21-0.56-1.04-1.59-1.04-1.59s-1.21-2.48-0.86-2.66c0.29-0.15,4.32,5.23,4.87,4.86
								C653.84,369.39,652.7,367.72,652.7,367.72z"/>
						</g>
					</g>
					<g>
						<path class="st11" d="M638.43,284.53c0.19-4.66-0.49-9.26-2.58-13.59c-1.79-3.73-6.23-5.85-10.28-5.85
							c-12.85-0.02-14.48,16.96-22.66,23.5c-2.5,2-5.29,3.63-7.66,5.79c-8.73,7.97-4.8,22.71,3.22,29.7
							c5.56,4.85,14.31,7.6,21.16,3.81c3.58-1.98,6.3-5.26,8.23-8.87c2.75-5.11,4.52-11.01,6.47-16.46
							C636.43,296.76,638.18,290.72,638.43,284.53z"/>
					</g>
					<g>
						<path class="st5" d="M598.28,434.48c0,0-0.91,6.27-2.46,8.29c-0.52,0.68-1.48,1.54-2.1,2.76c-0.98,1.91-0.44,4.75,0.28,6.32
							c0.37,0.8-0.03,0.8,0.82,1.06c2.49,0.77,5.14-0.52,6.2-2.9c0.59-1.33,1.11-3.1,1.22-5.34c0.27-5.69,2.04-8.58,2.04-8.58
							L598.28,434.48z"/>
					</g>
					<g>
						<path class="st5" d="M625.52,437.35c0,0,0.56,7.06,0.11,9.36c-0.24,1.23-1.6,3.76-0.98,4.92c0.62,1.16,1.33,1.45,1.33,1.45
							l16.08,0.26c0.88,0.01,0.3-0.55-0.41-1.07c-1.16-0.85-2.09-1.41-5.78-3.19c-0.24-0.12-1.12-0.67-1.43-0.87
							c-0.8-0.49-1.61-1.26-2.3-2.03c-1.15-1.28-1.26-7.5-1.26-7.5L625.52,437.35z"/>
					</g>
					<g>
						<path class="st4" d="M638.08,343.44c0,0,2.03,11.47,0.7,18.99c-1.33,7.52-7.71,77.23-7.71,77.23l-7.09,0.4
							c0,0-1.49-29.12-1.22-33.17c0.27-4.05,2.37-10.83,2.37-10.83l-0.71-23.51l8.95-30.88L638.08,343.44z"/>
					</g>
					<g>
						<path class="st3" d="M617.24,341.03c0,0-5.58,8.39-6.91,15.33c-1.33,6.94,0.98,28.27-1.58,37.37
							c-1.38,4.92-6.63,12.53-7.43,18.89c-0.8,6.36-3.93,23.03-3.93,23.03l7.09,1.4l16.47-41.63l12.92-37.62l3.31-19.38
							L617.24,341.03z"/>
					</g>
					<g>
						<path class="st9" d="M621.76,293.3c0,0-7.39-0.47-10.32,2.71c-2.92,3.18,6.49,28.35,7.02,32.4
							c0.53,4.05-2.71,14.82-2.71,14.82s17.37,3.49,22.33,0.21c0,0,0.53-29.12,0-32.01c-0.53-2.89-4.96-14.66-6.03-15.81
							C630.99,294.46,621.76,293.3,621.76,293.3z"/>
					</g>
					<g>
						<path class="st5" d="M624.22,283.45c0,0-0.04,0.22-0.11,0.59c-0.33,1.77-1.6,7.66-2.46,9.28c-1.04,1.95,3.55,8.19,7.96,7.43
							c1.31-0.23-1.11-5.73-0.99-6.31c0.22-1.12,0.53-2.64,0.83-4.2c0.17-0.88,0.35-1.77,0.52-2.61c0.47-2.38,0.86-4.33,0.86-4.33
							L624.22,283.45z"/>
					</g>
					<g>
						<path class="st10" d="M624.12,284.03c0.07-0.37,0.11-0.59,0.11-0.59l6.61-0.16c0,0-0.39,1.95-0.86,4.33
							c-0.16,0.83-0.34,1.72-0.51,2.6c-1.02-0.15-2.09-0.65-3.16-1.58c-1.17-1.02-1.93-2.24-2.39-3.55
							C624,284.67,624.07,284.31,624.12,284.03z"/>
					</g>
					<g>
						<path class="st5" d="M628.67,268.45c0,0-3.12-0.36-5.07,2.16c-1.95,2.52-4.06,10.32,0.79,14.56
							c4.85,4.24,9.65-0.56,10.36-5.65C635.47,274.43,635.74,268.26,628.67,268.45z"/>
					</g>
					<g>
						<path class="st5" d="M636.19,279.45c-0.58,1.12-1.55,1.75-2.17,1.39c-0.62-0.36-0.65-1.56-0.07-2.68
							c0.58-1.12,1.55-1.75,2.17-1.39C636.74,277.12,636.77,278.32,636.19,279.45z"/>
					</g>
					<g>
						<path class="st11" d="M629.02,267.61c0,0-4.16,7.41-7.14,7.76c-2.98,0.34-3.37,4.28-3.37,4.28s1.07-9.08,4.01-10.83
							C625.47,267.07,629.02,267.61,629.02,267.61z"/>
					</g>
					<g>
						<path class="st4" d="M601.49,448.75c-3.86,0.7-6.43-1.55-7.77-3.24c-0.98,1.91-1.46,4.77-0.74,6.34
							c0.64,1.38,2.5,1.34,3.96,1.4c1.55,0.06,2.75-0.8,3.51-2.15C600.81,450.48,601.18,449.69,601.49,448.75z"/>
					</g>
					<g>
						<path class="st4" d="M634.43,448.21c-4.25,1.09-7.4,0.35-9.15-0.36c-0.45,1.28-1.05,2.89-0.74,3.82
							c0.39,1.14,0.95,1.39,1.44,1.41c3.88,0.1,14.23,0.24,17.19,0.28c0.41,0.01,0.64-0.48,0.38-0.79
							C642.81,451.68,634.75,448.4,634.43,448.21z"/>
					</g>
					<g>
						<path class="st5" d="M622.66,277.23c0.24,1.32-0.24,2.52-1.09,2.7c-0.84,0.17-1.72-0.75-1.97-2.07
							c-0.24-1.32,0.24-2.52,1.09-2.7C621.54,274.99,622.42,275.92,622.66,277.23z"/>
					</g>
					<g>
						<path class="st9" d="M608.27,280.99c0,0,10.44,11.2,11.99,15.71c1.55,4.51-1.51,10.97-5.74,11.25
							c-4.23,0.28-13.65-19.88-13.65-19.88L608.27,280.99z"/>
					</g>
				</g>
			</g>
		</g>
	</g>
</g>
</svg>
