<?xml version="1.0" encoding="utf-8"?>
<!-- Generator: Adobe Illustrator 25.4.1, SVG Export Plug-In . SVG Version: 6.00 Build 0)  -->
<svg version="1.1" id="Layer_1" xmlns="http://www.w3.org/2000/svg" xmlns:xlink="http://www.w3.org/1999/xlink" x="0px" y="0px"
	 viewBox="0 0 570.89 367.68" style="enable-background:new 0 0 570.89 367.68;" xml:space="preserve">
<style type="text/css">
	.st0{fill:#3C89FF;}
	
		.st1{clip-path:url(#SVGID_00000165915134164079993790000002090344942132425143_);fill:#3C89FF;stroke:#FFD262;stroke-width:5.009;stroke-miterlimit:10;}
	.st2{fill:#13375B;}
	.st3{fill:#EFAC7F;}
	.st4{fill:#0B2E68;}
	.st5{fill:#282828;}
	.st6{fill:#134EC6;}
	.st7{fill:#FF511F;}
	.st8{fill:#F48C7F;}
	.st9{fill:#F7A491;}
	.st10{fill:#FFB023;}
	.st11{fill:#45258F;}
	.st12{fill:#D19369;}
</style>
<g>
	<g>
		<path class="st0" d="M335.73,17.47c3.59,0.4,8.09,3.55,9.09,5.31c1.67,2.94,2.98,4.97,4.52,8.96c0.85,2.2,1.87,4.07,2.47,6.28
			c1,4.07,1.8,12.56,6.35,13.89c2.27,0.73,5.01-1,7.21-1.14c3.14-0.13,4.88,0.67,7.41,2.27c5.21,3.14,8.01,7.61,10.95,12.76
			c1.47,2.6,3.34,5.94,5.68,7.88c3.47,2.67,5.21,1.27,8.82,0.73c3.67-0.53,9.02-0.53,12.56,0.4c3.27,0.94,5.34,3.07,8.95,2.67
			c6.54-0.8,7.81-8.15,14.16-9.22c8.62-1.34,12.69,3.01,19.23,7.81c8.82,6.34,16.43,2.4,26.31,1.74c4.54-0.27,9.88-1.2,14.02,0.73
			c3.87,1.87,6.15,4.21,10.29,5.08c7.61,1.67,21.91,2.94,20.17,13.89c-0.47,3.21-2,5.48-1.94,8.88c0.13,6.88,4.41,13.29,6.54,19.64
			c0.53,1.6,4.14,9.97,4.14,9.97l-196.45-0.06L335.73,17.47z"/>
		<path class="st0" d="M392.92,142.92l-13.78-32.97l14.78-11.51c0,0,24.58,2.56,24.87,2.98c0.28,0.43,1.42,9.95,1.42,9.95
			s-4.69,23.45-4.83,24.16c-0.14,0.71-2.84,10.94-2.84,10.94L392.92,142.92z"/>
		<path class="st0" d="M532.85,135.96c0.48,0.97,1.47,2.69,1.47,3c1.8,5.16-5.38,7.39-10.38,9.52
			c-10.82,4.54-27.21,10.81-28.58,25.25c-0.29,3.02,1.23,5.87-1.46,10.05c-2.13,3.3-7.89,2.34-14.63,11.19
			c-1.6,2.09-8.07,12.26-32.06,19.97c-4.55,1.46-10.62,1.14-14.49,4.14c-1.8,1.4-1.67,2.94-3.01,4.61
			c-1.74,2.27-1.54,1.14-4.21,1.94c-5.48,1.6-5.94,3.61-8.42,8.42c-2.07,4.07-5.34,6.41-9.95,6.88c-7.21,0.67-15.49-1.6-22.44,0.27
			c-2.67,0.73-4.34,2.27-5.94,3.94c-1,1-1.94,2.14-3.07,3.07c-3.21,2.54-7.28,2.2-11.49,2.2c-8.68,0-20.1,3.99-28.12,1.3
			c0-0.43,0-0.57,0-1V134.75L532.85,135.96z"/>
		<polygon class="st0" points="343.05,180.44 247.27,180.44 247.27,84.34 303.54,84.34 334.52,19.3 343.05,84.34 		"/>
		<path class="st0" d="M80.74,136.81c5.61-5.26,23.48-19.06,18.61-26.6C87.73,92.23,84.32,84.9,83.18,81.83
			c5.74-0.8,11.09-2.6,15.7-6.28c6.94-5.54,11.95-11.35,20.97-13.82c5.61-1.54,13.02-2.07,18.57-0.27
			c7.61,2.4,12.36,7.41,21.17,6.68c9.02-0.73,15.63-6.21,24.84-4.14c5.21,1.2,7.68,3.47,13.22,3.54c3.54,0,7.28,0.27,10.82-0.27
			c8.01-1.34,14.03-0.73,22.17,0.8c7.95,1.47,22.24,7.08,29.25,0.27c6.08-6.01,0.27-15.09,6.75-21.04
			c5.48-5.08,18.63-3.67,19.44-12.76c0-0.13,0-0.33,0.07-0.47c3.94,1.34,8.95,2.27,11.02,0.8c3.94-2.74,0.74-11.22,5.74-13.36
			c1.94-0.87,4.34,0.73,6.48,0.8c3.07,0,4.47-1.14,6.88-2.6c4.67-2.87,9.63-3.8,15.17-3.27c1.08,0.06,2.97,0.48,4.33,0.9v118.33
			L80.74,136.81z"/>
		<path class="st0" d="M336.17,251.72c-2.47-0.62-6.33-3.24-7.41-4.64c-5.73-7.4-8.26-14.72-12.43-10.76
			c-0.71,0.67-5.33,5.15-8.81,2.48c-1.97-1.51-3.34-7.81-5.08-10.29c-2.03-1.54-2.67-0.13-3.61,1.67c-2.4,4.61,9,13.32,12.37,17.3
			c3.09,3.65,4.41,8.75,0.2,11.42c-3.74,2.47-10.54-4.36-11.07,0.22c-1,4.47-1.02,6.19-0.42,10.4c0.8,5.34-1.94,7.41-7.08,9.95
			c-3.01,1.47-6.56,0.37-5.29,4.91c0.67,2.47,3.6,3.72,4.48,6.39c1.71,5.22-2.34,13.43-14.92,10.02
			c-8.24-2.98-14.94-6.36-21.95-2.29c-6.95,4.01-16.42,8.58-17.43-0.4c0.05-2.85,0.94-4.88,1.8-6.75
			c2.47-5.28,7.08-9.15,10.22-13.96c1.94-3.14,3.41-6.34,3.27-10.08c-0.07-2.54-2.19-6.38-2.34-8.72c-0.21-3.2,2.39-4.3,4.8-4.37
			c2.67,0,4.54,0.15,7.14,0.32c3.3,0.21,6.1,0.82,9.31,0.89c5.54,0,7.28-0.53,5.88-6.28c-0.94-4.01-1.8-8.35-5.41-10.42
			c-3.47-2.14-7.95-2.07-10.35-5.81c-2.4-3.81,0-8.55-2.87-11.82c-3.21-3.61-7.35-2.27-9.35-7.41c-2.6-6.54,1.34-13.82-5.48-17.77
			c-7.41-4.34-14.36-0.4-21.91-1.74c-6.75-1.14-11.55-7.75-18.63-8.82c-3.81-0.53-6.68,1.07-10.15,2.2
			c-3.61,1.07-6.61,1.07-10.42,1.14c-6.48,0.07-1.61,6.22-7.35,7.41c-6.21,0-10.02,4.74-14.76,8.75
			c-5.61,4.74-13.29,9.22-20.37,11.55c-9.15,2.94-11.69-2.4-19.7-4.21c-5.68-1.34-13.56,0.13-19.7-0.53
			c-5.68-0.6-12.09-0.27-17.83-0.53c-2.34-0.13-6.18-0.03-8.42,0c-8.44,0.12-20.18-2.43-20.87-14.76c-0.31-5.55,3.5-9.33,6.44-13.82
			c9.39-14.35,7.68-18.63,8.41-25.65c0.94-8.15,5.88-14.96,11.89-20.37h255.24L336.17,251.72z"/>
		<path class="st0" d="M487.06,258.48c1.07,1.34,0.67,2.54,0.13,3.81c-0.27,0.73-0.6,1.47-0.73,2.27c-0.33,1.8,0.13,3.81,0,5.61
			c-0.4,5.41-5.48,3.87-9.28,5.74c-4.94,2.47-7.88,0.8-13.02,0.47c-6.28-0.4-6.81,4.14-9.42,8.55c-3.07,5.41-7.48,7.35-13.09,9.68
			c-5.21,2-5.28,7.01-9.42,10.02c-2.47,1.74-4.07,1.54-5.68,4.14c-1.27,2.14-2.2,3.67-4.74,4.41c-4.67,1.34-9.08-0.73-13.22-2.74
			c-1.87-0.87-2.87-1.2-3.34-3.74c-0.4-1.87,0.27-3.81,0.74-5.48c1.07-3.47,2.2-9.75-0.87-12.62c-3.27-3.07-8.21,0.47-11.95-0.27
			c-4.07-0.8-8.15-6.21-13.09-4.41c-1.94,0.73-2.4,2.14-4.74,1.07c-2.07-1-2.27-2.6-2.2-4.94c-0.13-2.6,2.94-3.81,4.61-4.54
			c1.4-0.6,3.81-1.14,4.81-2.27c1.13-1.14,1.13-3.21,1.87-4.54c1.87-3.27,2.88-7.19,6.22-8.6c3.67-1.4,6.55-1.76,5.62-6.64
			c-0.47-2.54,2.06-3.6,4.73-5.13c0.33-0.2,0.67-0.33,1.13-0.47c3.21-1,6.48,1.8,9.35,2.67c2.14,0.6,4.48,1.07,6.75,1.27
			c1.8,0.13,5.34-0.73,6.95-0.07c2.2,0.94,2.47,4.21,4.14,5.81c3.01,2.74,7.68,1.87,11.09,3.81c2.6,1.54,2.6,3.27,3.54,5.88
			c1.13,3.41,3.87,3.34,7.48,3.74c6.81,0.67,12.42-3.34,17.36-7.28c2.27-1.8,3.94-5.08,6.75-6.21
			C478.04,256.48,485.19,256.21,487.06,258.48z"/>
		<g>
			<defs>
				<path id="SVGID_1_" d="M534.45,140.19l-0.75-2.56l-3.52-7.03l-157.2-57.02l-27.71-31.12l-5.65-23.77c0,0-6.29-2.77-11.72-2.34
					S85.95,132.05,85.95,132.05l-8.81,8.17l0.14,9.52l155.03,23.59l65.79,32.82l34.25,28.56l1.76,16.22c0,0,4.29,2.17,9.83,1.6
					c5.54-0.56,133.5-81.56,133.5-81.56l42.2-30.69l14.92,0.85L534.45,140.19z"/>
			</defs>
			<clipPath id="SVGID_00000062153924610457390590000003562750483683934361_">
				<use xlink:href="#SVGID_1_"  style="overflow:visible;"/>
			</clipPath>
			
				<path style="clip-path:url(#SVGID_00000062153924610457390590000003562750483683934361_);fill:#3C89FF;stroke:#FFD262;stroke-width:5.009;stroke-miterlimit:10;" d="
				M336.4,11.55c-0.01,25.43-0.67,57.33-0.67,82.9c0,0-0.6-0.07-0.87-0.2c-3.27-0.6-6.41-1.74-9.35-3.47
				c-1.87-1.07-4.01-1.67-6.14-1.67c-6.61,0-11.96,5.34-11.96,11.95s5.34,11.95,11.96,11.95c2.14,0,4.27-0.6,6.14-1.74
				c3.21-1.8,6.61-3.07,10.22-3.61v27.18c0,0-35.07,0.22-47.94,0.22"/>
			
				<path style="clip-path:url(#SVGID_00000062153924610457390590000003562750483683934361_);fill:#3C89FF;stroke:#FFD262;stroke-width:5.009;stroke-miterlimit:10;" d="
				M541.67,135.14c-38.3,0.32-134.32-0.15-134.32-0.15c0-5.21,1.34-10.35,3.94-14.89c1.14-1.87,1.74-4.01,1.74-6.21
				c0-6.55-5.34-11.96-11.95-11.96c-6.61,0-11.96,5.41-11.96,11.96c0,2.2,0.6,4.34,1.74,6.21c2.6,4.54,3.94,9.68,3.94,14.89
				c0,0-49.56,0-55.05,0"/>
			
				<path style="clip-path:url(#SVGID_00000062153924610457390590000003562750483683934361_);fill:#3C89FF;stroke:#FFD262;stroke-width:5.009;stroke-miterlimit:10;" d="
				M340.27,135.01c-9.81,0-56.03,0-56.03,0c0.27,4.54,1.6,9.02,3.87,12.89c1.14,1.87,1.74,4.01,1.74,6.21
				c0,6.61-5.34,11.95-11.96,11.95c-6.61,0-11.95-5.34-11.95-11.95c0-2.2,0.6-4.34,1.74-6.21c2.27-3.87,3.47-7.61,3.74-12.16
				c0,0-160.77,0.85-207.28,0.8"/>
			
				<path style="clip-path:url(#SVGID_00000062153924610457390590000003562750483683934361_);fill:#3C89FF;stroke:#FFD262;stroke-width:5.009;stroke-miterlimit:10;" d="
				M336.33,252.55c0.04-6-0.63-59.06-0.63-59.06h0.2c4.01,0.53,7.81,1.8,11.29,3.81c1.87,1.14,3.94,1.67,6.08,1.67
				c6.48,0,11.75-5.28,11.75-11.75c0-6.41-5.28-11.69-11.75-11.69c-2.14,0-4.21,0.53-6.08,1.67c-3.47,2-7.28,3.27-11.29,3.81h-0.2
				c0,0,0-37.7,0-43.59"/>
		</g>
	</g>
	<g>
		<g>
			<path class="st2" d="M151.28,204.41h-21.2c-1.75,0-3.17,1.42-3.17,3.17v11.9h3.55V208.2h20.83V204.41z"/>
			<path class="st3" d="M155.33,196.38l-6.57-6.93c0,0-7.03,3.87-15.23,7.57c-2.25-3.92-5.93-16.83-6.13-17.45
				c-0.2-0.62,4.31-8.37,3.3-8.56c-1.01-0.19-2.32,4.14-3.38,3.7c-1.07-0.44-3.81-10.5-4.45-9.95c-1.2,1.03,1.44,6.25,0.81,6.64
				c-0.63,0.38-2.24-5.79-3.46-5.53c-1.22,0.26,2.06,5.62,1.7,6.14c-0.36,0.52-3.79-4.51-4.5-3.35c-0.39,0.63,3.17,4.38,2.44,4.8
				c-0.73,0.42-3.93-1.94-4.31-1.18c-0.38,0.76,2.99,1.56,3.92,3.49c0.94,1.93,2.64,2.69,3.2,6.34c0.56,3.65,2.11,23.2,6.09,24.77
				C132.23,208.25,155.33,196.38,155.33,196.38z"/>
			<g>
				<path class="st3" d="M215.95,286.49c0.52-3.69,0.48-10.49,0.21-17.67c3.22-0.16,5.94-0.37,9.15-0.58
					c-1.34,9.17-2.24,18.62-2.24,18.62l0.22,1.81l0.12,5.37l-18.2,0.14c0,0,3.84-1.7,9.2-5.06
					C214.81,288.86,215.73,288.07,215.95,286.49z"/>
				<path class="st4" d="M223.9,295.19l-19.19,0.23c-0.69-0.06-0.86-0.62-0.62-0.97c0.5-0.71,2.69-1.24,5.15-2.37
					c4.32,0.45,13.36-2.5,14.04-3.49C223.68,290.57,224.29,295.11,223.9,295.19z"/>
			</g>
			<g>
				<path class="st3" d="M248.56,282.69c-1.5-3.41-5.13-9.17-9.13-15.13c2.65-1.83,5.27-3.7,7.89-5.58
					c3.7,8.5,7.49,17.26,7.49,17.26l1.14,1.43l2.93,4.5l-15.4,9.71c0,0,2.36-3.47,5.15-9.15
					C248.84,285.31,249.2,284.15,248.56,282.69z"/>
				<path class="st4" d="M259.68,286.3l-15.97,9.9c-0.62,0.31-1.06-0.07-1.04-0.5c0.05-0.87,1.63-2.47,3.13-4.73
					c3.91-1.89,10-9.21,10.06-10.42C257.24,282.04,259.96,286.02,259.68,286.3z"/>
			</g>
			<path class="st5" d="M241.07,132.78c1.42-6.94-3.04-13.82-9.3-16.4c0.04-3.95-1.24-8.95-3.93-11.66
				c-5.32-5.33-15.47-7.2-19.38-0.4c-5.17,2.92-9.23,9.25-7.69,15.02c-5.01,5.19-3.11,14.57,4.2,19c-0.12,5.82,2.96,11.6,8.05,14.09
				c1.22,0.6,3.13,1.43,3.37,1.69c-0.32-0.3,3.77,11.08,16.47,5.87C245.81,154.68,249.52,139.72,241.07,132.78z"/>
			<path class="st4" d="M215.61,281.28c1.58-8.74-3.9-30.42-7.24-39.95c-3.47-9.91-5.68-51.86-5.68-51.86l3.94-4.6l16.07-0.96
				c0,0-6.84,21.01-6.84,28.23c0,7.22,3.33,25.85,7.23,35.55c3.6,8.95,2.11,27.7,1.02,33.87
				C221.21,282.03,218.45,281.86,215.61,281.28z"/>
			<path class="st6" d="M226.76,185.86c0.74,0.74,5.06,5.85,5.06,9.43c0,3.58-8.14,35.75-6.19,37.7c1.95,1.95,9.18,6.83,13.79,13.64
				c3.89,5.73,12.8,22.3,14.5,26.24c-3.36,2.34-6.27,3.4-9.64,4.53c-0.54-2.93-26.86-31.95-29.86-38.02
				c-3.01-6.07-4.63-33.8-6.15-37.49c-1.52-3.68-5.57-13.04-5.57-13.04L226.76,185.86z"/>
			<path class="st3" d="M203.32,162.14c0,0-9.92,11.32-20.9,15.58c-1.72,0.67-3.19,1.97-3.19,1.97c0,1.16,2.06,0.32,2.06,0.32
				s-0.69,1.12-0.33,2.5c0.36,1.37,2.76,0.46,4.06,0.46c0.6,0,3.66-3.43,7.79-5.44c4.89-2.38,10.66-4.72,11.37-5.42
				C205.48,170.81,203.7,161.73,203.32,162.14z"/>
			<path class="st7" d="M223.5,130.28c0,0-9.99-1.01-15.2,2.31c-5.21,3.32-8.54,15.17-8.54,20.22c0,5.06,3.76,31.64,2.31,36.69
				c0,0,16.5-0.72,22.15-0.72c5.64,0,6.8-2.17,6.8-2.17S219.3,175.06,219.3,170C219.3,164.95,223.5,130.28,223.5,130.28z"/>
			<g>
				<g>
					<path class="st4" d="M87.15,266.47v17.32h1.87v-15.74h12.41v5.4c-4.8,0.52-8.55,4.95-8.55,10.34c0,5.74,4.25,10.39,9.49,10.39
						c5.24,0,9.49-4.65,9.49-10.39c0-5.39-3.75-9.83-8.55-10.34v-5.4h2.58v-2.05h-2.58v-6.24h2.58v-2.05h-2.58v-6.94h33.96v-3.08
						h-18.76v-17.63c0-4.71,4.33-9.98,10.12-9.98h16.14V217h-16.14c-6.89,0-12.94,6.1-12.94,13.06v17.63h-12.39v-9.89h-1.87v19.91
						h-6.28C90.74,257.7,87.15,261.63,87.15,266.47z M101.43,265.99h-12.4c0.22-3.48,2.88-6.24,6.11-6.24h6.28V265.99z"/>
				</g>
				<path class="st8" d="M94.5,269.19c0,0,0.38,6.68,0.38,6.69c0.14,0.85,0.69,2.94,0.69,3.71c0,2.9-12.88-2.46-10-3.74
					c0.26-0.12,1.75-1.72,2.12-2.64c0.67-1.63,0.96-4.83,0.96-4.83L94.5,269.19z"/>
				<path class="st5" d="M85.6,275.82c0,0,3.02,0.89,4.57,1.11c1.55,0.22,3.59-1.64,4.69-1.14c1.21,0.55,1.28,5.65,1.28,5.65
					s-16.19,0.54-20.9-0.15C73.36,281.01,79.42,277.89,85.6,275.82z"/>
				<g>
					<path class="st4" d="M159,254.92h3.56v-67.8c0-2.29,2.24-4.15,4.99-4.15h32.01c0.85,0,1.55-0.66,1.55-1.48l0,0
						c0-0.82-0.69-1.48-1.55-1.48h-32.01c-4.72,0-8.55,3.19-8.55,7.11V254.92z"/>
				</g>
				<g>
					<path class="st4" d="M142.31,240.7c11.86,0,21.48,9.7,21.48,21.67c0,11.97-9.62,21.67-21.48,21.67
						c-11.86,0-21.48-9.7-21.48-21.67C120.84,250.4,130.45,240.7,142.31,240.7z"/>
					<path class="st4" d="M116.16,262.37c0,14.57,11.71,26.39,26.15,26.39c14.44,0,26.15-11.81,26.15-26.39
						c0-14.57-11.71-26.39-26.15-26.39C127.87,235.98,116.16,247.8,116.16,262.37z M118.64,262.37c0-13.19,10.6-23.89,23.67-23.89
						c13.07,0,23.67,10.69,23.67,23.89c0,13.19-10.6,23.89-23.67,23.89C129.24,286.25,118.64,275.56,118.64,262.37z"/>
				</g>
				
					<rect x="159.48" y="191.6" transform="matrix(-1 -1.224647e-16 1.224647e-16 -1 329.4712 423.9001)" class="st0" width="10.51" height="40.71"/>
				<g>
					<path class="st0" d="M125.01,257.7h-8.89c-4.79,0-8.69,3.93-8.69,8.77v17.32h2.03v-17.32c0-3.7,2.98-6.71,6.65-6.71h8.89V257.7
						z"/>
				</g>
				<rect x="93.7" y="234.92" class="st4" width="27.63" height="4.74"/>
				<g>
					<rect x="108.45" y="265.99" class="st0" width="16.41" height="2.05"/>
				</g>
				<g>
					<rect x="123.96" y="247.69" class="st0" width="37.89" height="3.08"/>
				</g>
				<rect x="120.66" y="234.85" class="st4" width="49.33" height="4.81"/>
				<g>
					<path class="st0" d="M168.46,258.55h3.05v-67.8c0-2.29,1.92-4.15,4.28-4.15h28.78v-2.96H175.8c-4.04,0-7.33,3.19-7.33,7.11
						V258.55z"/>
				</g>
				<path class="st4" d="M112.51,283.79c0,5.74,5.13,10.39,11.45,10.39c6.32,0,11.45-4.65,11.45-10.39
					c0-5.74-5.13-10.39-11.45-10.39C117.64,273.4,112.51,278.05,112.51,283.79z"/>
				<path class="st0" d="M116.99,283.79c0,3.49,3.12,6.33,6.97,6.33c3.85,0,6.97-2.83,6.97-6.33c0-3.49-3.12-6.33-6.97-6.33
					C120.11,277.46,116.99,280.29,116.99,283.79z"/>
				<path class="st4" d="M96.04,217c3.31-3.31,49.46-1.71,49.46-1.71s-39.1,9.54-41.38,10.78c-2.28,1.25-10.78,43.23-10.79,43.78
					c-2.36-0.56-3.79-0.14-6.19-0.63C87.53,261.92,90.71,222.33,96.04,217z"/>
				<path class="st9" d="M100.54,269.39c0,0,0.38,6.68,0.38,6.69c0.14,0.85,0.69,2.94,0.69,3.71c0,2.9-12.88-2.46-10-3.74
					c0.26-0.12,2.04-1.65,2.12-2.64c0.13-1.52,0.06-3.93,0.06-3.93L100.54,269.39z"/>
				<path class="st4" d="M91.64,276.03c0,0,3.02,0.89,4.57,1.11c1.55,0.22,3.59-1.64,4.69-1.14c1.21,0.55,1.28,5.64,1.28,5.64
					s-16.19,0.54-20.9-0.15C79.4,281.22,85.46,278.09,91.64,276.03z"/>
				<path class="st6" d="M152.69,224.76c0,0-0.4,10.48-3.89,10.6c-3.49,0.13-25.86,0.62-38.46-0.51l-8.48,37.48l-9.96-0.96
					c0,0,3-25.03,4.07-34.55c1.05-9.37,4.07-17.22,9.37-17.41c5.29-0.19,40.1-5.58,40.1-5.58L152.69,224.76z"/>
				<path class="st10" d="M162.08,175.85c0,0,5.65,1.43,4.88,12.47c-0.77,11.03-6.87,44.42-18.15,47.04
					c-11.28,2.62-18.64-21.14-18.64-21.14s7.12-2.34,10.08-13.38c2.05-7.65,7.56-24.92,8.94-25.75
					C152.62,173.02,162.08,175.85,162.08,175.85z"/>
				<path class="st0" d="M138.43,250.06h3.05v-20c0-4.71,4.7-9.98,10.99-9.98h17.52V217h-17.52c-7.48,0-14.04,6.1-14.04,13.06
					V250.06z"/>
				<ellipse class="st0" cx="169.99" cy="265.23" rx="24.67" ry="24.89"/>
				<path class="st0" d="M139.95,265.23c0,16.74,13.45,30.3,30.03,30.3s30.03-13.57,30.03-30.3c0-16.74-13.45-30.3-30.03-30.3
					S139.95,248.49,139.95,265.23z M142.8,265.23c0-15.15,12.17-27.43,27.19-27.43c15.02,0,27.19,12.28,27.19,27.43
					c0,15.15-12.17,27.43-27.19,27.43C154.97,292.66,142.8,280.38,142.8,265.23z"/>
				<path class="st4" d="M149.65,265.23c0,11.34,9.11,20.52,20.34,20.52c11.23,0,20.34-9.19,20.34-20.52
					c0-11.34-9.11-20.52-20.34-20.52C158.75,244.7,149.65,253.89,149.65,265.23z"/>
				<path class="st0" d="M165.41,265.23c0,2.55,2.05,4.62,4.58,4.62c2.53,0,4.58-2.07,4.58-4.62c0-2.55-2.05-4.62-4.58-4.62
					C167.46,260.61,165.41,262.68,165.41,265.23z"/>
				<rect x="79.26" y="281.56" class="st4" width="31.06" height="5.38"/>
				
					<rect x="92.69" y="281.56" transform="matrix(-1 -1.224647e-16 1.224647e-16 -1 203.0052 568.5057)" class="st0" width="17.63" height="5.38"/>
				<g>
					<rect x="122.95" y="239.61" class="st0" width="2.03" height="47.34"/>
				</g>
				<path class="st11" d="M122.76,284.39c0,0.7,0.56,1.27,1.26,1.27s1.26-0.57,1.26-1.27c0-0.7-0.56-1.27-1.26-1.27
					S122.76,283.69,122.76,284.39z"/>
				<g>
					<path class="st5" d="M158.67,146.31c0,0,3.96-2.68,5.63,2.01c-0.01-0.04,1.4-0.02,1.59,0.04c0.81,0.27,1.6,1.12,2.33,1.59
						c2.58,1.65,3.78,4.87,3.92,7.82c0.17,3.58-1.31,6.2-3.67,8.79c-0.69,0.76-1.44,1.51-2.34,1.99c-1.1,0.59-1.96,0.12-2.99,0.37
						c-0.87,0.21-1.17,1.13-2.2,0.8c-1.43-0.46-2.94-2.26-4.72-1.99c-1.78,0.27-5.88-1.33-5.89-1.34
						c-5.27-2.06-1.71-12.26-0.7-15.88C150.57,147.11,155.41,145.08,158.67,146.31z"/>
					<path class="st3" d="M153.91,169.49l-1.37,3.74l-0.74,2.09c0,0-0.05,3.74,0.82,4.71c1.5,1.67,7.67-4.51,7.67-4.51l1.95-11.75
						L153.91,169.49z"/>
					<path class="st12" d="M161.61,167.57c-2.35,3.64-6.39,5.3-9.08,5.69l1.38-3.77l8.33-5.73L161.61,167.57z"/>
					<path class="st3" d="M160.64,151.69c-3.14-1.92-7.26-0.46-8.55,2.93c-0.56,1.47-1.19,3.34-1.69,5.43
						c-1.2,5.02,0.32,10.49,2.61,11c2.29,0.51,9.33-1.36,11.13-8.46C165.25,158.2,163.93,153.71,160.64,151.69z"/>
					<path class="st3" d="M162.33,162.78c-0.25,1.11,0.29,2.17,1.2,2.37c0.91,0.2,1.84-0.54,2.09-1.65c0.25-1.11-0.29-2.17-1.2-2.38
						C163.51,160.93,162.57,161.67,162.33,162.78z"/>
					<path class="st5" d="M155.26,164.86c0,0,3.01,0.98,3.26,2.09c0.25,1.11-0.12,2.71-1.6,3.94c-1.48,1.23-4.63,0.47-5.49-0.21
						c-0.86-0.68-1.52-3.55-0.66-5.15C151.64,163.94,155.26,164.86,155.26,164.86z"/>
					<path class="st3" d="M156.25,167.18c0,0-0.02,1.23-0.43,1.46c-0.4,0.22-0.91,0.4-1.37,0.44c-0.76,0.07-1.44-0.25-1.84-0.84
						c-0.04-0.06-0.08-0.12-0.11-0.18c-0.31-0.62-0.37-1.7-0.37-1.7s1.27-0.31,2.01-0.18C154.87,166.29,156.25,167.18,156.25,167.18
						z"/>
				</g>
			</g>
			<path class="st3" d="M188.84,181.56c1.19-1.19,6.73-3.03,10.93-6.07c1.86-1.34,5.42-3.11,8.9-5.03c2.54,1.41,4.83,3.17,6.54,5.28
				c-6.28,2.89-13.1,5.79-14.14,6.83c-1.95,1.95-5.35,6.36-6.15,6.36c-0.8,0-6.84-1.77-7.74-2.67
				C186.27,185.35,187.64,182.75,188.84,181.56z"/>
			<path class="st7" d="M208.66,170.46c4.38-2.42,8.6-5.09,9.05-7.47c0.8-4.26-2.82-22.68-0.8-26.22c2.03-3.54,6.58-6.5,6.58-6.5
				c0.72,0,3.33,1.59,4.05,4.77c0.72,3.18-0.58,31.78-1.3,34.38c-0.34,1.22-5.29,6.08-10.85,8.64
				C213.68,175.95,211.2,171.87,208.66,170.46z"/>
			<path class="st3" d="M163.55,209.04l-17.46,4.57c0,0-5.13,3.7-7.44,4.44c-2.31,0.73-5.13,3.28-4.58,4.06
				c0.55,0.78,3.45-1.87,3.92-1.79c0.47,0.08-1.7,3.22-2.06,5.28c-0.35,2.06-1.06,4.06,0.12,3.89c1.18-0.16,2.04-4.8,2.04-4.8
				s1.81-3.5,2.11-3.09c0.29,0.41-1.21,2.82-1.21,2.82s-0.36,2.6-0.51,3.51c-0.12,0.68,0.51,2.73,1.05,1.98
				c0.31-0.44,0.17-2.13,0.53-3.1c0.75-1.98,1.97-3.55,1.97-3.55s-1.31,5.93-0.49,6.07c0.82,0.14,1.68-4.77,1.68-4.77
				s2.01-4.09,2.89-4.45c0.88-0.36,3.3-1.92,5.17-2.57c1.87-0.65,9.6,1.49,13.05,1.53c3.45,0.05,9.04-2.09,9.51-4.79
				c0.14-0.83-0.37-1.74-1.16-2.61C170.39,209.15,166.84,208.18,163.55,209.04z"/>
			<path class="st10" d="M162.08,175.85c0,0,5.28-0.94,10.06,7.66c4.78,8.6,1.69,30.77,1.69,30.77l-10.28-5.25L162.08,175.85z"/>
			<path class="st3" d="M185.6,183.28c-0.62,0-3.87,0.2-4.38-0.31c-0.51-0.51,1.68-1.82,1.9-1.59c0.22,0.22,1.15-0.27,1.46,0.04
				c0.31,0.31,1.24-0.04,1.51,0.22C186.35,181.91,186.22,183.28,185.6,183.28z"/>
			<path class="st3" d="M218.31,121.36c0,0-1.11,6.11-0.89,8.52c0.22,2.41-0.85,10.18-5.65,10.21c-4.8,0.03-1.54-8.07-1.09-10.43
				c0.45-2.36,1.19-11.49,1.19-11.49L218.31,121.36z"/>
			<path class="st12" d="M211.58,121.63c0.07-2,0.44-3.59,0.44-3.59l6.3,3.32c0,0-0.23,1.25-0.46,2.84
				C215.04,124.81,212.8,123.49,211.58,121.63z"/>
			<path class="st3" d="M218.45,103.6c0,0,2.71,0.96,4.18,3.91c1.47,2.94,1.96,11.18-3.98,14.34c-5.94,3.16-9.85-2.67-9.48-7.9
				C209.54,108.72,211.18,101.87,218.45,103.6z"/>
			<path class="st3" d="M207.4,112.5c-0.16,1.36,0.32,2.51,1.07,2.58c0.75,0.07,1.48-0.97,1.64-2.33c0.16-1.36-0.32-2.51-1.07-2.58
				C208.29,110.1,207.56,111.14,207.4,112.5z"/>
			<path class="st3" d="M222.1,114.78c-0.52,1.31-0.26,2.69,0.58,3.08c0.84,0.39,1.95-0.36,2.47-1.68c0.52-1.31,0.26-2.69-0.58-3.08
				C223.73,112.71,222.63,113.46,222.1,114.78z"/>
		</g>
	</g>
	<g>
		<g>
			<g>
				<g>
					<path class="st3" d="M385.53,109.96c0,0-12.27-21.91-15.26-26.56c-2.99-4.66-10.77-23.16-11.04-23.89
						c-0.28-0.73,5.36-9.49,4.1-9.79c-1.26-0.3-2.65,4.62-3.99,4.03c-1.34-0.59-5.26-12.42-6.03-11.84
						c-1.43,1.1,2.11,7.34,1.35,7.74c-0.76,0.39-3.07-6.87-4.57-6.66c-1.5,0.21,2.85,6.66,2.43,7.23c-0.42,0.57-4.93-5.5-5.75-4.21
						c-0.44,0.7,4.15,5.3,3.27,5.73c-0.88,0.43-4.97-2.54-5.4-1.68c-0.43,0.86,3.78,2.03,5.04,4.33s3.4,3.3,4.29,7.58
						c0.89,4.27,2.22,19.73,6.78,27.44c4.56,7.71,14.59,24.78,14.59,24.78L385.53,109.96z"/>
					<g>
						<path class="st3" d="M439.93,215.68c0,0-1-1.25-1.3-1.69c-0.35-0.52-1.29-2.14-1.29-2.14s-2.99-5.82-2.54-6.01
							c0.45-0.19,1.52,0.53,1.83,0.82c0.31,0.29,0.7,0.61,1.01,0.9c0.31,0.29,0.79,0.31,1.18-0.05c0.39-0.36-0.59-1.8-1.03-2.23
							c-1.37-1.34-5.75-4.2-6.2-4.52c-0.53-0.38-3.86-11.43-5.3-15.12c0,0,0,0,0,0c-2.18-6.12-4.11-12.52-4.34-13.17l-1.37-27.78
							l-10.38-3.46c0,0,1.09,30.85,1.32,32.39c0.11,0.73,6.26,14.52,6.26,14.52c3.45,6.6,6.51,12.41,7.07,13.54
							c0,0,0.75,3.83,1.09,6.3c0.34,2.47,1.64,4.61,1.84,5.29c0.03,0.1,0.59,2.48,2.31,4.94c1.48,2.12,1.05-0.58,1.05-0.58
							s-2.03-4.43-1.65-4.54c0.29-0.08,1.25,2.41,2.86,4.77c0.41,0.61,0.82,1.21,1.21,1.75c1,1.43,2.17,1.22,1.36-0.46
							c-0.28-0.59-0.78-1.56-1.24-2.2c-0.49-0.69-0.71-1.49-1.04-2.13c-0.64-1.28-1.12-2.21-1.05-2.2c0.09,0,0.14-0.34,0.6,0.29
							c0.55,0.76,1.37,2.64,2.27,3.69c0.51,0.6,1.5,1.91,1.5,1.91s1.84,1.95,1.97,1.87c0.74-0.42-0.17-2.2-0.97-2.91
							c-0.27-0.72-1.35-2.07-1.35-2.07s-1.57-3.23-1.11-3.47c0.37-0.19,5.62,6.8,6.33,6.33
							C441.42,217.86,439.93,215.68,439.93,215.68z"/>
					</g>
					<path class="st5" d="M421.37,107.46c0.25-6.06-0.64-12.04-3.35-17.68c-2.33-4.85-8.1-7.61-13.37-7.61
						c-16.71-0.02-18.84,22.06-29.48,30.58c-3.25,2.6-6.88,4.72-9.96,7.53c-11.36,10.36-6.24,29.55,4.19,38.63
						c7.24,6.31,18.61,9.89,27.53,4.96c4.66-2.57,8.19-6.85,10.71-11.54c3.57-6.65,5.88-14.32,8.42-21.41
						C418.77,123.37,421.04,115.52,421.37,107.46z"/>
					<path class="st3" d="M369.13,302.54c0,0-1.18,8.15-3.2,10.78c-0.68,0.88-1.92,2-2.74,3.59c-1.27,2.48-0.57,6.18,0.37,8.22
						c0.48,1.05-0.03,1.04,1.06,1.38c3.24,1,6.69-0.68,8.07-3.78c0.77-1.73,1.45-4.04,1.58-6.95c0.35-7.4,2.65-11.16,2.65-11.16
						L369.13,302.54z"/>
					<path class="st3" d="M404.57,306.27c0,0,0.73,9.19,0.14,12.18c-0.32,1.6-2.08,4.89-1.27,6.4c0.81,1.51,1.73,1.88,1.73,1.88
						l20.92,0.34c1.14,0.02,0.39-0.71-0.53-1.39c-1.5-1.1-2.72-1.83-7.52-4.15c-0.31-0.15-1.45-0.87-1.87-1.13
						c-1.04-0.64-2.09-1.64-2.99-2.64c-1.5-1.67-1.63-9.76-1.63-9.76L404.57,306.27z"/>
					<path class="st4" d="M420.92,184.1c0,0,2.63,14.92,0.91,24.71c-1.73,9.78-10.03,100.46-10.03,100.46l-9.23,0.52
						c0,0-1.93-37.88-1.59-43.15c0.35-5.27,3.08-14.08,3.08-14.08l-0.92-30.58l11.64-40.18L420.92,184.1z"/>
					<path class="st6" d="M393.81,180.96c0,0-7.26,10.91-8.99,19.94c-1.73,9.03,1.27,36.78-2.06,48.62
						c-1.8,6.41-8.63,16.3-9.66,24.58c-1.04,8.28-5.11,29.96-5.11,29.96l9.22,1.82l21.43-54.15l16.81-48.95l4.31-25.21
						L393.81,180.96z"/>
					<path class="st7" d="M399.69,118.88c0,0-9.62-0.61-13.42,3.53c-3.81,4.14,8.44,36.88,9.13,42.15
						c0.69,5.27-3.53,19.27-3.53,19.27s22.59,4.54,29.05,0.27c0,0,0.69-37.88,0-41.64c-0.69-3.76-6.46-19.07-7.84-20.57
						C411.7,120.38,399.69,118.88,399.69,118.88z"/>
					<path class="st3" d="M402.89,106.05c0,0-0.05,0.28-0.14,0.76c-0.43,2.31-2.08,9.96-3.2,12.07c-1.35,2.54,4.62,10.65,10.35,9.66
						c1.71-0.29-1.44-7.45-1.29-8.21c0.29-1.45,0.68-3.43,1.09-5.46c0.23-1.15,0.46-2.31,0.67-3.4c0.61-3.1,1.11-5.64,1.11-5.64
						L402.89,106.05z"/>
					<path class="st12" d="M402.75,106.82c0.09-0.48,0.14-0.76,0.14-0.76l8.6-0.21c0,0-0.5,2.54-1.11,5.64
						c-0.21,1.09-0.44,2.24-0.67,3.38c-1.33-0.19-2.72-0.84-4.11-2.05c-1.52-1.33-2.51-2.92-3.11-4.62
						C402.59,107.64,402.68,107.17,402.75,106.82z"/>
					<path class="st3" d="M408.68,86.54c0,0-4.05-0.47-6.6,2.81c-2.54,3.28-5.28,13.42,1.03,18.94c6.31,5.52,12.55-0.73,13.47-7.35
						C417.51,94.33,417.87,86.3,408.68,86.54z"/>
					<path class="st3" d="M418.46,100.85c-0.75,1.46-2.02,2.27-2.83,1.81c-0.81-0.46-0.85-2.02-0.1-3.49
						c0.75-1.46,2.02-2.27,2.83-1.81C419.17,97.83,419.21,99.39,418.46,100.85z"/>
					<path class="st5" d="M409.13,85.46c0,0-5.42,9.65-9.29,10.09c-3.87,0.45-4.38,5.57-4.38,5.57s1.39-11.81,5.22-14.09
						C404.51,84.75,409.13,85.46,409.13,85.46z"/>
					<path class="st4" d="M373.31,321.11c-5.03,0.91-8.37-2.02-10.11-4.22c-1.28,2.49-1.9,6.2-0.96,8.25
						c0.83,1.8,3.25,1.75,5.15,1.82c2.01,0.07,3.57-1.04,4.57-2.79C372.43,323.35,372.91,322.33,373.31,321.11z"/>
					<path class="st4" d="M416.16,320.39c-5.53,1.42-9.62,0.45-11.91-0.47c-0.59,1.67-1.37,3.76-0.96,4.97
						c0.51,1.48,1.23,1.81,1.87,1.83c5.05,0.13,18.51,0.31,22.36,0.36c0.54,0.01,0.84-0.62,0.49-1.03
						C427.06,324.92,416.58,320.65,416.16,320.39z"/>
					<path class="st3" d="M400.86,97.97c0.31,1.71-0.32,3.28-1.42,3.51c-1.1,0.22-2.24-0.98-2.56-2.69
						c-0.32-1.71,0.32-3.28,1.42-3.51C399.4,95.05,400.54,96.26,400.86,97.97z"/>
					<path class="st7" d="M382.13,102.86c0,0,13.58,14.57,15.6,20.44c2.02,5.87-1.97,14.27-7.47,14.64
						c-5.51,0.37-17.76-25.86-17.76-25.86L382.13,102.86z"/>
				</g>
			</g>
		</g>
	</g>
</g>
</svg>
