<?xml version="1.0" encoding="utf-8"?>
<!-- Generator: Adobe Illustrator 25.4.1, SVG Export Plug-In . SVG Version: 6.00 Build 0)  -->
<svg version="1.1" id="Layer_1" xmlns="http://www.w3.org/2000/svg" xmlns:xlink="http://www.w3.org/1999/xlink" x="0px" y="0px"
	 viewBox="0 0 597.62 588.1" style="enable-background:new 0 0 597.62 588.1;" xml:space="preserve">
<style type="text/css">
	.st0{fill:#FFD262;}
	.st1{fill:#3C89FF;stroke:#1A2E35;stroke-width:1.0962;stroke-linecap:round;stroke-linejoin:round;stroke-miterlimit:10;}
	.st2{fill:#FFFFFF;}
	.st3{fill:#ECECEC;stroke:#1A2E35;stroke-width:1.0962;stroke-linecap:round;stroke-linejoin:round;stroke-miterlimit:10;}
	.st4{fill:#1A2E35;}
	.st5{fill:#FFA9E0;}
	.st6{fill:#1A2E35;stroke:#1A2E35;stroke-width:1.0962;stroke-linecap:round;stroke-linejoin:round;stroke-miterlimit:10;}
	.st7{fill:none;stroke:#1A2E35;stroke-width:1.0962;stroke-linecap:round;stroke-linejoin:round;stroke-miterlimit:10;}
	.st8{fill:#ECECEC;}
	.st9{fill:#FFD262;stroke:#1A2E35;stroke-width:1.0962;stroke-linecap:round;stroke-linejoin:round;stroke-miterlimit:10;}
	.st10{fill:#3C89FF;}
</style>
<g>
	<g>
		<g>
			<path class="st0" d="M542.6,320.7c-9.95,44.84-36.01,95.5-79.84,115.55c-66.23,30.3-66.7,87.17-191.22,99.32
				c-19.41,1.9-37.63,1.68-54.63-0.36c-9.14-1.1-17.92-2.73-26.34-4.85c-76.42-19.18-123.16-78.38-135.73-145.39
				c-16.54-88.14,39.45-139.09,76.22-169.48c36.77-30.39,71.84-133.11,194.16-146.01c18.65-1.96,37.52-2.01,56.15,0.34
				c42.51,5.36,87.58,24.06,116.79,56.52c2.19,2.44,4.31,4.95,6.36,7.53C544.6,184.27,556.17,259.57,542.6,320.7z"/>
			<path class="st0" d="M563.95,317.31c-2.04,37.11-19.15,84.77-101.19,118.94c-67.23,28.01-66.7,87.17-191.22,99.32
				c-19.41,1.9-37.63,1.68-54.63-0.36c-9.14-1.1-17.92-2.73-26.34-4.85c-76.42-19.18-123.16-78.38-135.73-145.39
				c-16.54-88.14,39.45-139.09,76.22-169.48c36.77-30.39,71.84-133.11,194.16-146.01c18.65-1.96,37.52-2.01,56.15,0.34
				c42.51,5.36,87.58,24.06,116.79,56.52c2.19,2.44,4.31,4.95,6.36,7.53C544.6,184.27,567.41,254.44,563.95,317.31z"/>
		</g>
	</g>
	<g>
		<path class="st1" d="M230.76,315.46c0,0-8.81-14.43-24.63-7.88s-21.19,31.75-21.19,31.75"/>
		<path class="st1" d="M187.37,331.79c0,0-10.15-14.73-17.82-20.41c-4.9-3.64-13.84-6.07-22.33,0.13
			c-4.18,3.05-8.92,1.97-11.49,2.21c-4.66,0.43-7.43,5.65-1.3,10.67c10.37,8.5,21.14,3.37,21.14,3.37s7.38,27.61,26.38,38.88
			c29.33,17.39,46.79-17.49,46.22-17.89"/>
	</g>
	<g>
		<polygon class="st0" points="181.84,111.64 177.68,121.84 183.72,131.05 172.73,130.24 165.84,138.83 163.22,128.13 
			152.92,124.23 162.28,118.43 162.81,107.43 171.22,114.54 		"/>
		<polygon class="st2" points="376.12,194.49 369.12,197.1 367.31,204.35 362.66,198.5 355.21,199.02 359.33,192.79 356.54,185.86 
			363.74,187.86 369.46,183.06 369.79,190.52 		"/>
		<polygon class="st2" points="480.05,361.73 474.5,366.46 475.26,373.7 469.05,369.89 462.39,372.85 464.09,365.77 459.22,360.35 
			466.49,359.78 470.14,353.47 472.92,360.2 		"/>
		<polygon class="st2" points="254.15,500.87 246.49,507.06 247.24,516.87 239,511.5 229.9,515.25 232.46,505.75 226.08,498.25 
			235.91,497.75 241.07,489.36 244.58,498.56 		"/>
		<polygon class="st2" points="112,359.74 110.61,364.91 114.08,368.99 108.73,369.26 105.92,373.83 104.01,368.83 98.8,367.57 
			102.97,364.2 102.56,358.86 107.05,361.78 		"/>
		<polygon class="st0" points="154.83,560.55 151.19,557.92 146.96,559.43 148.34,555.16 145.6,551.6 150.09,551.59 152.62,547.88 
			154.02,552.15 158.33,553.41 154.7,556.06 		"/>
		<polygon class="st0" points="102.71,228.33 97.9,226.14 93.37,228.85 93.97,223.61 89.99,220.14 95.16,219.09 97.23,214.23 
			99.83,218.82 105.09,219.29 101.52,223.18 		"/>
		<polygon class="st2" points="510.44,275.78 506.06,274.75 502.74,277.77 502.37,273.3 498.47,271.07 502.61,269.33 503.52,264.94 
			506.45,268.34 510.92,267.85 508.59,271.69 		"/>
		<polygon class="st2" points="343.33,118.13 345.74,113.91 343.63,109.53 348.39,110.52 351.9,107.16 352.44,111.99 356.72,114.29 
			352.29,116.29 351.42,121.07 348.15,117.48 		"/>
	</g>
	<g>
		<g>
			<path class="st3" d="M292.87,209.44c0,0-39.75-21.33-86.72,6.26c-46.97,27.59-25.84,79.83-14.67,90.98
				c11.17,11.15,25.93,26.83,72.43,21.97s61.69-28.44,64.33-54.59C330.88,247.9,322.34,224.26,292.87,209.44z"/>
			<g>
				<path class="st4" d="M304.81,279.04c1.43,3.4,12.97,11.42,17.76,16.18c1.91-3.99,3.3-8.18,4.27-12.5
					C318.32,280.07,303.47,275.85,304.81,279.04z"/>
				<path class="st4" d="M299.03,297.85c-1.4,2.91,6.92,9.37,11.46,13.35c4.19-3.7,7.5-7.83,10.09-12.26
					C313.75,298.25,300.53,294.75,299.03,297.85z"/>
				<path class="st4" d="M293.6,313.21c-0.02,1.53,1.51,4.11,3.47,6.79c3.86-1.87,7.29-3.97,10.33-6.27
					C301.6,312.41,293.63,310.43,293.6,313.21z"/>
				<path class="st4" d="M202.71,316.85c3.46,2.59,7.5,5.05,12.43,7.1c-0.37-2.76-0.83-6.02-1.26-8.72
					C213.25,311.38,207.17,314.52,202.71,316.85z"/>
				<path class="st4" d="M189.22,304.04c0.78,1.03,1.53,1.92,2.25,2.63c2.22,2.21,4.58,4.61,7.3,6.98
					c1.24-4.55,3.29-11.04,3.17-14.76C201.81,294.63,193.77,301.14,189.22,304.04z"/>
				<path class="st4" d="M187.34,301.28c2.16-4.72,6.73-12.35,8.33-16.99c1.72-4.99-8.99,2.54-13.73,6.06
					C183.58,294.6,185.47,298.32,187.34,301.28z"/>
			</g>
			
				<ellipse transform="matrix(7.667027e-03 -1 1 7.667027e-03 32.7602 547.4343)" class="st2" cx="292.2" cy="257.21" rx="10.87" ry="18.54"/>
			
				<ellipse transform="matrix(7.671367e-03 -1 1 7.671367e-03 -48.2804 473.5765)" class="st2" cx="214.47" cy="261.11" rx="10.87" ry="18.54"/>
			<path class="st3" d="M207.22,218.54c0,0-21.22-19.91-24.83-11.17c-3.62,8.74,6.19,28.87,6.19,28.87"/>
			<path class="st3" d="M291.19,212.46c0,0,18.87-15.4,25.17-10.21c6.31,5.19-2.42,28.45-2.42,28.45"/>
			<path class="st5" d="M190.6,233.24c0,0-8.83-18.06-5.98-22.81c2.85-4.74,19.15,12.59,19.15,12.59"/>
			<path class="st5" d="M293.72,214.66c0,0,17.65-10.65,21.99-9.62c4.34,1.03-3.81,23-3.81,23"/>
			<path class="st6" d="M258.35,250.78c-5.56-0.09-14.26,0.97-14.4,2.36c-0.23,2.34,7.73,8.48,11.13,7.04
				c3.4-1.43,8.76-7.68,7.69-8.69C262.28,251.04,260.56,250.82,258.35,250.78z"/>
			<path class="st4" d="M222.63,243.11c-5.39,2.45-10.94,2.7-14.67,1.04c2.92,3.88,9.42,4.9,15.47,2.16
				c5.37-2.43,8.74-7.09,8.74-11.43C230.43,238.05,227.06,241.11,222.63,243.11z"/>
			<path class="st4" d="M278.25,239.93c5.59,1.97,11.13,1.73,14.7-0.24c-2.57,4.12-8.96,5.7-15.23,3.49
				c-5.56-1.96-9.33-6.31-9.7-10.63C270.04,235.57,273.67,238.32,278.25,239.93z"/>
			<g>
				<path class="st7" d="M269.18,275.29c-2.19-5.37-7.2-9.39-13.38-10.02c-7.79-0.79-14.84,4.08-17.09,11.27"/>
				<line class="st7" x1="253.82" y1="260.37" x2="254.01" y2="264.81"/>
			</g>
			<g>
				<path class="st7" d="M217.17,259.35c0,0-13.94-5.17-24.41,1.11"/>
				<path class="st7" d="M195.01,276.03c10.41-11.01,23.98-9.93,23.98-9.93"/>
				<path class="st7" d="M220.78,270.49c0,0-9.41,3.28-14.64,13.27"/>
			</g>
			<g>
				<path class="st7" d="M291.42,253.05c0,0,12.9-7.38,24.26-2.9"/>
				<path class="st7" d="M290.72,260.01c0,0,13.21-3.29,25.28,5.87"/>
				<path class="st7" d="M289.68,264.63c0,0,9.82,1.69,16.61,10.7"/>
			</g>
		</g>
		
			<ellipse transform="matrix(0.9926 -0.121 0.121 0.9926 -28.1796 32.583)" class="st7" cx="254.1" cy="248.23" rx="92.04" ry="81.01"/>
		<path class="st1" d="M265.63,438.44c0,0,29.44,34.24,52.16,33.25c22.72-0.99,32.35-18.94,32.35-18.94s-4.21,13.15,2.46,16.29
			c6.67,3.14,15.56-7.47,15.01-26.45c-0.55-18.97-13.78-22.37-13.78-22.37s19.45,6.9-31.9,14.46
			C270.59,442.23,265.63,438.44,265.63,438.44z"/>
		<path class="st4" d="M353.84,420.22c0,0,15.32,5.44-17.14,11.94c4.14,8.77,7.11,22.2-2.99,35.54
			c11.39-5.57,16.43-14.96,16.43-14.96s-4.21,13.15,2.46,16.29c6.67,3.14,15.56-7.47,15.01-26.45
			C367.07,423.61,353.84,420.22,353.84,420.22z"/>
		<path class="st7" d="M350.14,452.74c0,0,3.79-4.96,5.06-13.47"/>
		<g>
			<path class="st8" d="M356.03,337.68c0,0,45.82-12.4,49.32-46.97c3.5-34.57-19.85-60.78-6.56-100.32
				c13.29-39.54,58.36-53.72,89.31-29.29s16.62,46.83-9.43,74.85c-26.05,28.03-18.29,33.92-30.89,66.72
				c-12.6,32.8-43.72,46.68-73.55,47.92C374.22,350.59,363.47,337.58,356.03,337.68z"/>
			<path class="st4" d="M483.46,230.69c22.88-25.62,33.63-46.72,4.63-69.6c-22.35-17.64-52.05-15.14-71.84,2.49
				C438.19,165.24,473.63,176.56,483.46,230.69z"/>
			<path class="st4" d="M408.44,189.13c9.51-0.24,30.38,2.78,49.45,29.68c0.66,0.94,2.13,0.25,1.82-0.85
				c-2.75-9.6-9.98-28.68-25.2-34.74c-13.26-5.28-22.41-1.11-27.26,2.55C405.8,186.88,406.62,189.18,408.44,189.13z"/>
			<path class="st4" d="M401.17,213.37c9.51-0.24,30.38,2.78,49.45,29.68c0.66,0.94,2.13,0.25,1.82-0.85
				c-2.75-9.6-9.98-28.68-25.2-34.74c-13.26-5.28-22.41-1.11-27.26,2.55C398.53,211.12,399.35,213.42,401.17,213.37z"/>
			<path class="st4" d="M404.57,240.87c5.78-0.86,18.71-0.52,32.3,14.85c0.47,0.54,1.32,0,1.04-0.67
				c-2.38-5.79-8.18-17.16-17.89-19.81c-8.46-2.31-13.74,0.98-16.42,3.62C402.79,239.66,403.46,241.03,404.57,240.87z"/>
			<path class="st4" d="M406.33,264.76c5.09-0.79,16.49-0.47,28.48,13.92c0.42,0.5,1.16,0,0.92-0.62
				c-2.1-5.41-7.22-16.05-15.79-18.54c-7.46-2.17-12.1,0.9-14.47,3.37C404.76,263.62,405.35,264.91,406.33,264.76z"/>
			<g>
				<path class="st4" d="M433.1,304.08c-2.1-5.41-7.22-16.05-15.79-18.54c-5.21-1.51-9.04-0.47-11.69,1.13
					c-0.06,1.3-0.14,2.61-0.27,3.93c5.66-0.41,16,1.11,26.83,14.11C432.6,305.2,433.34,304.7,433.1,304.08z"/>
				<path class="st4" d="M399.65,340.4c0.42,0.5,1.16,0,0.92-0.62c-1.94-4.99-6.45-14.4-13.85-17.8c-2.26,1.8-4.58,3.43-6.89,4.89
					C385.38,328.15,392.4,331.71,399.65,340.4z"/>
				<path class="st4" d="M409.09,306.17c-3.39-0.98-6.19-0.88-8.47-0.26c-1.01,1.86-2.15,3.63-3.38,5.31
					c5.68-0.38,15.96,1.2,26.72,14.11c0.42,0.5,1.16,0,0.92-0.62C422.78,319.3,417.65,308.66,409.09,306.17z"/>
			</g>
		</g>
		<path class="st1" d="M191.55,322.1c0,0-3.18,50.72,33.35,92.06c30.9,34.97,81.09,48.1,129.38,13.91c0,0,21.32,16.96,46,12.88
			c24.68-4.08,17.39-37.72,17.39-37.72s28.64,19.71,26.83,0.19c-2.45-26.29-34.14-45.76-40.78-45.2c-6.64,0.56-8.15,7.4-8.15,7.4
			s-12.96-22.29-28.87-31.71c-15.91-9.42-33.15-12.62-42.24-24.95l-4.02-1.53c0,0-13.21,12.65-31.58,19.43
			c-18.37,6.78-45.98,7.28-58.48,4.78c-12.5-2.5-37.65-14.09-37.65-14.09L191.55,322.1z"/>
		<g>
			<path class="st9" d="M207.34,348.42c9.3,3.06,30.94,8.96,55.86,7.45c1.78-0.11,3.35,1.13,3.71,2.88
				c1.25,6.11,5.11,20.18,15.82,32.67c1.85,2.15,0.55,5.5-2.26,5.87c-12.03,1.6-38.49,2.99-65.57-9.58
				c-0.7-0.33-1.28-0.87-1.65-1.55c-2.13-3.94-9.43-18.43-10.62-34.09C202.45,349.53,204.93,347.63,207.34,348.42z"/>
			
				<ellipse transform="matrix(0.9803 -0.1974 0.1974 0.9803 -68.7573 50.299)" class="st2" cx="217.86" cy="369.95" rx="7.43" ry="10.43"/>
			<path class="st2" d="M245.24,372.09c1.14,5.65-1.2,10.89-5.23,11.7c-4.03,0.81-8.21-3.11-9.35-8.76
				c-1.14-5.65,1.2-10.89,5.23-11.7C239.91,362.52,244.1,366.44,245.24,372.09z"/>
			
				<ellipse transform="matrix(0.9803 -0.1974 0.1974 0.9803 -69.3907 58.632)" class="st2" cx="259.33" cy="377.3" rx="7.43" ry="10.43"/>
		</g>
		<path class="st7" d="M354.28,428.07c0,0-2.77-1.57-5.91-3.78"/>
		<path class="st10" d="M320.88,302.95l-0.02-0.08c-14.48,13.87-34.4,23.03-56.96,25.78c-27.58,3.36-51.63-3.08-69.97-16.84
			l-2.38,10.3c18.72,14.31,44.2,21.64,71.16,18.35c25.25-3.08,46.99-14.9,61.74-31.49L320.88,302.95z"/>
		<path class="st4" d="M403.71,358.22c-6.64,0.56-8.15,7.4-8.15,7.4s17.94,15.83,22.11,37.61c0,0,28.64,19.71,26.83,0.19
			C442.04,377.13,410.35,357.66,403.71,358.22z"/>
		<g>
			<path class="st4" d="M374.7,339.86c-18.2,50.44-79.81,79.53-145.52,66.05c-4.55-0.93-9-2.05-13.36-3.33
				c2.48,3.57,5.21,7.11,8.22,10.59c1,0.24,2,0.47,3.01,0.69c69.01,14.91,129.13-11.96,156.31-65.13
				C380.76,345.69,377.84,342.63,374.7,339.86z"/>
		</g>
		<path class="st7" d="M374.71,339.85c-2.55-2.25-5.24-4.29-8.02-5.94c-15.91-9.42-33.15-12.62-42.24-24.95l-1.9-2.83
			c0,0-15.33,13.94-33.7,20.72c-18.37,6.78-45.98,7.28-58.48,4.78c-12.5-2.5-37.65-14.09-37.65-14.09l-1.17,4.56
			c0,0-2.62,41.83,24.26,80.48c4.36,1.29,8.82,2.4,13.38,3.34C294.9,419.39,356.52,390.3,374.71,339.85z"/>
	</g>
	<g>
		
			<ellipse transform="matrix(0.9683 -0.2496 0.2496 0.9683 -112.4405 44.2597)" class="st8" cx="118.29" cy="465.46" rx="64.36" ry="64.36"/>
		<g>
			<path class="st7" d="M174.7,440.96c-0.33-1.52-0.71-3.03-1.14-4.52"/>
			<path class="st7" d="M119.65,518.35c29.18-3.58,53.06-26.93,56.14-57.41c0.52-5.11,0.42-10.13-0.23-15.01"/>
			<path class="st7" d="M86.53,513.69c5.83,2.48,12.12,4.13,18.75,4.81c3.45,0.35,6.85,0.42,10.21,0.23"/>
			<path class="st7" d="M86.08,509.78c4.17,1.33,8.54,2.24,13.07,2.7c35.36,3.58,66.93-22.19,70.51-57.55
				c0.89-8.84-0.04-17.44-2.51-25.43"/>
			<path class="st7" d="M148.8,480.41c6.82-9.07,11.32-20.05,12.55-32.16c0.89-8.83-0.04-17.42-2.5-25.4"/>
			<path class="st7" d="M83.78,504.69c2.31,0.49,4.66,0.86,7.06,1.11c21.89,2.22,42.33-6.82,55.58-22.41"/>
		</g>
		<g>
			<path class="st7" d="M68.57,457.94c1.62,11.29,6.26,22.29,14.05,31.74c4.07,4.94,8.73,9.12,13.79,12.52"/>
			<path class="st7" d="M101.06,499.21c1.46,1.15,2.97,2.24,4.51,3.25"/>
			<path class="st7" d="M76.71,453.76c1.01,12.7,5.78,25.22,14.5,35.8c2.19,2.66,4.56,5.1,7.06,7.32"/>
			<path class="st7" d="M87.51,454.7c1.35,11.96,6.07,23.68,14.29,33.66c3.77,4.57,8.04,8.49,12.66,11.74"/>
			<path class="st7" d="M87.1,447.42c0,1.55,0.05,3.09,0.16,4.64"/>
		</g>
		<g>
			<path class="st7" d="M140.67,422.99c0.19,1.62,0.31,3.24,0.37,4.85"/>
			<path class="st7" d="M135.82,404.77c1.48,3.43,2.67,7.03,3.56,10.78c0.31,1.3,0.57,2.59,0.79,3.89"/>
			<path class="st7" d="M126.16,403.17c3.57,5.76,6.27,12.19,7.91,19.14c0.26,1.1,0.49,2.19,0.69,3.29"/>
			<path class="st7" d="M112.84,402.76c4.65,5.39,8.45,11.61,11.14,18.49"/>
		</g>
		<g>
			<path class="st7" d="M143.36,433.15c1.71,1.2,3.38,2.49,5,3.88c3.65,3.13,6.86,6.58,9.63,10.28"/>
			<path class="st7" d="M60.48,440.83c21.26-21.75,54.76-25.44,80.12-9.52"/>
			<path class="st7" d="M66.44,443.8c23.66-18.6,57.92-18.53,81.63,1.81c3.32,2.85,6.28,5.96,8.87,9.28"/>
			<path class="st7" d="M57.31,452.55c2.09-2.43,4.32-4.67,6.66-6.71"/>
			<path class="st7" d="M150.34,459.59c1.75,1.75,3.37,3.58,4.88,5.47"/>
			<path class="st7" d="M55.9,463.12c23.14-26.98,63.77-30.08,90.75-6.94"/>
		</g>
	</g>
	<g>
		<path class="st1" d="M311.19,328.12c0,0,2.12-16.77,19.23-17.29c17.11-0.52,32.35,20.27,32.35,20.27"/>
		<path class="st1" d="M357.46,325.21c0,0,3.22-17.6,7.87-25.93c2.98-5.32,10.14-11.21,20.42-9.05c5.07,1.07,8.95-1.86,11.38-2.7
			c4.42-1.52,9.09,2.11,5.56,9.2c-5.97,12-17.9,11.75-17.9,11.75s4.6,28.21-8.11,46.27c-19.62,27.89-49.85,3.25-49.5,2.65"/>
	</g>
	<g>
		<path class="st4" d="M385.82,318.32c-0.12-6.08-0.79-10.19-0.79-10.19s11.93,0.26,17.9-11.75c3.53-7.09-1.14-10.72-5.56-9.2
			c-2.44,0.84-6.32,3.76-11.38,2.7c-10.28-2.17-17.44,3.72-20.42,9.05c-1.76,3.14-3.31,7.6-4.56,11.94c0,0,6.68,4.12,13.1,5.62
			C380.51,317.98,385.82,318.32,385.82,318.32z"/>
	</g>
	<g>
		<path class="st4" d="M158.69,337.15c-2.38-5.6-3.46-9.62-3.46-9.62s-10.78,5.13-21.14-3.37c-6.13-5.02-3.36-10.24,1.3-10.67
			c2.57-0.24,7.3,0.84,11.49-2.21c8.49-6.19,17.43-3.76,22.33-0.13c2.89,2.14,6.13,5.57,9.06,9.02c0,0-4.4,6.5-9.64,10.5
			C163.38,334.65,158.69,337.15,158.69,337.15z"/>
	</g>
	<path class="st4" d="M248.88,210.32c2.89-1.74,3.82-7.21,5.34-13.25c1.52-6.04,4.13-14.45,13.15-13.63
		c9.02,0.82,12.53,6.36,16.26,13.66c6.26,12.26,22.91,12.81,30.38-3.6c0,0-14.33,14.92-20.03,0.02
		c-3.72-9.73-6.17-13.43-10.02-16.99c-8.65-8-23.67-9.66-34.17-2.99c-10.5,6.68-12.02,15.23-12.61,22
		c-0.31,3.6-0.32,6.74,0.42,10.21c0.43,2.01,1.92,4.74,4.31,5.51C244.37,212.06,245.98,212.07,248.88,210.32z"/>
</g>
</svg>
