<?xml version="1.0" encoding="utf-8"?>
<!-- Generator: Adobe Illustrator 25.4.1, SVG Export Plug-In . SVG Version: 6.00 Build 0)  -->
<svg version="1.1" id="Layer_1" xmlns="http://www.w3.org/2000/svg" xmlns:xlink="http://www.w3.org/1999/xlink" x="0px" y="0px"
	 viewBox="0 0 199.32 78.83" style="enable-background:new 0 0 199.32 78.83;" xml:space="preserve">
<style type="text/css">
	.st0{fill:none;stroke:#000000;stroke-width:0.8421;stroke-miterlimit:10;}
</style>
<rect x="21.09" y="21.4" class="st0" width="150" height="40"/>
<g>
	<path d="M80.67,46.38V35.01h3.98c1.38,0,2.43,0.26,3.14,0.79c0.71,0.53,1.07,1.3,1.07,2.32c0,0.56-0.14,1.05-0.43,1.47
		c-0.29,0.42-0.69,0.74-1.2,0.93c0.58,0.15,1.04,0.44,1.38,0.88s0.5,0.98,0.5,1.62c0,1.09-0.35,1.92-1.05,2.48
		c-0.7,0.56-1.69,0.85-2.98,0.86H80.67z M83.01,39.77h1.73c1.18-0.02,1.77-0.49,1.77-1.41c0-0.52-0.15-0.89-0.45-1.11
		c-0.3-0.23-0.77-0.34-1.42-0.34h-1.64V39.77z M83.01,41.43v3.07h2.01c0.55,0,0.98-0.13,1.29-0.39c0.31-0.26,0.46-0.63,0.46-1.09
		c0-1.04-0.54-1.57-1.62-1.59H83.01z"/>
	<path d="M93.95,40.45l1.42-2.52h2.41l-2.41,4.14l2.51,4.31h-2.42l-1.51-2.66l-1.5,2.66h-2.43l2.51-4.31l-2.4-4.14h2.42L93.95,40.45
		z"/>
	<path d="M98.86,35.74c0-0.34,0.11-0.62,0.34-0.84s0.54-0.33,0.93-0.33c0.39,0,0.69,0.11,0.92,0.33c0.23,0.22,0.34,0.5,0.34,0.84
		c0,0.34-0.12,0.62-0.35,0.84c-0.23,0.22-0.54,0.33-0.92,0.33c-0.38,0-0.69-0.11-0.92-0.33C98.97,36.37,98.86,36.09,98.86,35.74z
		 M101.25,46.38h-2.27v-8.45h2.27V46.38z"/>
	<path d="M103.23,44.56c0.51-0.54,0.86-1.08,1.04-1.61c0.18-0.53,0.28-1.28,0.3-2.26l0.06-2.77h6.22v6.63h1.22v4.36h-2.26v-2.54
		h-5.01v2.54h-2.3v-4.36H103.23z M105.9,44.56h2.71V39.8h-1.76l-0.02,1.02C106.79,42.36,106.47,43.61,105.9,44.56z"/>
</g>
</svg>
