<?xml version="1.0" encoding="utf-8"?>
<!-- Generator: Adobe Illustrator 25.4.1, SVG Export Plug-In . SVG Version: 6.00 Build 0)  -->
<svg version="1.1" id="Layer_1" xmlns="http://www.w3.org/2000/svg" xmlns:xlink="http://www.w3.org/1999/xlink" x="0px" y="0px"
	 viewBox="0 0 234.13 82.49" style="enable-background:new 0 0 234.13 82.49;" xml:space="preserve">
<style type="text/css">
	.st0{fill:#3C89FF;}
	.st1{fill:#FFFFFF;}
</style>
<rect x="18.19" y="12.17" class="st0" width="200" height="60"/>
<g>
	<path class="st1" d="M87.57,32.37l3.22,6.89c0.41,0.96,0.79,1.9,1.18,2.86h0.05c0.29-0.84,0.6-1.78,1.01-2.93l2.52-6.82h2.21
		l-3.38,8.3c-0.89,2.16-1.9,4.63-3.02,6.14c-1.06,1.32-2.23,1.99-3.67,1.99c-0.53,0-0.91-0.05-1.18-0.14l0.22-1.7
		c0.17,0.05,0.41,0.07,0.77,0.07c1.68-0.02,2.66-1.63,3.17-2.78c0.17-0.36,0.12-0.6-0.07-0.98l-5.38-10.9H87.57z"/>
	<path class="st1" d="M98.77,37.08c0.82-0.14,2.33-0.26,3.7-0.26c1.94,0,5.16,0.31,5.16,2.9c0,1.44-1.1,2.33-2.42,2.62v0.05
		c1.7,0.24,2.95,1.2,2.95,2.88c0,3.05-3.84,3.43-6.12,3.43c-1.3,0-2.64-0.1-3.26-0.14V37.08z M100.77,47.16
		c0.6,0.07,1.03,0.1,1.7,0.1c1.42,0,3.53-0.34,3.53-2.02s-1.68-2.04-3.7-2.04h-1.54V47.16z M100.79,41.81h1.58
		c1.56,0,3.17-0.46,3.17-1.82c0-1.15-1.01-1.7-3.12-1.7c-0.7,0-1.13,0.05-1.63,0.1V41.81z"/>
	<path class="st1" d="M113.17,33.67c0.02,0.72-0.5,1.3-1.34,1.3c-0.74,0-1.27-0.58-1.27-1.3c0-0.74,0.55-1.32,1.32-1.32
		C112.67,32.35,113.17,32.93,113.17,33.67z M110.82,48.55V36.94h2.11v11.62H110.82z"/>
	<path class="st1" d="M118.38,36.94v4.9c0,1.85-0.02,3-0.12,4.66l0.07,0.02c0.7-1.42,1.1-2.23,1.87-3.58l3.62-6h2.47v11.62h-2.02
		v-4.92c0-1.9,0.05-2.88,0.14-4.75h-0.07c-0.74,1.49-1.25,2.42-1.92,3.6c-1.1,1.8-2.38,4.03-3.62,6.07h-2.42V36.94H118.38z
		 M119.75,32.21c0.07,1.03,0.58,1.82,1.54,1.82c1.03,0,1.51-0.77,1.63-1.82h1.51c-0.1,1.97-1.34,2.98-3.19,2.98
		c-2.11,0-2.93-1.32-3.02-2.98H119.75z"/>
	<path class="st1" d="M137.51,36.94v1.68h-3.62v9.94h-2.09v-9.94h-3.62v-1.68H137.51z"/>
	<path class="st1" d="M141.3,36.94v4.9c0,1.85-0.02,3-0.12,4.66l0.07,0.02c0.7-1.42,1.1-2.23,1.87-3.58l3.62-6h2.47v11.62h-2.02
		v-4.92c0-1.9,0.05-2.88,0.14-4.75h-0.07c-0.74,1.49-1.25,2.42-1.92,3.6c-1.1,1.8-2.38,4.03-3.62,6.07h-2.42V36.94H141.3z"/>
</g>
</svg>
