<?xml version="1.0" encoding="utf-8"?>
<!-- Generator: Adobe Illustrator 25.4.1, SVG Export Plug-In . SVG Version: 6.00 Build 0)  -->
<svg version="1.1" id="Layer_1" xmlns="http://www.w3.org/2000/svg" xmlns:xlink="http://www.w3.org/1999/xlink" x="0px" y="0px"
	 viewBox="0 0 92.94 64.36" style="enable-background:new 0 0 92.94 64.36;" xml:space="preserve">
<style type="text/css">
	.st0{fill:#3C89FF;}
	.st1{clip-path:url(#SVGID_00000144314283805137974960000006635349999329447863_);}
	.st2{fill:#FFD262;}
</style>
<g>
	<path class="st0" d="M51.94,10.25c0.54,0.06,1.21,0.53,1.36,0.8c0.25,0.44,0.45,0.74,0.68,1.34c0.13,0.33,0.28,0.61,0.37,0.94
		c0.15,0.61,0.27,1.88,0.95,2.08c0.34,0.11,0.75-0.15,1.08-0.17c0.47-0.02,0.73,0.1,1.11,0.34c0.78,0.47,1.2,1.14,1.64,1.91
		c0.22,0.39,0.5,0.89,0.85,1.18c0.52,0.4,0.78,0.19,1.32,0.11c0.55-0.08,1.35-0.08,1.88,0.06c0.49,0.14,0.8,0.46,1.34,0.4
		c0.98-0.12,1.17-1.22,2.12-1.38c1.29-0.2,1.9,0.45,2.88,1.17c1.32,0.95,2.46,0.36,3.94,0.26c0.68-0.04,1.48-0.18,2.1,0.11
		c0.58,0.28,0.92,0.63,1.54,0.76c1.14,0.25,3.28,0.44,3.02,2.08c-0.07,0.48-0.3,0.82-0.29,1.33c0.02,1.03,0.66,1.99,0.98,2.94
		c0.08,0.24,0.62,1.49,0.62,1.49l-29.41-0.01L51.94,10.25z"/>
</g>
<g>
	<path class="st0" d="M60.5,29.03l-2.06-4.94l2.21-1.72c0,0,3.68,0.38,3.72,0.45c0.04,0.06,0.21,1.49,0.21,1.49s-0.7,3.51-0.72,3.62
		c-0.02,0.11-0.43,1.64-0.43,1.64L60.5,29.03z"/>
</g>
<g>
	<path class="st0" d="M81.45,27.99c0.07,0.14,0.22,0.4,0.22,0.45c0.27,0.77-0.8,1.11-1.55,1.43c-1.62,0.68-4.07,1.62-4.28,3.78
		c-0.04,0.45,0.18,0.88-0.22,1.5c-0.32,0.49-1.18,0.35-2.19,1.68c-0.24,0.31-1.21,1.84-4.8,2.99c-0.68,0.22-1.59,0.17-2.17,0.62
		c-0.27,0.21-0.25,0.44-0.45,0.69c-0.26,0.34-0.23,0.17-0.63,0.29c-0.82,0.24-0.89,0.54-1.26,1.26c-0.31,0.61-0.8,0.96-1.49,1.03
		c-1.08,0.1-2.32-0.24-3.36,0.04c-0.4,0.11-0.65,0.34-0.89,0.59c-0.15,0.15-0.29,0.32-0.46,0.46c-0.48,0.38-1.09,0.33-1.72,0.33
		c-1.3,0-3.01,0.6-4.21,0.2c0-0.06,0-0.08,0-0.15V27.81L81.45,27.99z"/>
</g>
<g>
	<polygon class="st0" points="53.03,34.65 38.69,34.65 38.69,20.26 47.12,20.26 51.76,10.52 53.03,20.26 	"/>
</g>
<g>
	<path class="st0" d="M13.76,28.12c0.84-0.79,3.52-2.85,2.79-3.98c-1.74-2.69-2.25-3.79-2.42-4.25c0.86-0.12,1.66-0.39,2.35-0.94
		c1.04-0.83,1.79-1.7,3.14-2.07c0.84-0.23,1.95-0.31,2.78-0.04c1.14,0.36,1.85,1.11,3.17,1c1.35-0.11,2.34-0.93,3.72-0.62
		c0.78,0.18,1.15,0.52,1.98,0.53c0.53,0,1.09,0.04,1.62-0.04c1.2-0.2,2.1-0.11,3.32,0.12c1.19,0.22,3.33,1.06,4.38,0.04
		c0.91-0.9,0.04-2.26,1.01-3.15c0.82-0.76,2.79-0.55,2.91-1.91c0-0.02,0-0.05,0.01-0.07c0.59,0.2,1.34,0.34,1.65,0.12
		c0.59-0.41,0.11-1.68,0.86-2c0.29-0.13,0.65,0.11,0.97,0.12c0.46,0,0.67-0.17,1.03-0.39c0.7-0.43,1.44-0.57,2.27-0.49
		c0.16,0.01,0.44,0.07,0.65,0.14v17.72L13.76,28.12z"/>
</g>
<g>
	<path class="st0" d="M52,45.32c-0.37-0.09-0.95-0.49-1.11-0.69c-0.86-1.11-1.24-2.2-1.86-1.61c-0.11,0.1-0.8,0.77-1.32,0.37
		c-0.3-0.23-0.5-1.17-0.76-1.54c-0.3-0.23-0.4-0.02-0.54,0.25c-0.36,0.69,1.35,1.99,1.85,2.59c0.46,0.55,0.66,1.31,0.03,1.71
		c-0.56,0.37-1.58-0.65-1.66,0.03c-0.15,0.67-0.15,0.93-0.06,1.56c0.12,0.8-0.29,1.11-1.06,1.49c-0.45,0.22-0.98,0.06-0.79,0.74
		c0.1,0.37,0.54,0.56,0.67,0.96c0.26,0.78-0.35,2.01-2.23,1.5c-1.23-0.45-2.24-0.95-3.29-0.34c-1.04,0.6-2.46,1.28-2.61-0.06
		c0.01-0.43,0.14-0.73,0.27-1.01c0.37-0.79,1.06-1.37,1.53-2.09c0.29-0.47,0.51-0.95,0.49-1.51c-0.01-0.38-0.33-0.95-0.35-1.31
		c-0.03-0.48,0.36-0.64,0.72-0.65c0.4,0,0.68,0.02,1.07,0.05c0.49,0.03,0.91,0.12,1.39,0.13c0.83,0,1.09-0.08,0.88-0.94
		c-0.14-0.6-0.27-1.25-0.81-1.56c-0.52-0.32-1.19-0.31-1.55-0.87c-0.36-0.57,0-1.28-0.43-1.77c-0.48-0.54-1.1-0.34-1.4-1.11
		c-0.39-0.98,0.2-2.07-0.82-2.66c-1.11-0.65-2.15-0.06-3.28-0.26c-1.01-0.17-1.73-1.16-2.79-1.32c-0.57-0.08-1,0.16-1.52,0.33
		c-0.54,0.16-0.99,0.16-1.56,0.17C28.13,35.9,28.86,36.82,28,37c-0.93,0-1.5,0.71-2.21,1.31c-0.84,0.71-1.99,1.38-3.05,1.73
		c-1.37,0.44-1.75-0.36-2.95-0.63c-0.85-0.2-2.03,0.02-2.95-0.08c-0.85-0.09-1.81-0.04-2.67-0.08c-0.35-0.02-0.92,0-1.26,0
		c-1.26,0.02-2.99-0.36-3.09-2.21c-0.05-0.83,0.49-1.4,0.93-2.07c1.41-2.15,1.15-2.79,1.26-3.84c0.14-1.22,0.88-2.24,1.78-3.05
		h38.22L52,45.32z"/>
</g>
<g>
	<path class="st0" d="M74.6,46.33c0.16,0.2,0.1,0.38,0.02,0.57c-0.04,0.11-0.09,0.22-0.11,0.34c-0.05,0.27,0.02,0.57,0,0.84
		c-0.06,0.81-0.82,0.58-1.39,0.86c-0.74,0.37-1.18,0.12-1.95,0.07c-0.94-0.06-1.02,0.62-1.41,1.28c-0.46,0.81-1.12,1.1-1.96,1.45
		c-0.78,0.3-0.79,1.05-1.41,1.5c-0.37,0.26-0.61,0.23-0.85,0.62c-0.19,0.32-0.33,0.55-0.71,0.66c-0.7,0.2-1.36-0.11-1.98-0.41
		c-0.28-0.13-0.43-0.18-0.5-0.56c-0.06-0.28,0.04-0.57,0.11-0.82c0.16-0.52,0.33-1.46-0.13-1.89c-0.49-0.46-1.23,0.07-1.79-0.04
		c-0.61-0.12-1.22-0.93-1.96-0.66c-0.29,0.11-0.36,0.32-0.71,0.16c-0.31-0.15-0.34-0.39-0.33-0.74c-0.02-0.39,0.44-0.57,0.69-0.68
		c0.21-0.09,0.57-0.17,0.72-0.34c0.17-0.17,0.17-0.48,0.28-0.68c0.28-0.49,0.89-0.64,1.39-0.85c0.55-0.21,1.25-0.44,1.11-1.17
		c-0.07-0.38-0.42-0.8-0.02-1.03c0.05-0.03,0.1-0.05,0.17-0.07c0.48-0.15,0.97,0.27,1.4,0.4c0.32,0.09,0.67,0.16,1.01,0.19
		c0.27,0.02,0.8-0.11,1.04-0.01c0.33,0.14,0.37,0.63,0.62,0.87c0.45,0.41,1.15,0.28,1.66,0.57c0.39,0.23,0.39,0.49,0.53,0.88
		c0.17,0.51,0.58,0.5,1.12,0.56c1.02,0.1,1.86-0.5,2.6-1.09c0.34-0.27,0.59-0.76,1.01-0.93C73.25,46.03,74.32,45.99,74.6,46.33z"/>
</g>
<g>
	<defs>
		<path id="SVGID_1_" d="M81.69,28.62l-0.11-0.38l-0.53-1.05l-23.54-8.54l-4.15-4.66l-0.85-3.56c0,0-0.94-0.41-1.76-0.35
			C49.95,10.14,14.54,27.4,14.54,27.4l-1.32,1.22l0.02,1.43l23.21,3.53l9.85,4.91l5.13,4.28l0.26,2.43c0,0,0.64,0.32,1.47,0.24
			C54,45.36,73.16,33.23,73.16,33.23l6.32-4.6l2.23,0.13L81.69,28.62z"/>
	</defs>
	<clipPath id="SVGID_00000118364063656815328190000011523159285518195600_">
		<use xlink:href="#SVGID_1_"  style="overflow:visible;"/>
	</clipPath>
	<g style="clip-path:url(#SVGID_00000118364063656815328190000011523159285518195600_);">
		<path class="st0" d="M52.04,9.36c0,3.81-0.1,8.58-0.1,12.41c0,0-0.09-0.01-0.13-0.03c-0.49-0.09-0.96-0.26-1.4-0.52
			c-0.28-0.16-0.6-0.25-0.92-0.25c-0.99,0-1.79,0.8-1.79,1.79s0.8,1.79,1.79,1.79c0.32,0,0.64-0.09,0.92-0.26
			c0.48-0.27,0.99-0.46,1.53-0.54v4.07c0,0-5.25,0.03-7.18,0.03"/>
		<path class="st2" d="M44.76,28.23v-0.75c1.62,0,5.57-0.02,6.8-0.03v-3.24c-0.32,0.09-0.65,0.22-0.97,0.41
			c-0.33,0.2-0.71,0.31-1.1,0.31c-1.19,0-2.17-0.97-2.17-2.17s0.97-2.17,2.17-2.17c0.38,0,0.76,0.1,1.11,0.3
			c0.3,0.18,0.63,0.32,0.97,0.41c0-1.81,0.03-3.81,0.05-5.81c0.02-2.13,0.05-4.25,0.05-6.13h0.75c0,1.89-0.03,4.01-0.05,6.14
			c-0.03,2.17-0.05,4.34-0.05,6.27v0.42l-0.42-0.05c-0.05-0.01-0.12-0.02-0.19-0.04c-0.53-0.1-1.03-0.29-1.49-0.56
			c-0.22-0.13-0.48-0.2-0.73-0.2c-0.78,0-1.42,0.63-1.42,1.42s0.63,1.42,1.42,1.42c0.25,0,0.5-0.07,0.73-0.21
			c0.55-0.31,1.11-0.51,1.67-0.59l0.43-0.06v4.88l-0.37,0C51.94,28.2,46.69,28.23,44.76,28.23z"/>
	</g>
	<g style="clip-path:url(#SVGID_00000118364063656815328190000011523159285518195600_);">
		<path class="st0" d="M82.77,27.87c-5.73,0.05-20.11-0.02-20.11-0.02c0-0.78,0.2-1.55,0.59-2.23c0.17-0.28,0.26-0.6,0.26-0.93
			c0-0.98-0.8-1.79-1.79-1.79c-0.99,0-1.79,0.81-1.79,1.79c0,0.33,0.09,0.65,0.26,0.93c0.39,0.68,0.59,1.45,0.59,2.23
			c0,0-7.42,0-8.24,0"/>
		<path class="st2" d="M77.07,28.26c-6.39,0-14.3-0.04-14.41-0.04l-0.37,0v-0.37c0-0.85,0.22-1.69,0.64-2.42
			c0.14-0.23,0.21-0.48,0.21-0.74c0-0.78-0.63-1.42-1.42-1.42s-1.42,0.63-1.42,1.42c0,0.26,0.07,0.51,0.21,0.73
			c0.42,0.74,0.64,1.58,0.64,2.43v0.38h-8.62v-0.75h7.85c-0.05-0.59-0.23-1.16-0.52-1.67c-0.2-0.33-0.31-0.72-0.31-1.12
			c0-1.19,0.97-2.17,2.17-2.17s2.17,0.97,2.17,2.17c0,0.4-0.11,0.79-0.31,1.12c-0.29,0.5-0.47,1.07-0.52,1.66
			c2.34,0.01,14.58,0.06,19.72,0.02l0.01,0.75C81.31,28.25,79.28,28.26,77.07,28.26z"/>
	</g>
	<g style="clip-path:url(#SVGID_00000118364063656815328190000011523159285518195600_);">
		<path class="st0" d="M52.62,27.85c-1.47,0-8.39,0-8.39,0c0.04,0.68,0.24,1.35,0.58,1.93c0.17,0.28,0.26,0.6,0.26,0.93
			c0,0.99-0.8,1.79-1.79,1.79s-1.79-0.8-1.79-1.79c0-0.33,0.09-0.65,0.26-0.93c0.34-0.58,0.52-1.14,0.56-1.82
			c0,0-24.07,0.13-31.04,0.12"/>
		<path class="st2" d="M43.28,32.87c-1.19,0-2.16-0.97-2.16-2.16c0-0.4,0.11-0.79,0.31-1.12c0.24-0.41,0.39-0.81,0.46-1.25
			c-3.24,0.02-24.25,0.11-30.62,0.12l0-0.75c6.86,0,30.79-0.12,31.03-0.12l0.4,0l-0.02,0.4c-0.04,0.73-0.23,1.34-0.61,1.99
			c-0.14,0.23-0.21,0.48-0.21,0.74c0,0.78,0.63,1.41,1.41,1.41c0.78,0,1.42-0.63,1.42-1.41c0-0.26-0.07-0.51-0.21-0.74
			c-0.37-0.63-0.59-1.36-0.63-2.1l-0.02-0.4h8.79v0.75h-7.97c0.08,0.48,0.24,0.95,0.49,1.37c0.2,0.33,0.31,0.72,0.31,1.12
			C45.44,31.9,44.47,32.87,43.28,32.87z"/>
	</g>
	<g style="clip-path:url(#SVGID_00000118364063656815328190000011523159285518195600_);">
		<path class="st0" d="M52.03,45.45c0.01-0.9-0.09-8.84-0.09-8.84h0.03c0.6,0.08,1.17,0.27,1.69,0.57c0.28,0.17,0.59,0.25,0.91,0.25
			c0.97,0,1.76-0.79,1.76-1.76c0-0.96-0.79-1.75-1.76-1.75c-0.32,0-0.63,0.08-0.91,0.25c-0.52,0.3-1.09,0.49-1.69,0.57h-0.03
			c0,0,0-5.64,0-6.53"/>
		<path class="st2" d="M52.4,45.45l-0.75-0.01c0.01-0.88-0.09-8.76-0.09-8.83l0-0.38h0.38c0.73,0.09,1.35,0.3,1.91,0.62
			c0.22,0.13,0.46,0.2,0.72,0.2c0.76,0,1.39-0.62,1.39-1.38c0-0.76-0.62-1.38-1.39-1.38c-0.26,0-0.5,0.07-0.71,0.2
			c-0.57,0.33-1.18,0.53-1.84,0.62h-0.38l-0.08-0.37v-6.53h0.75v6.08c0.4-0.09,0.8-0.24,1.16-0.45c0.33-0.2,0.7-0.3,1.1-0.3
			c1.18,0,2.14,0.95,2.14,2.12c0,1.18-0.96,2.13-2.14,2.13c-0.4,0-0.77-0.1-1.1-0.3c-0.35-0.2-0.74-0.35-1.15-0.45
			C52.34,38.75,52.41,44.67,52.4,45.45z"/>
	</g>
</g>
</svg>
