<?xml version="1.0" encoding="utf-8"?>
<!-- Generator: Adobe Illustrator 25.4.1, SVG Export Plug-In . SVG Version: 6.00 Build 0)  -->
<svg version="1.1" id="Layer_1" xmlns="http://www.w3.org/2000/svg" xmlns:xlink="http://www.w3.org/1999/xlink" x="0px" y="0px"
	 viewBox="0 0 38.81 41.81" style="enable-background:new 0 0 38.81 41.81;" xml:space="preserve">
<style type="text/css">
	.st0{fill-rule:evenodd;clip-rule:evenodd;fill:#FF0000;}
</style>
<path class="st0" d="M19.55,3.19c10.15,0,18.38,8.24,18.38,18.38S29.7,39.96,19.55,39.96S1.17,31.72,1.17,21.57
	S9.41,3.19,19.55,3.19z M28.76,14.25L10.91,14.2l8.92,7.08L28.76,14.25z M17.73,23.25l-7.79-6.13v11.64h19.28v-11.4l-7.23,5.91
	C19.53,25.28,20.26,25.24,17.73,23.25z M10.03,11.97h19.23c1.56,0,2.82,1.27,2.82,2.82v13.48c0,1.56-1.27,2.82-2.82,2.82H10.03
	c-1.56,0-2.82-1.27-2.82-2.82V14.79C7.21,13.23,8.49,11.97,10.03,11.97z"/>
</svg>
