<?xml version="1.0" encoding="utf-8"?>
<!-- Generator: Adobe Illustrator 25.4.1, SVG Export Plug-In . SVG Version: 6.00 Build 0)  -->
<svg version="1.1" id="Layer_1" xmlns="http://www.w3.org/2000/svg" xmlns:xlink="http://www.w3.org/1999/xlink" x="0px" y="0px"
	 viewBox="0 0 38.81 41.81" style="enable-background:new 0 0 38.81 41.81;" xml:space="preserve">
<style type="text/css">
	.st0{fill:url(#SVGID_1_);}
	.st1{fill-rule:evenodd;clip-rule:evenodd;fill:#FFFFFF;}
</style>
<g>
	<linearGradient id="SVGID_1_" gradientUnits="userSpaceOnUse" x1="19.4681" y1="36.3139" x2="19.4681" y2="-0.367">
		<stop  offset="0" style="stop-color:#27CD44"/>
		<stop  offset="1" style="stop-color:#5FFB7C"/>
	</linearGradient>
	<circle class="st0" cx="19.47" cy="20.64" r="18.34"/>
	<g>
		<g id="WA_Logo_00000153665862755760529400000017131348578657067444_">
			<g>
				<path class="st1" d="M29.72,24.82c-0.12-0.2-0.44-0.32-0.93-0.57c-0.49-0.24-2.87-1.42-3.32-1.58s-0.77-0.24-1.09,0.24
					c-0.32,0.49-1.25,1.58-1.54,1.9c-0.28,0.32-0.57,0.36-1.05,0.12c-0.49-0.24-2.05-0.76-3.9-2.41c-1.44-1.29-2.42-2.88-2.7-3.36
					c-0.28-0.49-0.03-0.75,0.21-0.99c0.22-0.22,0.49-0.57,0.73-0.85c0.24-0.28,0.32-0.49,0.49-0.81c0.16-0.32,0.08-0.61-0.04-0.85
					c-0.12-0.24-1.09-2.63-1.5-3.6c-0.39-0.95-0.79-0.82-1.09-0.83c-0.28-0.01-0.61-0.02-0.93-0.02c-0.32,0-0.85,0.12-1.29,0.61
					c-0.44,0.49-1.7,1.66-1.7,4.05c0,2.39,1.74,4.69,1.98,5.02c0.24,0.32,3.42,5.22,8.29,7.33c1.16,0.5,2.06,0.8,2.77,1.02
					c1.16,0.37,2.22,0.32,3.06,0.19c0.93-0.14,2.87-1.17,3.28-2.31C29.84,25.99,29.84,25.02,29.72,24.82z"/>
			</g>
		</g>
	</g>
</g>
</svg>
