<?xml version="1.0" encoding="utf-8"?>
<!-- Generator: Adobe Illustrator 25.4.1, SVG Export Plug-In . SVG Version: 6.00 Build 0)  -->
<svg version="1.1" id="Layer_1" xmlns="http://www.w3.org/2000/svg" xmlns:xlink="http://www.w3.org/1999/xlink" x="0px" y="0px"
	 viewBox="0 0 393.86 305.95" style="enable-background:new 0 0 393.86 305.95;" xml:space="preserve">
<style type="text/css">
	.st0{opacity:0.7;}
	.st1{fill:#FFD262;}
	.st2{fill:none;stroke:#1A2E35;stroke-width:0.5582;stroke-linecap:round;stroke-linejoin:round;stroke-miterlimit:10;}
	.st3{fill:#FFFFFF;stroke:#1A2E35;stroke-width:0.5582;stroke-linecap:round;stroke-linejoin:round;stroke-miterlimit:10;}
	.st4{fill:#1A2E35;}
	.st5{fill:#FFFFFF;}
	.st6{fill:#3C89FF;}
	.st7{fill:#E9E9E4;}
	.st8{font-family:'Montserrat-Regular';}
	.st9{font-size:4.5281px;}
	.st10{opacity:0.41;}
	.st11{fill:#A3A3A3;}
	.st12{fill:#E1E1E1;}
	.st13{opacity:0.2;fill:#BCBCBC;}
	.st14{opacity:0.2;}
	.st15{fill:#BCBCBC;}
</style>
<g>
	<g>
		<g class="st0">
			<path class="st1" d="M108.27,85.46c39.11-44.5,106.26-51.92,136.2-37.62c12.51,5.98,23.09,13.3,31.93,21.34
				c1.25,1.13,2.47,2.28,3.64,3.44c3.8,3.74,7.23,7.6,10.34,11.54c3.99,5.04,7.42,10.2,10.35,15.35c4.71,8.28,8.1,16.54,10.34,24.26
				c1.77,6.1,2.82,11.86,3.23,17.03c0.85,10.83,0.11,21.75-1.35,32.51c-0.13,1.03-0.28,2.05-0.44,3.08
				c-0.04,0.28-0.08,0.57-0.12,0.85c-1.6,10.7-4.19,21.33-8.93,30.83c-8.96,17.96-24.9,37.89-45.81,38.63
				c-10.85,0.39-48.7,0.64-58.53-4.37c-15.64-7.97-4.94-16.29-22.19-16.75c-17.25-0.46-32.18,14.01-48.98,9.73
				c-16.81-4.27-35.82-28.07-44.41-44.42c-2.92-5.55-5.14-13.54-5.14-19.94c-0.01-18.87,3.08-35.38,8.46-49.72
				c1.75-4.68,3.75-9.13,5.97-13.36c3.41-6.51,7.34-12.49,11.68-17.96L108.27,85.46z"/>
		</g>
	</g>
	<line class="st2" x1="67.2" y1="246.66" x2="307.24" y2="246.66"/>
	<g>
		<g>
			<g>
				<path class="st3" d="M167.26,173.08l-6.44-0.02l0.26-8.33c0.47-15.36-11.22-27.91-26.05-27.96
					c-14.84-0.05-27.28,12.4-27.76,27.76l-0.26,8.33l-6.46-0.02c-5.03-0.02-9.29,4.24-9.45,9.45l-1.67,54.2
					c-0.16,5.29,3.84,9.58,8.86,9.6l66.71,0.25c5.11,0.02,9.38-4.25,9.54-9.53l1.67-54.2C176.37,177.38,172.37,173.1,167.26,173.08z
					 M119.43,164.57c0.26-8.42,7.08-15.25,15.21-15.22c8.13,0.03,14.53,6.91,14.27,15.33l-0.26,8.08l-29.48-0.11L119.43,164.57z
					 M137.08,219.58l-0.43,13.84c-0.02,0.58-0.51,1.01-1.08,1.01l-6.4-0.02c-0.49,0-0.96-0.43-0.94-1.02l0.43-13.84
					c-4.32-1.77-7.34-6.16-7.18-11.37c0.21-6.69,5.64-12.13,12.13-12.11c6.48,0.02,11.58,5.5,11.37,12.19
					C144.8,213.48,141.51,217.84,137.08,219.58z"/>
			</g>
		</g>
		<g>
			<path class="st4" d="M161.55,173.29c0,0.17-12.99-0.15-27.87-0.16c-14.88-0.01-31.72,0.07-31.72-0.09
				c0-0.17,16.84-0.52,31.72-0.52C148.56,172.52,161.55,173.12,161.55,173.29z"/>
		</g>
	</g>
	<g>
		<g>
			<g>
				<g>
					<path class="st4" d="M224.78,246.59l-54.5-0.25c-6.55-0.03-11.84-5.37-11.82-11.92l0.58-136.62
						c0.03-6.56,5.37-11.85,11.93-11.82l54.5,0.25c6.55,0.03,11.84,5.37,11.82,11.92l-0.58,136.62
						C236.68,241.32,231.34,246.62,224.78,246.59z"/>
				</g>
				<g>
					<path class="st5" d="M225.39,90.93l-10.57-0.05c-1.42-0.01-2.57,1.19-2.58,2.67l-0.01,1.92c-0.01,1.48-1.16,2.68-2.58,2.67
						l-20.6-0.1c-1.42-0.01-2.56-1.21-2.55-2.69l0.01-1.92c0.01-1.48-1.14-2.69-2.55-2.69l-3.72-0.02l-9.25-0.04
						c-4.59-0.02-8.33,3.69-8.35,8.28l-0.56,133.36c-0.02,4.59,3.69,8.33,8.28,8.35l54.39,0.25c4.59,0.02,8.33-3.69,8.35-8.28
						l0.56-133.36C233.69,94.69,229.98,90.96,225.39,90.93z"/>
				</g>
				<g>
					<g>
						<g>
							<g>
								<path class="st6" d="M218.07,223.13l-40.44-0.19c-0.42,0-0.76-0.46-0.75-1.02l0.04-10.58c0-0.56,0.34-1.01,0.76-1.01
									l40.44,0.19c0.42,0,0.76,0.46,0.75,1.02l-0.04,10.58C218.83,222.68,218.49,223.13,218.07,223.13z"/>
							</g>
							<g>
								<text transform="matrix(0.9566 4.419681e-03 -4.230005e-03 1 188.607 218.0123)" class="st7 st8 st9">SING UP</text>
							</g>
						</g>
					</g>
				</g>
			</g>
			<g>
				<g class="st10">
					
						<rect x="171.65" y="130.09" transform="matrix(1 4.615699e-03 -4.615699e-03 1 0.6083 -0.8233)" class="st11" width="14.03" height="2.57"/>
				</g>
				<g>
					<g>
						<path class="st12" d="M226.84,145.92c0-0.01,0.12,0.01,0.32-0.08c0.19-0.07,0.49-0.31,0.53-0.73c0-0.87,0-2.14-0.01-3.76
							c0-0.82,0-1.73,0-2.72c0-0.25,0-0.5,0-0.76c0.01-0.27,0.01-0.51-0.15-0.71c-0.14-0.2-0.39-0.33-0.65-0.33
							c-0.28,0-0.56,0-0.85,0c-2.32,0-4.96-0.01-7.88-0.02c-11.69-0.04-27.82-0.1-45.64-0.17c-0.24,0-0.46,0.11-0.6,0.3
							c-0.15,0.19-0.15,0.42-0.14,0.71c0,0.55,0,1.11-0.01,1.66c0,1.1-0.01,2.19-0.01,3.28c0,0.54,0,1.08-0.01,1.62
							c0.01,0.26-0.03,0.57,0.02,0.77c0.05,0.22,0.22,0.4,0.43,0.49c0.11,0.04,0.21,0.06,0.34,0.06l0.4,0l0.8,0
							c0.53,0,1.06,0.01,1.58,0.01c4.2,0.02,8.26,0.04,12.12,0.06c7.72,0.05,14.67,0.09,20.52,0.12c5.83,0.05,10.56,0.08,13.83,0.11
							c1.62,0.02,2.89,0.03,3.76,0.04c0.42,0.01,0.75,0.01,0.98,0.02C226.72,145.91,226.84,145.92,226.84,145.92
							s-0.11,0.01-0.33,0.01c-0.23,0-0.56,0.01-0.98,0.01c-0.87,0-2.14,0.01-3.76,0.01c-3.28,0-8-0.01-13.83-0.02
							c-5.84-0.02-12.8-0.04-20.52-0.06c-3.86-0.02-7.91-0.03-12.12-0.05c-0.53,0-1.05,0-1.58-0.01l-0.8,0l-0.4,0
							c-0.14,0-0.31-0.02-0.45-0.08c-0.29-0.12-0.51-0.38-0.59-0.68c-0.04-0.15-0.03-0.31-0.03-0.44l0-0.4c0-0.54,0-1.08,0.01-1.62
							c0-1.09,0.01-2.18,0.01-3.28c0-0.55,0-1.1,0.01-1.66c0-0.14-0.01-0.27,0.01-0.44c0.02-0.16,0.09-0.31,0.18-0.44
							c0.19-0.26,0.51-0.42,0.83-0.42c17.82,0.1,33.95,0.19,45.64,0.25c2.92,0.02,5.56,0.04,7.88,0.06c0.29,0,0.57,0,0.85,0.01
							c0.31,0,0.6,0.16,0.76,0.4c0.19,0.24,0.19,0.56,0.17,0.8c0,0.26,0,0.51-0.01,0.76c-0.01,0.99-0.02,1.9-0.02,2.72
							c-0.02,1.63-0.04,2.89-0.05,3.76c-0.05,0.46-0.37,0.69-0.58,0.76C226.96,145.95,226.84,145.92,226.84,145.92z"/>
					</g>
				</g>
				<g>
					
						<rect x="175.42" y="140.02" transform="matrix(1 4.619129e-03 -4.619129e-03 1 0.6543 -0.868)" class="st13" width="25.67" height="2.41"/>
				</g>
				<g class="st10">
					
						<rect x="171.55" y="153.59" transform="matrix(1 4.615683e-03 -4.615683e-03 1 0.7168 -0.8226)" class="st11" width="14.03" height="2.57"/>
				</g>
				<g>
					<g>
						<path class="st12" d="M226.48,169.42c0-0.01,0.11,0,0.32-0.06c0.2-0.06,0.52-0.23,0.69-0.62c0.09-0.19,0.1-0.43,0.09-0.69
							c0-0.27,0-0.55,0-0.87c0-0.63,0-1.35,0-2.16c0-0.81,0-1.72,0-2.71c0-0.25,0-0.5,0-0.76c0.01-0.26-0.02-0.5-0.16-0.72
							c-0.13-0.21-0.34-0.38-0.59-0.46c-0.24-0.08-0.54-0.04-0.82-0.05c-2.31,0-4.95-0.01-7.85-0.02
							c-11.65-0.04-27.72-0.1-45.48-0.17c-0.49-0.01-0.95,0.39-1,0.88c-0.02,0.52-0.01,1.09-0.01,1.63c0,1.1-0.01,2.19-0.01,3.27
							c0,0.54,0,1.08-0.01,1.62c0.01,0.27-0.03,0.55,0.03,0.76c0.06,0.23,0.21,0.43,0.4,0.56c0.2,0.13,0.42,0.18,0.68,0.17l0.79,0
							c0.53,0,1.05,0.01,1.58,0.01c4.19,0.02,8.23,0.04,12.07,0.06c7.69,0.05,14.62,0.09,20.45,0.12
							c5.81,0.05,10.52,0.08,13.78,0.11c1.62,0.02,2.88,0.03,3.75,0.04c0.42,0.01,0.74,0.01,0.97,0.02
							C226.37,169.41,226.48,169.42,226.48,169.42s-0.11,0.01-0.33,0.01c-0.23,0-0.55,0.01-0.97,0.01c-0.87,0-2.13,0.01-3.75,0.01
							c-3.26,0-7.97-0.01-13.78-0.02c-5.82-0.02-12.75-0.04-20.45-0.06c-3.85-0.02-7.89-0.03-12.07-0.05c-0.52,0-1.05,0-1.58-0.01
							l-0.79,0c-0.27,0.01-0.59-0.05-0.84-0.22c-0.25-0.17-0.43-0.43-0.51-0.72c-0.08-0.31-0.03-0.57-0.04-0.84
							c0-0.54,0-1.08,0.01-1.62c0-1.08,0.01-2.17,0.01-3.27c0.01-0.56,0-1.08,0.02-1.67c0.06-0.63,0.65-1.14,1.28-1.13
							c17.75,0.1,33.83,0.19,45.48,0.25c2.91,0.02,5.54,0.04,7.85,0.06c0.29,0.02,0.57-0.03,0.87,0.06
							c0.29,0.09,0.53,0.28,0.67,0.53c0.16,0.24,0.19,0.55,0.17,0.8c0,0.26,0,0.51-0.01,0.76c-0.01,0.99-0.02,1.89-0.02,2.71
							c-0.01,0.81-0.02,1.53-0.02,2.16c0,0.31-0.01,0.6-0.01,0.87c0,0.26-0.01,0.52-0.11,0.72c-0.19,0.41-0.53,0.56-0.74,0.62
							C226.59,169.44,226.48,169.42,226.48,169.42z"/>
					</g>
				</g>
				<g class="st10">
					
						<rect x="171.45" y="178.09" transform="matrix(1 4.596258e-03 -4.596258e-03 1 0.8264 -0.8184)" class="st11" width="14.03" height="2.57"/>
				</g>
				<g>
					<g>
						<path class="st12" d="M226.37,193.92c0-0.01,0.12,0,0.32-0.06c0.2-0.07,0.52-0.23,0.69-0.62c0.09-0.19,0.1-0.43,0.09-0.69
							c0-0.27,0-0.55,0-0.87c0-0.63,0-1.35,0-2.16c0-0.81,0-1.72,0-2.71c0-0.25,0-0.5,0-0.76c0.01-0.26-0.02-0.5-0.16-0.72
							c-0.13-0.21-0.34-0.38-0.59-0.46c-0.24-0.08-0.54-0.04-0.82-0.05c-2.31,0-4.95-0.01-7.85-0.02
							c-11.65-0.04-27.72-0.1-45.48-0.17c-0.49-0.01-0.95,0.39-1,0.88c-0.02,0.52-0.01,1.09-0.01,1.63c0,1.1-0.01,2.19-0.01,3.27
							c0,0.54,0,1.08-0.01,1.62c0.01,0.27-0.03,0.55,0.03,0.76c0.06,0.23,0.21,0.43,0.4,0.56c0.2,0.13,0.42,0.18,0.68,0.17l0.79,0
							c0.53,0,1.05,0.01,1.58,0.01c4.19,0.02,8.23,0.04,12.07,0.06c7.69,0.05,14.62,0.09,20.45,0.13
							c5.81,0.05,10.52,0.08,13.78,0.11c1.62,0.02,2.88,0.03,3.75,0.04c0.42,0.01,0.74,0.01,0.97,0.02
							C226.26,193.91,226.37,193.92,226.37,193.92s-0.11,0.01-0.33,0.01c-0.23,0-0.55,0.01-0.97,0.01c-0.87,0-2.13,0.01-3.75,0.01
							c-3.26,0-7.97-0.01-13.78-0.02c-5.82-0.02-12.75-0.04-20.45-0.06c-3.85-0.02-7.89-0.03-12.07-0.05c-0.52,0-1.05,0-1.58-0.01
							l-0.79,0c-0.27,0.01-0.59-0.05-0.84-0.22c-0.25-0.17-0.43-0.43-0.51-0.72c-0.08-0.31-0.03-0.57-0.04-0.84
							c0-0.54,0-1.08,0.01-1.62c0-1.08,0.01-2.17,0.01-3.27c0.01-0.56,0-1.08,0.02-1.67c0.06-0.63,0.65-1.14,1.28-1.13
							c17.75,0.1,33.83,0.19,45.48,0.25c2.91,0.02,5.54,0.04,7.85,0.06c0.29,0.01,0.57-0.03,0.87,0.06
							c0.28,0.09,0.53,0.28,0.67,0.53c0.16,0.24,0.19,0.55,0.17,0.8c0,0.26,0,0.51-0.01,0.76c-0.01,0.99-0.02,1.89-0.02,2.71
							c-0.01,0.81-0.02,1.54-0.02,2.16c0,0.31-0.01,0.6-0.01,0.87c0,0.26-0.01,0.52-0.11,0.72c-0.19,0.4-0.53,0.56-0.73,0.62
							C226.49,193.94,226.37,193.92,226.37,193.92z"/>
					</g>
				</g>
				<g>
					
						<rect x="175.32" y="163.52" transform="matrix(1 4.619090e-03 -4.619090e-03 1 0.7629 -0.8673)" class="st13" width="25.67" height="2.41"/>
				</g>
				<g class="st14">
					<g>
						<g>
							<path class="st15" d="M177.65,189.47c0,0.66-0.51,1.19-1.13,1.19c-0.62,0-1.12-0.54-1.12-1.2c0-0.66,0.51-1.19,1.13-1.19
								C177.16,188.27,177.66,188.81,177.65,189.47z"/>
						</g>
						<g>
							<path class="st15" d="M181.13,189.49c0,0.66-0.51,1.19-1.13,1.19s-1.12-0.54-1.12-1.2c0-0.66,0.51-1.19,1.13-1.19
								C180.63,188.29,181.13,188.82,181.13,189.49z"/>
						</g>
						<g>
							<path class="st15" d="M184.61,189.5c0,0.66-0.51,1.19-1.13,1.19c-0.62,0-1.12-0.54-1.12-1.2c0-0.66,0.51-1.19,1.13-1.19
								C184.11,188.3,184.61,188.84,184.61,189.5z"/>
						</g>
						<g>
							<path class="st15" d="M188.09,189.52c0,0.66-0.51,1.19-1.13,1.19c-0.62,0-1.12-0.54-1.12-1.2c0-0.66,0.51-1.19,1.13-1.19
								C187.59,188.32,188.09,188.86,188.09,189.52z"/>
						</g>
						<g>
							<path class="st15" d="M191.56,189.53c0,0.66-0.51,1.19-1.13,1.19c-0.62,0-1.12-0.54-1.12-1.2c0-0.66,0.51-1.19,1.13-1.19
								C191.07,188.34,191.57,188.87,191.56,189.53z"/>
						</g>
						<g>
							<path class="st15" d="M195.04,189.55c0,0.66-0.51,1.19-1.13,1.19c-0.62,0-1.12-0.54-1.12-1.2c0-0.66,0.51-1.19,1.13-1.19
								C194.54,188.35,195.04,188.89,195.04,189.55z"/>
						</g>
						<g>
							<path class="st15" d="M198.52,189.57c0,0.66-0.51,1.19-1.13,1.19c-0.62,0-1.12-0.54-1.12-1.2c0-0.66,0.51-1.19,1.13-1.19
								C198.02,188.37,198.52,188.91,198.52,189.57z"/>
						</g>
						<g>
							<path class="st15" d="M201.99,189.58c0,0.66-0.51,1.19-1.13,1.19c-0.62,0-1.12-0.54-1.12-1.2c0-0.66,0.51-1.19,1.13-1.19
								C201.5,188.38,202,188.92,201.99,189.58z"/>
						</g>
						<g>
							<path class="st15" d="M205.47,189.6c0,0.66-0.51,1.19-1.13,1.19c-0.62,0-1.12-0.54-1.12-1.2c0-0.66,0.51-1.19,1.13-1.19
								C204.97,188.4,205.47,188.94,205.47,189.6z"/>
						</g>
					</g>
				</g>
				<g>
					<g>
						<path class="st6" d="M200.53,110.83c0.73-0.31,1.26-1.07,1.26-1.96c0-1.17-0.88-2.12-1.98-2.13c-1.1-0.01-1.99,0.94-1.99,2.11
							c0,0.9,0.52,1.67,1.26,1.98c-3.05,0.46-2.92,3.78-2.92,3.78l7.22,0.03C203.39,114.64,203.56,111.29,200.53,110.83z"/>
					</g>
					<g class="st14">
						
							<rect x="186.51" y="116.75" transform="matrix(1 4.615101e-03 -4.615101e-03 1 0.5481 -0.9189)" class="st15" width="25.75" height="3.08"/>
					</g>
				</g>
			</g>
		</g>
	</g>
</g>
</svg>
