<?xml version="1.0" encoding="utf-8"?>
<!-- Generator: Adobe Illustrator 25.4.1, SVG Export Plug-In . SVG Version: 6.00 Build 0)  -->
<svg version="1.1" id="Layer_1" xmlns="http://www.w3.org/2000/svg" xmlns:xlink="http://www.w3.org/1999/xlink" x="0px" y="0px"
	 viewBox="0 0 199.32 78.83" style="enable-background:new 0 0 199.32 78.83;" xml:space="preserve">
<style type="text/css">
	.st0{fill:#3C89FF;}
	.st1{fill:#FFFFFF;}
</style>
<rect x="6.66" y="6.77" class="st0" width="180" height="60"/>
<g>
	<path class="st1" d="M50.03,27.93c1.1-0.72,2.52-1.22,4.27-1.22c2.81,0,4.75,1.46,4.75,3.96c0,1.99-1.44,3.5-3.34,3.94v0.05
		c2.28,0.24,3.94,1.73,3.94,4.06c0,3.36-2.9,4.7-5.86,4.7c-1.46,0-3-0.31-4.22-1.06l0.55-1.63c0.86,0.5,2.3,0.98,3.62,0.98
		c2.4,0,3.72-1.3,3.72-3.07c0-2.42-2.33-3.12-4.39-3.12h-0.96v-1.58h0.96c2.14,0,3.79-1.32,3.79-2.98c0-1.63-1.15-2.54-2.9-2.54
		c-1.22,0-2.5,0.5-3.36,1.06L50.03,27.93z"/>
	<path class="st1" d="M71.17,27.59c-0.6,0.22-1.66,0.41-2.42,0.53c-1.87,0.29-3.24,0.91-4.13,2.18c-0.74,1.06-1.18,2.62-1.27,3.84
		h0.07c0.74-1.68,2.38-2.62,4.03-2.62c2.86,0,4.94,2.04,4.94,5.74c0,3.79-1.97,6.14-5.38,6.14c-4.08,0-5.42-3.91-5.42-7.78
		c0-2.64,0.55-4.8,1.8-6.43c1.13-1.61,2.74-2.35,4.99-2.74c0.94-0.14,2.09-0.34,2.88-0.62L71.17,27.59z M67.02,33.09
		c-1.25,0-2.14,0.65-2.62,1.58c-0.38,0.7-0.58,1.54-0.58,2.47c0,1.92,0.94,4.68,3.24,4.68c2.33,0,3.19-2.26,3.19-4.39
		C70.26,35.54,69.52,33.09,67.02,33.09z"/>
	<path class="st1" d="M76.24,37.72c0.05,2.86,1.87,4.03,3.98,4.03c1.51,0,2.42-0.26,3.22-0.6l0.36,1.51
		c-0.74,0.34-2.02,0.72-3.86,0.72c-3.58,0-5.71-2.35-5.71-5.86c0-3.5,2.06-6.26,5.45-6.26c3.79,0,4.8,3.34,4.8,5.47
		c0,0.43-0.05,0.77-0.07,0.98H76.24z M82.43,36.21c0.02-1.34-0.55-3.43-2.93-3.43c-2.14,0-3.07,1.97-3.24,3.43H82.43z"/>
	<path class="st1" d="M87.08,35.32c0-1.49-0.05-2.69-0.1-3.79h1.9l0.1,1.99h0.05c0.86-1.42,2.23-2.26,4.13-2.26
		c2.81,0,4.92,2.38,4.92,5.9c0,4.18-2.54,6.24-5.28,6.24c-1.54,0-2.88-0.67-3.58-1.82h-0.05v6.31h-2.09V35.32z M89.17,38.42
		c0,0.31,0.05,0.6,0.1,0.86c0.38,1.46,1.66,2.47,3.17,2.47c2.23,0,3.53-1.82,3.53-4.49c0-2.33-1.22-4.32-3.46-4.32
		c-1.44,0-2.78,1.03-3.19,2.62c-0.07,0.26-0.14,0.58-0.14,0.86V38.42z"/>
	<path class="st1" d="M101.92,37.72c0.05,2.86,1.87,4.03,3.98,4.03c1.51,0,2.42-0.26,3.22-0.6l0.36,1.51
		c-0.74,0.34-2.02,0.72-3.86,0.72c-3.58,0-5.71-2.35-5.71-5.86c0-3.5,2.06-6.26,5.45-6.26c3.79,0,4.8,3.34,4.8,5.47
		c0,0.43-0.05,0.77-0.07,0.98H101.92z M108.11,36.21c0.02-1.34-0.55-3.43-2.93-3.43c-2.14,0-3.07,1.97-3.24,3.43H108.11z"/>
	<path class="st1" d="M119.85,31.53v1.7h-5.04v9.91h-2.09V31.53H119.85z"/>
	<path class="st1" d="M130.33,31.53v1.68h-3.62v9.94h-2.09v-9.94H121v-1.68H130.33z"/>
	<path class="st1" d="M134.12,31.53v4.9c0,1.85-0.02,3-0.12,4.66l0.07,0.02c0.7-1.42,1.1-2.23,1.87-3.58l3.62-6h2.47v11.62h-2.02
		v-4.92c0-1.9,0.05-2.88,0.14-4.75h-0.07c-0.74,1.49-1.25,2.42-1.92,3.6c-1.1,1.8-2.38,4.03-3.62,6.07h-2.42V31.53H134.12z"/>
</g>
</svg>
