<?xml version="1.0" encoding="utf-8"?>
<!-- Generator: Adobe Illustrator 25.4.1, SVG Export Plug-In . SVG Version: 6.00 Build 0)  -->
<svg version="1.1" id="Layer_1" xmlns="http://www.w3.org/2000/svg" xmlns:xlink="http://www.w3.org/1999/xlink" x="0px" y="0px"
	 viewBox="0 0 393.86 305.95" style="enable-background:new 0 0 393.86 305.95;" xml:space="preserve">
<style type="text/css">
	.st0{fill:#ECECEC;}
	.st1{fill:#C8C8C8;}
	.st2{fill:#FFFFFF;}
	.st3{fill:#FFC800;}
	.st4{fill:#3C89FF;}
	.st5{opacity:0.2;}
	.st6{fill:#1A2E35;}
</style>
<g>
	<g>
		<g>
			<rect x="175.44" y="109.12" class="st0" width="96.69" height="71.83"/>
			<path class="st0" d="M273.01,181.84h-98.46v-73.61h98.46V181.84z M176.32,180.07h94.92v-70.06h-94.92V180.07z"/>
		</g>
		<g>
			<path class="st0" d="M68.6,140.27c3.36-3.15,13.05-10.67,11.03-15.65c-0.76-1.84-2.72-3.44-3.72-5.2c-1.16-2.04-2-4.48-3.16-6.6
				c-1-1.76-2.12-3.36-2.8-5.2c3.44-0.48,6.64-1.56,9.4-3.76c4.16-3.32,7.16-6.8,12.56-8.28c3.36-0.92,7.8-1.24,11.12-0.16
				c4.56,1.44,7.4,4.44,12.68,4c5.4-0.44,9.36-3.72,14.88-2.48c3.12,0.72,4.6,2.08,7.92,2.12c2.12,0,4.36,0.16,6.48-0.16
				c4.8-0.8,8.4-0.44,13.28,0.48c4.76,0.88,13.32,4.24,17.52,0.16c3.64-3.6,0.16-9.04,4.04-12.6c3.28-3.04,11.16-2.2,11.64-7.64
				c0-0.08,0-0.2,0.04-0.28c2.36,0.8,5.36,1.36,6.6,0.48c2.36-1.64,0.44-6.72,3.44-8c1.16-0.52,2.6,0.44,3.88,0.48
				c1.84,0,2.68-0.68,4.12-1.56c2.8-1.72,5.72-2.2,9.04-1.88c0.76,0.04,2.95,0.2,3.75,0.44c0,15.36-0.4,30.76-0.4,46.2
				c0,0-5.07-1.16-6.83-2.2c-1.12-0.64-2.4-1-3.68-1c-3.96,0-7.16,3.2-7.16,7.16s3.2,7.16,7.16,7.16c1.28,0,2.56-0.36,3.68-1.04
				c1.92-1.08,4.67-1.84,6.83-2.16v16.28c0,0-21.63,0-29.34,0"/>
			<path class="st0" d="M69.21,140.92l-1.21-1.29c0.47-0.44,1.06-0.96,1.72-1.55c3.71-3.29,10.6-9.4,9.09-13.12
				c-0.37-0.9-1.11-1.78-1.89-2.71c-0.64-0.76-1.3-1.55-1.78-2.39c-0.62-1.1-1.16-2.31-1.68-3.48c-0.47-1.06-0.95-2.15-1.49-3.14
				c-0.26-0.46-0.53-0.91-0.81-1.37c-0.75-1.24-1.52-2.53-2.05-3.95l-0.38-1.03l1.09-0.15c3.66-0.51,6.59-1.68,8.97-3.58
				c0.91-0.73,1.77-1.46,2.61-2.19c3.02-2.6,5.87-5.05,10.27-6.26c3.17-0.87,7.89-1.36,11.63-0.15c1.62,0.51,3.01,1.2,4.36,1.87
				c2.55,1.26,4.75,2.35,7.98,2.09c2.04-0.17,3.92-0.78,5.74-1.37c2.87-0.93,5.85-1.9,9.41-1.1c1.27,0.29,2.25,0.68,3.21,1.04
				c1.42,0.55,2.65,1.03,4.53,1.05c0,0,0,0,0,0c0.52,0,1.06,0.01,1.6,0.02c1.58,0.03,3.21,0.06,4.73-0.17
				c4.91-0.82,8.56-0.46,13.58,0.49c0.95,0.18,2.04,0.45,3.2,0.73c4.68,1.16,10.51,2.6,13.54-0.34c1.53-1.52,1.59-3.5,1.66-5.6
				c0.07-2.33,0.15-4.96,2.4-7.02c1.4-1.3,3.46-1.93,5.45-2.55c3.53-1.09,5.68-1.94,5.91-4.52c0-0.06,0-0.33,0.13-0.59l0.34-0.7
				l0.74,0.25c2.65,0.9,5.03,1.14,5.8,0.6c0.78-0.54,0.92-1.82,1.08-3.18c0.2-1.79,0.45-4.03,2.53-4.91c1-0.45,2.04-0.14,2.96,0.13
				c0.47,0.14,0.92,0.27,1.3,0.28c1.34,0,2.01-0.42,3.13-1.12l0.5-0.31c2.81-1.73,5.86-2.37,9.59-2.01l0,0
				c0.02,0,2.85,0.15,3.92,0.47l0.63,0.19v0.66c0,7.68-0.1,15.49-0.2,23.05c-0.1,7.58-0.2,15.43-0.2,23.15v1.11l-1.08-0.25
				c-0.21-0.05-5.22-1.2-7.08-2.3c-1-0.57-2.12-0.88-3.23-0.88c-3.46,0-6.27,2.81-6.27,6.27c0,3.46,2.81,6.27,6.27,6.27
				c1.12,0,2.24-0.31,3.22-0.91c2.17-1.22,5.12-1.98,7.16-2.28l1.02-0.15v18.19h-30.22v-1.77h28.45v-14.34
				c-1.76,0.35-3.9,0.97-5.51,1.88c-1.23,0.75-2.67,1.15-4.12,1.15c-4.44,0-8.05-3.61-8.05-8.05c0-4.44,3.61-8.05,8.05-8.05
				c1.42,0,2.84,0.39,4.12,1.12c1.09,0.64,3.77,1.4,5.5,1.84c0.01-7.37,0.11-14.83,0.2-22.05c0.1-7.32,0.19-14.88,0.2-22.31
				c-0.83-0.13-2.1-0.23-2.91-0.28c-3.37-0.32-6.06,0.23-8.53,1.75l-0.48,0.3c-1.19,0.75-2.22,1.39-4.1,1.39
				c-0.63-0.02-1.21-0.19-1.77-0.35c-0.68-0.2-1.33-0.39-1.75-0.2c-1.07,0.45-1.27,1.62-1.48,3.49c-0.18,1.61-0.39,3.44-1.82,4.43
				c-1.53,1.08-4.5,0.49-6.39-0.05c-0.74,3.31-4.07,4.34-7.03,5.26c-1.88,0.58-3.66,1.13-4.77,2.16c-1.7,1.56-1.76,3.51-1.83,5.77
				c-0.07,2.24-0.15,4.79-2.19,6.81c-3.74,3.63-10.37,1.99-15.2,0.79c-1.13-0.28-2.2-0.55-3.1-0.71c-4.82-0.91-8.31-1.25-12.97-0.48
				c-1.68,0.25-3.39,0.22-5.04,0.19c-0.53-0.01-1.06-0.02-1.58-0.02c-2.21-0.03-3.64-0.58-5.16-1.17c-0.89-0.35-1.82-0.71-2.96-0.97
				c-3.09-0.69-5.7,0.16-8.47,1.05c-1.91,0.62-3.89,1.26-6.14,1.45c-3.72,0.31-6.36-1-8.91-2.27c-1.29-0.64-2.62-1.3-4.11-1.77
				c-2.78-0.9-6.95-0.84-10.62,0.17c-4.01,1.1-6.59,3.32-9.58,5.89c-0.85,0.73-1.73,1.49-2.66,2.23c-2.38,1.9-5.23,3.13-8.7,3.76
				c0.42,0.89,0.94,1.75,1.48,2.65c0.28,0.47,0.56,0.93,0.83,1.42c0.58,1.07,1.08,2.19,1.56,3.28c0.52,1.18,1.02,2.3,1.6,3.32
				c0.4,0.7,0.98,1.39,1.6,2.13c0.83,0.99,1.69,2.01,2.17,3.17c1.98,4.88-5.24,11.29-9.56,15.12
				C70.24,139.98,69.67,140.49,69.21,140.92z"/>
		</g>
		<g>
			<path class="st0" d="M223.11,68.97c0.94,0.89,2.7,4.35,3.3,5.41c1,1.76,2.64,1.88,3.88,3.24c0.96,1.04,1.12,2.44,1.48,3.76
				c0.6,2.44,1.08,7.52,3.8,8.32c1.36,0.44,3-0.6,4.32-0.68c1.88-0.08,2.92,0.4,4.44,1.36c3.12,1.88,4.8,4.56,6.56,7.64
				c0.88,1.56,2,3.56,3.4,4.72c2.08,1.6,3.12,0.76,5.28,0.44c2.2-0.32,5.4-0.32,7.52,0.24c1.96,0.56,3.2,1.84,5.36,1.6
				c3.92-0.48,4.68-4.88,8.48-5.52c5.16-0.8,7.6,1.8,11.52,4.68c5.28,3.8,9.84,1.44,15.76,1.04c2.72-0.16,5.92-0.72,8.4,0.44
				c2.32,1.12,3.68,2.52,6.16,3.04c4.56,1,13.12,1.76,12.08,8.32c-0.28,1.92-1.2,3.28-1.16,5.32c0.08,4.12,2.64,7.96,3.92,11.76
				c0.32,0.96,0.64,4.44,0.92,5.44c-23.76,0.2-25.28,0.12-47.32-0.08h-26.16c0-3.12,0.8-6.2,2.36-8.92c0.68-1.12,1.04-2.4,1.04-3.72
				c0-3.92-3.2-7.16-7.16-7.16c-3.96,0-7.16,3.24-7.16,7.16c0,1.32,0.36,2.6,1.04,3.72c1.56,2.72,2.36,5.8,2.36,8.92
				c0,0-31.61,0-34.9,0"/>
			<path class="st0" d="M317.81,140.54c-5.95,0-10.81-0.05-18.79-0.12l-7.81-0.07h-27.04v-0.89c0-3.3,0.86-6.53,2.48-9.36
				c0.61-1,0.92-2.13,0.92-3.28c0-3.46-2.81-6.27-6.27-6.27s-6.27,2.81-6.27,6.27c0,1.15,0.32,2.28,0.91,3.26
				c1.63,2.85,2.49,6.08,2.49,9.38v0.89h-35.78v-1.77h33.99c-0.14-2.68-0.9-5.29-2.22-7.59c-0.75-1.24-1.16-2.68-1.16-4.16
				c0-4.44,3.61-8.05,8.05-8.05s8.05,3.61,8.05,8.05c0,1.48-0.4,2.92-1.17,4.18c-1.31,2.29-2.07,4.9-2.21,7.57h25.25l7.82,0.07
				c14.64,0.14,18.76,0.18,38.43,0.02c-0.07-0.44-0.14-0.95-0.22-1.5c-0.14-1.05-0.33-2.35-0.47-2.79c-0.4-1.2-0.94-2.39-1.5-3.66
				c-1.18-2.66-2.41-5.41-2.47-8.36c-0.03-1.35,0.32-2.41,0.65-3.44c0.22-0.67,0.42-1.31,0.52-2.02c0.73-4.59-3.93-5.87-9.63-6.97
				c-0.63-0.12-1.22-0.24-1.76-0.36c-1.74-0.36-2.95-1.11-4.22-1.9c-0.66-0.41-1.35-0.83-2.13-1.21c-1.82-0.85-4.17-0.65-6.45-0.47
				c-0.52,0.04-1.02,0.08-1.51,0.11c-1.48,0.1-2.89,0.33-4.25,0.55c-4.04,0.66-7.86,1.28-12.08-1.76c-0.54-0.4-1.04-0.78-1.53-1.15
				c-3.04-2.32-5.24-4-9.34-3.37c-1.55,0.26-2.51,1.29-3.61,2.47c-1.21,1.3-2.58,2.77-4.9,3.05c-1.66,0.18-2.84-0.38-3.98-0.92
				c-0.57-0.27-1.12-0.53-1.73-0.71c-2.01-0.53-5.12-0.51-7.15-0.22c-0.46,0.07-0.87,0.16-1.24,0.25c-1.42,0.33-2.76,0.63-4.71-0.86
				c-1.54-1.27-2.68-3.3-3.6-4.93c-1.78-3.12-3.36-5.61-6.28-7.37c-1.47-0.93-2.34-1.3-3.94-1.23c-0.38,0.02-0.87,0.18-1.4,0.34
				c-1,0.31-2.13,0.66-3.24,0.3c-2.74-0.81-3.52-4.69-4.08-7.52c-0.11-0.53-0.2-1.02-0.31-1.43c-0.07-0.25-0.13-0.52-0.2-0.79
				c-0.24-0.98-0.46-1.91-1.07-2.58c-0.44-0.48-0.96-0.79-1.51-1.12c-0.84-0.5-1.8-1.07-2.49-2.29c-0.12-0.22-0.3-0.54-0.5-0.92
				c-0.7-1.28-1.99-3.67-2.64-4.28l1.22-1.29c0.79,0.74,1.86,2.66,2.98,4.72c0.2,0.37,0.37,0.68,0.49,0.89
				c0.46,0.81,1.11,1.2,1.86,1.64c0.61,0.36,1.3,0.77,1.91,1.44c0.92,1,1.22,2.25,1.49,3.36c0.06,0.25,0.12,0.51,0.19,0.76
				c0.11,0.46,0.22,0.97,0.33,1.53c0.45,2.26,1.13,5.66,2.87,6.17c0.6,0.19,1.41-0.06,2.19-0.3c0.6-0.19,1.22-0.38,1.83-0.41
				c2.07-0.09,3.29,0.43,4.97,1.5c3.26,1.97,5.04,4.76,6.86,7.95c0.88,1.56,1.94,3.44,3.2,4.48c1.25,0.97,1.91,0.82,3.21,0.52
				c0.42-0.1,0.87-0.2,1.38-0.27c2.14-0.31,5.52-0.36,7.88,0.26c0.78,0.22,1.41,0.52,2.03,0.82c1.04,0.5,1.86,0.89,3.01,0.76
				c1.67-0.2,2.66-1.27,3.8-2.5c1.16-1.24,2.47-2.65,4.63-3.02c4.85-0.75,7.56,1.32,10.7,3.71c0.48,0.37,0.97,0.74,1.5,1.13
				c3.61,2.6,6.76,2.09,10.75,1.44c1.41-0.23,2.86-0.46,4.43-0.57c0.49-0.03,0.98-0.07,1.48-0.11c2.39-0.2,5.1-0.42,7.35,0.63
				c0.88,0.42,1.6,0.87,2.3,1.3c1.19,0.74,2.22,1.37,3.67,1.67c0.54,0.12,1.12,0.23,1.73,0.35c4.82,0.93,12.1,2.34,11.04,8.98
				c-0.12,0.85-0.36,1.59-0.59,2.3c-0.3,0.93-0.58,1.81-0.56,2.87c0.05,2.6,1.2,5.18,2.31,7.68c0.56,1.25,1.13,2.54,1.56,3.82
				c0.2,0.59,0.37,1.81,0.55,3.1c0.13,0.97,0.27,1.97,0.39,2.38l0.31,1.11l-1.16,0.01C328.97,140.51,322.98,140.54,317.81,140.54z"
				/>
		</g>
		<g>
			<path class="st0" d="M220.95,209.51c-0.96-0.47-3.26-2.07-3.91-2.91c-3.43-4.43-5.88-5.04-8.84-6.8c-1,1.44-2.16,2.8-3.88,1.84
				c-1.28-0.76-2-4.68-3.04-6.16c-0.24-0.12-0.52-0.28-0.76-0.48c-0.4,0-0.84,0.4-1.4,1.48c-1.44,2.76-2.24,7.32-1.52,10.36
				c0.56,1.96,2.64,5.24,0.12,6.84c-2.24,1.48-4.55-2-6.28-0.33c-1.98,1.91-0.96,4.17-0.6,6.69c0.48,3.2-1.16,4.44-4.24,5.96
				c-1.8,0.88-4.4,1.72-3.64,4.44c0.4,1.48,2.08,1.96,2.2,3.64c0.08,1.04-0.27,2.89-1.18,3.41c-3.83,2.18-6.82-2.53-11.02-0.09
				c-4.16,2.4-9.31,3.29-10.44-0.24c-0.46-1.43,0.56-2.92,1.08-4.04c1.48-3.16,4.24-5.48,6.12-8.36c1.16-1.88,2.04-3.8,1.96-6.04
				c-0.04-1.52-0.97-3.68-1.12-5.08c-0.27-2.54,0.95-3.32,2.39-3.36c1.6,0,2.54,2.39,4.09,2.15c3.88-0.61,3.83-2.31,5.62-3.01
				c3.12-1.23,4.71,1.87,3.87-1.57c-0.56-2.4-1.08-5-3.24-6.24c-2.08-1.28-4.76-1.24-6.2-3.48c-1.44-2.28,0-5.12-1.72-7.08
				c-1.92-2.16-4.4-1.36-5.6-4.44c-1.56-3.92,0.8-8.28-3.28-10.64c-4.44-2.6-8.6-0.24-13.12-1.04c-4.04-0.68-6.92-4.64-11.16-5.28
				c-2.28-0.32-4,0.64-6.08,1.32c-2.16,0.64-3.96,0.64-6.24,0.68c-3.88,0.04-4.16,2.04-4.4,4.44c-3.72,0-6,2.84-8.84,5.24
				c-3.36,2.84-7.96,5.52-12.2,6.92c-5.48,1.76-7-1.44-11.8-2.52c-3.4-0.8-8.12,0.08-11.8-0.32c-3.4-0.36-7.24-0.16-10.68-0.32
				c-1.4-0.08-3.76-0.4-5.04,0c-0.44,0.12-0.72,0.24-0.96,0.32c-2.32-3.48-4.88-6.6-9.52-7.16c-0.72-0.08-1.4-0.08-2.08-0.04
				c0.08-0.68,0.16-1.32,0.2-1.96c0.28-3.32,1.88-5.64,3.72-8.28c1.04-1.4,2.08-3,2.12-4.64c0.28-0.04,0.6-0.12,0.88-0.16
				c5.04-0.96,1.6-6.36,2.04-10.56c0.56-4.88,3.52-8.96,7.12-12.2c28.12,0.04,54.88-0.44,83.93-0.44h0.16l30-0.04
				c-0.16,2.72-0.88,4.96-2.24,7.28c-0.68,1.12-1.04,2.4-1.04,3.72c0,3.96,3.2,7.16,7.16,7.16s7.16-3.2,7.16-7.16
				c0-1.32-0.36-2.6-1.04-3.72c-1.36-2.32-2.16-5-2.32-7.72c0,0,25.44,0,31.31,0"/>
			<path class="st0" d="M166.28,240.4c-0.77,0-1.51-0.11-2.17-0.37c-1.2-0.46-2.04-1.36-2.44-2.6c-0.49-1.53,0.27-3.01,0.82-4.09
				c0.11-0.21,0.21-0.41,0.3-0.59c0.93-1.99,2.33-3.64,3.67-5.24c0.91-1.08,1.78-2.11,2.51-3.23c0.94-1.52,1.89-3.38,1.82-5.53
				c-0.02-0.74-0.3-1.72-0.57-2.67c-0.24-0.85-0.47-1.65-0.54-2.35c-0.15-1.43,0.11-2.54,0.77-3.3c0.57-0.65,1.43-1.01,2.47-1.04h0
				c1.14,0,1.96,0.74,2.62,1.34c0.59,0.53,1,0.87,1.35,0.82c2.2-0.35,2.94-1.05,3.65-1.72c0.48-0.45,0.97-0.92,1.78-1.24
				c1.44-0.57,2.65-0.36,3.42-0.15c-0.02-0.11-0.05-0.24-0.09-0.39l-0.07-0.32c-0.52-2.25-1.01-4.37-2.75-5.36
				c-0.69-0.43-1.45-0.69-2.25-0.97c-1.49-0.52-3.17-1.11-4.26-2.8c-0.82-1.3-0.86-2.7-0.89-3.94c-0.03-1.21-0.06-2.25-0.75-3.04
				c-0.67-0.75-1.44-1.08-2.26-1.43c-1.25-0.53-2.67-1.14-3.5-3.27c-0.65-1.62-0.68-3.31-0.71-4.8c-0.05-2.33-0.08-4.18-2.19-5.4
				c-2.46-1.44-4.87-1.2-7.42-0.95c-1.73,0.17-3.52,0.35-5.41,0.02c-2.15-0.36-3.97-1.56-5.73-2.71c-1.77-1.16-3.44-2.26-5.41-2.56
				c-1.55-0.22-2.84,0.26-4.33,0.81c-0.44,0.16-0.88,0.33-1.35,0.48c-2.2,0.65-4.04,0.68-6.18,0.72l-0.32,0.01
				c-3.17,0.03-3.31,1.39-3.53,3.64l-0.08,0.8h-0.8c-2.69,0-4.55,1.69-6.7,3.65c-0.51,0.46-1.03,0.93-1.56,1.39
				c-3.6,3.04-8.27,5.69-12.49,7.08c-3.91,1.26-6.05,0.18-8.32-0.95c-1.17-0.58-2.38-1.19-3.96-1.54c-1.82-0.43-4.16-0.34-6.41-0.26
				c-1.79,0.07-3.64,0.14-5.29-0.04c-2.02-0.21-4.25-0.23-6.41-0.24c-1.4-0.01-2.85-0.02-4.21-0.08c-0.3-0.02-0.63-0.04-0.99-0.07
				c-1.22-0.1-2.89-0.23-3.75,0.03c-0.31,0.08-0.51,0.16-0.69,0.22l-0.9,0.31l-0.38-0.56c-2.09-3.14-4.5-6.24-8.89-6.77
				c-0.59-0.07-1.21-0.08-1.92-0.04l-1.06,0.06l0.15-1.27c0.07-0.58,0.14-1.14,0.17-1.69c0.3-3.6,2.04-6.09,3.88-8.73
				c1.01-1.36,1.93-2.78,1.96-4.15l0.02-0.75l0.74-0.11c0.12-0.02,0.26-0.04,0.39-0.07c0.17-0.03,0.33-0.07,0.49-0.09
				c2.29-0.44,2.28-1.79,1.66-5.28c-0.26-1.49-0.54-3.02-0.38-4.5c0.52-4.52,3.01-8.81,7.41-12.77l0.25-0.23l0.34,0
				c14.49,0.02,28.94-0.1,42.91-0.22c13.25-0.11,26.94-0.22,41.01-0.22l31.1-0.04l-0.06,0.94c-0.17,2.81-0.89,5.17-2.36,7.68
				c-0.6,0.99-0.92,2.12-0.92,3.27c0,3.46,2.81,6.27,6.27,6.27s6.27-2.81,6.27-6.27c0-1.15-0.32-2.28-0.91-3.26
				c-1.43-2.45-2.28-5.25-2.45-8.13l-0.06-0.94h32.25v1.77h-30.35c0.26,2.27,0.99,4.46,2.12,6.39c0.76,1.25,1.16,2.69,1.16,4.17
				c0,4.44-3.61,8.05-8.05,8.05c-4.44,0-8.05-3.61-8.05-8.05c0-1.48,0.4-2.92,1.17-4.18c1.14-1.95,1.79-3.82,2.03-5.93l-29.2,0.04
				c-14.06,0-27.75,0.11-41,0.22c-13.86,0.12-28.2,0.24-42.59,0.22c-3.91,3.6-6.13,7.44-6.58,11.42c-0.13,1.22,0.12,2.63,0.36,4
				c0.51,2.9,1.15,6.52-3.12,7.33c-0.08,0.01-0.16,0.03-0.23,0.04c-0.26,1.59-1.21,3.06-2.23,4.42c-1.76,2.52-3.29,4.72-3.55,7.83
				c-0.02,0.32-0.05,0.64-0.09,0.98c0.41,0,0.79,0.03,1.18,0.07c4.85,0.58,7.62,3.82,9.77,6.98c0.11-0.04,0.24-0.07,0.38-0.11
				c1.15-0.36,2.95-0.22,4.39-0.1c0.34,0.03,0.66,0.05,0.94,0.07c1.32,0.06,2.75,0.07,4.13,0.08c2.2,0.01,4.48,0.02,6.59,0.25
				c1.53,0.17,3.31,0.1,5.04,0.04c2.37-0.09,4.83-0.18,6.87,0.3c1.78,0.4,3.15,1.08,4.35,1.69c2.19,1.09,3.76,1.88,6.97,0.85
				c3.95-1.3,8.52-3.89,11.9-6.75c0.52-0.44,1.02-0.9,1.52-1.34c2.04-1.85,4.15-3.77,7.1-4.06c0.26-2.14,0.95-4.44,5.19-4.48
				l0.32-0.01c2.09-0.04,3.74-0.06,5.68-0.64c0.42-0.14,0.84-0.29,1.26-0.45c1.57-0.58,3.19-1.18,5.2-0.9
				c2.37,0.36,4.28,1.62,6.13,2.83c1.68,1.1,3.26,2.15,5.05,2.45c1.65,0.29,3.25,0.13,4.93-0.03c2.72-0.27,5.53-0.55,8.49,1.18
				c2.97,1.72,3.02,4.35,3.07,6.89c0.03,1.4,0.06,2.86,0.59,4.19c0.56,1.45,1.4,1.8,2.55,2.29c0.92,0.39,1.95,0.83,2.89,1.89
				c1.12,1.27,1.16,2.81,1.19,4.16c0.03,1.11,0.06,2.15,0.61,3.03c0.75,1.17,1.95,1.59,3.35,2.08c0.85,0.3,1.74,0.61,2.57,1.12
				c2.38,1.37,3.01,4.09,3.57,6.49l0.07,0.31c0.27,1.11,0.42,1.94-0.13,2.47c-0.51,0.48-1.14,0.29-1.65,0.14
				c-0.64-0.19-1.51-0.45-2.62-0.01c-0.49,0.19-0.81,0.49-1.21,0.88c-0.82,0.78-1.85,1.75-4.6,2.19c-1.21,0.19-2.1-0.61-2.81-1.25
				c-0.5-0.45-0.98-0.88-1.41-0.88c-0.52,0.01-0.93,0.16-1.17,0.44c-0.32,0.36-0.44,1.04-0.34,1.94c0.06,0.55,0.27,1.28,0.49,2.05
				c0.3,1.05,0.61,2.15,0.64,3.1c0.09,2.61-1,4.77-2.09,6.53c-0.8,1.23-1.74,2.34-2.65,3.42c-1.33,1.58-2.59,3.08-3.42,4.85
				c-0.1,0.21-0.21,0.43-0.33,0.66c-0.46,0.89-0.98,1.91-0.71,2.74c0.23,0.73,0.69,1.22,1.39,1.49c1.73,0.67,4.77-0.02,7.76-1.74
				c2.5-1.45,4.64-0.72,6.52-0.07c1.61,0.55,2.99,1.03,4.51,0.16c0.43-0.24,0.81-1.59,0.73-2.57c-0.04-0.58-0.35-0.93-0.89-1.5
				c-0.49-0.51-1.04-1.09-1.28-1.98c-0.88-3.15,1.77-4.38,3.52-5.19c0.2-0.09,0.4-0.18,0.58-0.28c3.1-1.53,4.13-2.52,3.75-5.03
				c-0.07-0.48-0.16-0.95-0.25-1.41c-0.39-1.96-0.83-4.19,1.11-6.06c1.29-1.24,2.8-0.57,3.91-0.08c1.1,0.49,1.81,0.77,2.5,0.31
				c1.31-0.83,0.86-2.3,0.02-4.45c-0.19-0.5-0.38-0.97-0.5-1.41c-0.75-3.14-0.06-7.86,1.59-11.01c0.47-0.91,1.15-1.96,2.19-1.96
				h0.32l0.25,0.21c0.15,0.12,0.35,0.25,0.59,0.37l0.2,0.1l0.13,0.18c0.5,0.71,0.89,1.77,1.3,2.9c0.4,1.08,0.99,2.72,1.47,3.01
				c0.76,0.42,1.39,0.3,2.7-1.58l0.47-0.68l0.71,0.42c0.61,0.36,1.2,0.67,1.77,0.98c2.31,1.23,4.48,2.39,7.31,6.04
				c0.54,0.69,2.73,2.23,3.6,2.66l-0.79,1.59c-0.98-0.49-3.43-2.16-4.21-3.16c-2.6-3.35-4.52-4.37-6.74-5.56
				c-0.38-0.2-0.76-0.4-1.15-0.62c-0.89,1.15-2.44,2.63-4.56,1.45c-1.04-0.62-1.63-2.23-2.25-3.93c-0.32-0.87-0.65-1.77-0.97-2.32
				c-0.08-0.04-0.15-0.09-0.23-0.13c-0.1,0.14-0.29,0.39-0.53,0.86c-1.42,2.73-2.07,7.1-1.44,9.75c0.1,0.33,0.26,0.76,0.44,1.21
				c0.76,1.96,1.92,4.91-0.71,6.58c-1.51,1-3.06,0.32-4.18-0.18c-1.19-0.53-1.59-0.62-1.96-0.26c-1.19,1.14-1.01,2.37-0.6,4.44
				c0.1,0.49,0.19,0.98,0.27,1.49c0.59,3.92-1.79,5.43-4.72,6.88c-0.2,0.1-0.41,0.19-0.62,0.29c-2.06,0.96-2.99,1.58-2.56,3.12
				c0.12,0.46,0.46,0.81,0.85,1.23c0.57,0.6,1.29,1.35,1.38,2.59c0.08,1.03-0.21,3.44-1.62,4.24c-2.21,1.26-4.21,0.58-5.96-0.03
				c-1.74-0.6-3.25-1.12-5.05-0.07C171.34,239.36,168.64,240.4,166.28,240.4z"/>
		</g>
		<g>
			<path class="st0" d="M307.62,211.39c0.6,0.75,0.38,1.43,0.08,2.14c-0.15,0.41-0.34,0.83-0.41,1.28c-0.19,1.01,0.08,2.14,0,3.15
				c-0.22,3.04-3.08,2.18-5.22,3.23c-2.78,1.39-4.43,0.45-7.32,0.26c-3.53-0.23-3.83,2.33-5.29,4.8c-1.73,3.04-4.2,4.13-7.35,5.44
				c-2.93,1.13-2.96,3.94-5.29,5.63c-1.39,0.98-2.29,0.86-3.19,2.33c-0.71,1.2-1.24,2.06-2.66,2.48c-2.63,0.75-5.1-0.41-7.43-1.54
				c-1.05-0.49-1.61-0.68-1.88-2.1c-0.22-1.05,0.15-2.14,0.41-3.08c0.6-1.95,1.24-5.48-0.49-7.09c-1.84-1.73-4.61,0.26-6.72-0.15
				c-2.29-0.45-4.58-3.49-7.35-2.48c-1.09,0.41-1.35,1.2-2.66,0.6c-1.16-0.56-1.28-1.46-1.24-2.78c-0.08-1.46,1.65-2.14,2.59-2.55
				c0.79-0.34,2.14-0.64,2.7-1.28c0.64-0.64,0.64-1.8,1.05-2.55c1.05-1.84,3.34-2.4,5.22-3.19c2.06-0.79,4.69-1.65,4.16-4.39
				c-0.26-1.43-1.58-3-0.07-3.86c0.19-0.11,0.37-0.19,0.64-0.26c1.8-0.56,3.64,1.01,5.25,1.5c1.2,0.34,2.51,0.6,3.79,0.71
				c1.01,0.08,3-0.41,3.9-0.04c1.24,0.53,1.39,2.36,2.33,3.26c1.69,1.54,4.31,1.05,6.23,2.14c1.46,0.86,1.46,1.84,1.99,3.3
				c0.64,1.91,2.18,1.88,4.2,2.1c3.83,0.38,6.98-1.88,9.76-4.09c1.28-1.01,2.21-2.85,3.79-3.49
				C302.55,210.27,306.57,210.12,307.62,211.39z"/>
			<path class="st0" d="M269.23,242.66c-2.1,0-4.06-0.95-5.83-1.81l-0.15-0.07c-0.97-0.45-1.61-0.74-1.89-2.25
				c-0.22-1.01,0.08-2.02,0.33-2.92l0.08-0.29c0.36-1.17,1.39-5.11-0.4-6.79c-1-0.94-2.35-0.64-3.77-0.33
				c-0.94,0.21-1.92,0.43-2.8,0.25c-0.91-0.18-1.77-0.71-2.69-1.28c-1.43-0.88-2.9-1.8-4.51-1.21c-0.3,0.11-0.53,0.26-0.76,0.4
				c-0.55,0.35-1.07,0.67-2.13,0.19c-1.37-0.66-1.45-1.78-1.41-3.06c-0.08-1.57,1.61-2.31,2.62-2.75l0.14-0.06
				c0.23-0.1,0.49-0.19,0.78-0.29c0.69-0.24,1.47-0.51,1.82-0.91c0.34-0.34,0.48-0.87,0.62-1.39c0.1-0.38,0.21-0.78,0.39-1.11
				c0.92-1.61,2.65-2.27,4.33-2.91c0.35-0.13,0.7-0.27,1.03-0.41l0.28-0.11c2.05-0.78,4.16-1.58,3.71-3.95
				c-0.07-0.38-0.22-0.78-0.37-1.17c-0.4-1.06-0.86-2.26,0.44-3.01c0.2-0.12,0.41-0.21,0.7-0.29c1.35-0.42,2.69,0.25,3.88,0.83
				c0.54,0.27,1.05,0.52,1.54,0.67c1.25,0.35,2.55,0.6,3.73,0.7c0.36,0.03,0.87-0.03,1.42-0.08c0.96-0.1,1.95-0.2,2.58,0.06
				c0.83,0.35,1.21,1.17,1.58,1.96c0.25,0.53,0.49,1.03,0.84,1.37c0.88,0.8,2.05,1.01,3.29,1.24c0.98,0.18,1.99,0.36,2.88,0.86
				c1.27,0.75,1.53,1.59,1.86,2.65c0.08,0.25,0.16,0.52,0.26,0.81c0.52,1.55,1.66,1.67,3.39,1.84l0.56,0.06
				c3.69,0.36,6.73-1.79,9.54-4.03c0.47-0.37,0.89-0.86,1.34-1.38c0.73-0.85,1.49-1.73,2.52-2.15c1.42-0.56,5.63-0.81,6.83,0.65l0,0
				c0.75,0.94,0.37,1.84,0.12,2.44l-0.1,0.27c-0.12,0.32-0.24,0.62-0.29,0.94c-0.1,0.55-0.06,1.15-0.02,1.74
				c0.03,0.46,0.06,0.93,0.03,1.38c-0.17,2.3-1.77,2.6-3.31,2.89c-0.7,0.13-1.43,0.27-2.07,0.58c-2.1,1.05-3.61,0.82-5.35,0.55
				c-0.66-0.1-1.34-0.21-2.12-0.26c-2.61-0.18-3.27,1.21-4.2,3.11c-0.25,0.5-0.5,1.02-0.81,1.54c-1.82,3.2-4.45,4.3-7.5,5.57
				c-1.58,0.61-2.27,1.73-3,2.92c-0.58,0.94-1.18,1.91-2.23,2.67c-0.51,0.36-0.95,0.57-1.34,0.76c-0.71,0.35-1.23,0.6-1.77,1.48
				c-0.71,1.2-1.28,2.16-2.84,2.61C270.43,242.58,269.83,242.66,269.23,242.66z M259.64,227.29c0.77,0,1.5,0.19,2.15,0.8
				c2.05,1.92,0.95,6.15,0.57,7.4l-0.08,0.29c-0.24,0.83-0.51,1.77-0.32,2.63c0.22,1.21,0.61,1.39,1.55,1.82l0.16,0.07
				c2.19,1.06,4.66,2.25,7.22,1.52c1.33-0.38,1.81-1.21,2.49-2.34c0.63-1.03,1.27-1.34,2.02-1.7c0.39-0.19,0.79-0.39,1.26-0.71
				c0.95-0.69,1.52-1.61,2.07-2.5c0.75-1.22,1.53-2.49,3.29-3.16c2.94-1.22,5.48-2.28,7.2-5.31c0.3-0.51,0.55-1.02,0.79-1.51
				c0.92-1.87,1.78-3.62,4.78-3.45c0.8,0.05,1.5,0.16,2.17,0.26c1.71,0.26,3.06,0.47,5-0.49c0.72-0.35,1.48-0.5,2.23-0.63
				c1.56-0.29,2.69-0.5,2.82-2.35c0.03-0.41,0-0.84-0.03-1.3c-0.04-0.62-0.08-1.27,0.03-1.88c0.06-0.37,0.19-0.72,0.32-1.05
				l0.1-0.27c0.3-0.7,0.46-1.24-0.03-1.85c-0.93-1.13-4.79-1.01-6.15-0.47c-0.9,0.36-1.61,1.19-2.29,1.98
				c-0.45,0.52-0.91,1.05-1.42,1.46c-2.9,2.31-6.07,4.53-9.97,4.15l-0.56-0.06c-1.75-0.18-3.26-0.33-3.9-2.25
				c-0.1-0.29-0.19-0.57-0.27-0.83c-0.31-1.01-0.52-1.68-1.58-2.31c-0.79-0.45-1.71-0.61-2.68-0.79c-1.27-0.23-2.58-0.46-3.6-1.39
				c-0.44-0.42-0.71-1-0.97-1.55c-0.34-0.72-0.66-1.4-1.27-1.66c-0.48-0.2-1.44-0.1-2.28-0.02c-0.57,0.06-1.11,0.12-1.52,0.08
				c-1.22-0.11-2.55-0.36-3.85-0.72c-0.54-0.16-1.07-0.43-1.64-0.71c-1.14-0.56-2.33-1.15-3.45-0.8c-0.25,0.07-0.42,0.14-0.57,0.23
				c-0.82,0.47-0.62,1.14-0.18,2.28c0.16,0.41,0.32,0.84,0.4,1.27c0.55,2.87-2.02,3.84-4.09,4.62l-0.27,0.1
				c-0.33,0.14-0.68,0.27-1.04,0.41c-1.58,0.61-3.21,1.23-4.02,2.65c-0.15,0.26-0.24,0.61-0.34,0.97c-0.16,0.59-0.32,1.2-0.76,1.64
				c-0.45,0.51-1.3,0.8-2.06,1.07c-0.27,0.09-0.52,0.18-0.73,0.27l-0.14,0.06c-0.92,0.4-2.32,1.01-2.26,2.2
				c-0.04,1.38,0.11,2.06,1.07,2.52c0.76,0.35,1.04,0.17,1.56-0.15c0.24-0.15,0.51-0.32,0.87-0.46c1.88-0.69,3.55,0.35,5.03,1.26
				c0.87,0.54,1.69,1.04,2.49,1.2c0.76,0.15,1.63-0.04,2.55-0.25C258.2,227.46,258.94,227.29,259.64,227.29z"/>
		</g>
		<g>
			<path class="st0" d="M337.79,140.06c-0.08,0.57,0.55,0.69,0.87,1.76c0.91,3.33-1.72,4.44-4.72,5.72
				c-6.48,2.72-16.92,6.44-17.12,15.12c-0.12,2.72,0.84,3.56-0.92,5.96c-0.36,0.52-0.76,1-1.2,1.4c-2.16,2.32-4.84,3.48-7.52,5.36
				c-1.28,0.92-7.04,6.36-8.2,4.44c-5.48-0.36-7.16,5.52-11,7.52c-2.52,1.36-6.36,0.68-8.68,2.48c-1.08,0.84-1,1.76-1.8,2.76
				c-1.04,1.36-0.92,0.68-2.52,1.16c-3.28,0.96-3.56,2.16-5.04,5.04c-1.24,2.44-3.2,3.84-5.96,4.12c-4.32,0.4-9.28-0.96-13.44,0.16
				c-1.6,0.44-2.6,1.36-3.56,2.36c-0.6,0.6-1.16,1.28-1.84,1.84c-1.92,1.52-4.36,1.32-6.88,1.32c-5.2,0-11.52,2.2-16.84,0.96
				c0-3.96,0.16-7.76,0.32-11.56V174.5h0.12c2.4,0.32,4.68,1.08,6.76,2.28c1.12,0.68,2.36,1,3.64,1c3.88,0,7.04-3.16,7.04-7.04
				c0-3.84-3.16-7-7.04-7c-1.28,0-2.52,0.32-3.64,1c-2.08,1.2-4.36,1.96-6.76,2.28h-0.12c0,0,0-23.31,0-26.84"/>
			<path class="st0" d="M225.05,210.81c-1.3,0-2.59-0.11-3.83-0.4l-0.68-0.16v-0.7c0-4,0.16-7.86,0.32-11.6l0-24.33l1.12,0.01
				c2.54,0.34,4.92,1.14,7.09,2.39c0.97,0.59,2.04,0.88,3.2,0.88c3.39,0,6.15-2.76,6.15-6.15c0-3.37-2.76-6.12-6.15-6.12
				c-1.16,0-2.23,0.29-3.18,0.87c-2.18,1.26-4.57,2.06-7.1,2.4l-0.24,0.01h-0.89v-27.72h1.77v25.82c1.98-0.36,3.84-1.04,5.55-2.03
				c1.22-0.74,2.6-1.12,4.08-1.12c4.37,0,7.93,3.54,7.93,7.89c0,4.37-3.56,7.93-7.93,7.93c-1.49,0-2.87-0.38-4.1-1.13
				c-1.69-0.98-3.56-1.66-5.54-2.02v22.46c-0.15,3.52-0.3,7.13-0.32,10.84c2.96,0.51,6.28,0.02,9.49-0.46
				c2.27-0.34,4.41-0.66,6.46-0.66l0.8,0c2.18,0.02,4.06,0.03,5.54-1.13c0.4-0.33,0.77-0.72,1.16-1.14c0.2-0.22,0.4-0.43,0.61-0.63
				c0.98-1.03,2.11-2.08,3.95-2.59c2.58-0.69,5.41-0.49,8.14-0.3c1.92,0.14,3.74,0.27,5.45,0.11c2.41-0.25,4.13-1.44,5.25-3.64
				l0.42-0.83c1.19-2.38,1.85-3.69,5.16-4.66c0.64-0.19,1.06-0.22,1.34-0.25c0.08-0.01,0.19-0.01,0.22-0.02
				c0.02-0.01,0.15-0.1,0.51-0.58c0.27-0.34,0.42-0.66,0.58-1.03c0.27-0.59,0.57-1.27,1.38-1.89c1.46-1.13,3.33-1.39,5.13-1.65
				c1.37-0.19,2.67-0.37,3.67-0.91c1.3-0.68,2.36-1.88,3.48-3.16c1.94-2.21,4.15-4.71,8-4.47l0.46,0.03l0.24,0.4
				c0.4,0.11,1.75-0.42,5.78-3.77c0.5-0.42,0.9-0.75,1.15-0.93c0.91-0.64,1.8-1.19,2.67-1.72c1.72-1.06,3.35-2.05,4.72-3.52
				c0.41-0.38,0.77-0.8,1.12-1.3c1.04-1.41,0.97-2.04,0.85-3.3c-0.06-0.61-0.13-1.3-0.09-2.19c0.2-8.68,9.92-12.7,16.36-15.36
				l1.3-0.54c3.23-1.38,4.88-2.21,4.21-4.67c-0.11-0.35-0.26-0.54-0.42-0.75c-0.22-0.28-0.56-0.7-0.47-1.37l1.76,0.24
				c0.01-0.05-0.01-0.12-0.03-0.15c0.03,0.06,0.08,0.1,0.13,0.17c0.21,0.27,0.54,0.67,0.75,1.37c1.11,4.09-2.24,5.52-5.2,6.78
				l-1.34,0.56c-6.37,2.63-15.09,6.24-15.27,13.78c-0.03,0.79,0.02,1.38,0.08,1.96c0.13,1.38,0.25,2.57-1.17,4.5
				c-0.41,0.59-0.86,1.11-1.32,1.53c-1.48,1.6-3.21,2.66-5.04,3.78c-0.84,0.52-1.72,1.05-2.57,1.65c-0.22,0.16-0.58,0.46-1.04,0.84
				c-2.82,2.35-5.49,4.43-7.23,4.13c-0.33-0.05-0.62-0.19-0.85-0.39c-0.02,0-0.03,0-0.05,0c-2.74,0-4.4,1.89-6.15,3.88
				c-1.18,1.34-2.39,2.73-3.98,3.55c-1.27,0.68-2.79,0.9-4.25,1.1c-1.65,0.23-3.21,0.45-4.29,1.29c-0.46,0.36-0.62,0.72-0.85,1.22
				c-0.19,0.42-0.4,0.89-0.8,1.39c-0.78,1.02-1.18,1.21-1.98,1.28c-0.24,0.02-0.51,0.04-0.97,0.18c-2.58,0.75-2.96,1.51-4.08,3.75
				l-0.43,0.85c-1.39,2.74-3.63,4.29-6.66,4.6c-1.87,0.17-3.84,0.03-5.75-0.11c-2.58-0.19-5.26-0.38-7.55,0.24
				c-1.4,0.38-2.29,1.22-3.15,2.12c-0.2,0.21-0.39,0.41-0.58,0.61c-0.41,0.44-0.84,0.89-1.33,1.3c-1.98,1.57-4.36,1.55-6.66,1.53
				l-0.78,0c-1.92,0-4,0.31-6.2,0.64C229.73,210.46,227.36,210.81,225.05,210.81z"/>
		</g>
	</g>
	<g>
		<g>
			<g>
				<g>
					<path class="st1" d="M281.57,171.34c-0.78,0.49-1.65,0.86-2.6,1.09c-2.45,0.6-4.9,0.14-6.88-1.09
						c-1.94-1.2-3.43-3.13-4.02-5.52c-1.18-4.84,1.78-9.72,6.62-10.9c4.83-1.18,9.71,1.78,10.9,6.62
						C286.54,165.43,284.8,169.35,281.57,171.34z"/>
				</g>
				<g>
					<g>
						<path class="st2" d="M279.58,162.64c0,1.51-1.23,2.74-2.74,2.74c-1.51,0-2.74-1.23-2.74-2.74c0-1.51,1.23-2.74,2.74-2.74
							C278.35,159.9,279.58,161.13,279.58,162.64z"/>
					</g>
					<g>
						<path class="st2" d="M281.57,170.21v1.13c-0.78,0.49-1.65,0.86-2.6,1.09c-2.45,0.6-4.9,0.14-6.88-1.09v-1.13
							c0-2.61,2.12-4.74,4.74-4.74S281.57,167.6,281.57,170.21z"/>
					</g>
				</g>
			</g>
			<g>
				<path class="st3" d="M280.8,150.07c-0.2-1.99-1.57-3.96-3.97-3.96c-2.4,0-3.77,1.98-3.97,3.96c-0.3,3.06,1.76,5.84,3.97,8.37
					C279.04,155.91,281.11,153.13,280.8,150.07z M276.83,152.27c-1.2,0-2.17-0.97-2.17-2.17c0-1.2,0.97-2.17,2.17-2.17
					c1.2,0,2.18,0.97,2.18,2.17C279.01,151.3,278.04,152.27,276.83,152.27z"/>
			</g>
		</g>
		<g>
			<g>
				<g>
					<path class="st1" d="M184.66,161.68c-1.83,1.14-3.86,2.01-6.07,2.54c-5.71,1.4-11.44,0.32-16.08-2.55
						c-4.53-2.8-8.01-7.32-9.38-12.9c-2.75-11.31,4.16-22.7,15.47-25.46c11.3-2.76,22.69,4.16,25.46,15.46
						C196.27,147.87,192.21,157.02,184.66,161.68z"/>
				</g>
				<g>
					<g>
						<circle class="st2" cx="173.59" cy="141.36" r="6.41"/>
					</g>
					<g>
						<path class="st2" d="M184.66,159.04v2.64c-1.83,1.14-3.86,2.01-6.07,2.54c-5.71,1.4-11.44,0.32-16.08-2.55v-2.63
							c0-6.1,4.95-11.07,11.07-11.07C179.71,147.96,184.66,152.94,184.66,159.04z"/>
					</g>
				</g>
			</g>
			<g>
				<path class="st3" d="M182.86,111.98c-0.46-4.64-3.66-9.26-9.28-9.26c-5.61,0-8.81,4.62-9.27,9.26
					c-0.71,7.16,4.12,13.64,9.27,19.56C178.74,125.63,183.57,119.14,182.86,111.98z M173.59,117.13c-2.81,0-5.08-2.27-5.08-5.08
					s2.27-5.08,5.08-5.08c2.81,0,5.09,2.27,5.09,5.08S176.4,117.13,173.59,117.13z"/>
			</g>
		</g>
		<g>
			<g>
				<g>
					<path class="st1" d="M97.17,162.76c-0.78,0.49-1.65,0.86-2.6,1.09c-2.44,0.6-4.9,0.14-6.88-1.09c-1.94-1.2-3.43-3.13-4.02-5.52
						c-1.18-4.84,1.78-9.72,6.62-10.9c4.83-1.18,9.71,1.78,10.9,6.62C102.14,156.85,100.4,160.77,97.17,162.76z"/>
				</g>
				<g>
					<g>
						<path class="st2" d="M95.17,154.07c0,1.51-1.23,2.74-2.74,2.74c-1.51,0-2.74-1.23-2.74-2.74c0-1.51,1.23-2.74,2.74-2.74
							C93.95,151.32,95.17,152.55,95.17,154.07z"/>
					</g>
					<g>
						<path class="st2" d="M97.17,161.63v1.13c-0.78,0.49-1.65,0.86-2.6,1.09c-2.44,0.6-4.9,0.14-6.88-1.09v-1.13
							c0-2.61,2.12-4.74,4.74-4.74C95.05,156.89,97.17,159.02,97.17,161.63z"/>
					</g>
				</g>
			</g>
			<g>
				<path class="st3" d="M96.4,141.49c-0.2-1.98-1.57-3.96-3.97-3.96c-2.4,0-3.77,1.98-3.97,3.96c-0.3,3.06,1.76,5.84,3.97,8.37
					C94.64,147.33,96.71,144.56,96.4,141.49z M92.43,143.7c-1.2,0-2.17-0.97-2.17-2.17s0.97-2.17,2.17-2.17
					c1.2,0,2.18,0.97,2.18,2.17S93.64,143.7,92.43,143.7z"/>
			</g>
		</g>
		<g>
			<g>
				<g>
					<path class="st1" d="M255.35,127.18c-0.78,0.49-1.65,0.86-2.6,1.09c-2.45,0.6-4.9,0.14-6.88-1.09
						c-1.94-1.2-3.43-3.13-4.02-5.52c-1.18-4.84,1.78-9.72,6.62-10.9c4.83-1.18,9.71,1.78,10.9,6.62
						C260.32,121.27,258.58,125.18,255.35,127.18z"/>
				</g>
				<g>
					<g>
						<path class="st2" d="M253.35,118.48c0,1.51-1.23,2.74-2.74,2.74c-1.51,0-2.74-1.23-2.74-2.74c0-1.51,1.23-2.74,2.74-2.74
							C252.13,115.74,253.35,116.97,253.35,118.48z"/>
					</g>
					<g>
						<path class="st2" d="M255.35,126.05v1.13c-0.78,0.49-1.65,0.86-2.6,1.09c-2.45,0.6-4.9,0.14-6.88-1.09v-1.13
							c0-2.61,2.12-4.74,4.74-4.74S255.35,123.44,255.35,126.05z"/>
					</g>
				</g>
			</g>
			<g>
				<path class="st3" d="M254.58,105.91c-0.2-1.98-1.57-3.96-3.97-3.96c-2.4,0-3.77,1.98-3.97,3.96c-0.3,3.06,1.76,5.84,3.97,8.37
					C252.82,111.75,254.89,108.97,254.58,105.91z M250.61,108.11c-1.2,0-2.17-0.97-2.17-2.17s0.97-2.17,2.17-2.17
					c1.2,0,2.18,0.97,2.18,2.17S251.82,108.11,250.61,108.11z"/>
			</g>
		</g>
	</g>
	<g>
		<g>
			
				<rect x="211.23" y="171.45" transform="matrix(0.8002 -0.5997 0.5997 0.8002 -72.6654 168.9326)" class="st4" width="12.02" height="44.18"/>
		</g>
		<g>
			<path class="st4" d="M257.41,238.54l-8.25,6.18c-1.74,1.3-4.21,0.95-5.51-0.79l-24.66-32.91c-1.3-1.74-0.95-4.21,0.79-5.51
				l8.25-6.18c1.74-1.3,4.21-0.95,5.51,0.79l24.66,32.91C259.5,234.77,259.15,237.24,257.41,238.54z"/>
		</g>
		<g class="st5">
			<g>
				<path class="st2" d="M211.02,105.7c16.06,21.44,11.71,51.85-9.73,67.92c-21.44,16.06-51.85,11.71-67.92-9.73
					c-16.07-21.45-11.71-51.86,9.73-67.93C164.54,79.89,194.95,84.25,211.02,105.7z"/>
			</g>
			<g>
				<g>
					<path class="st0" d="M217.62,117.73c7.4,19.67,1.34,42.65-16.34,55.88c-3.65,2.74-7.56,4.88-11.63,6.45L217.62,117.73z"/>
				</g>
				<g>
					<path class="st0" d="M179.63,86.85l-38.31,85.37c-2.92-2.4-5.58-5.19-7.95-8.34c-2.72-3.62-4.85-7.5-6.4-11.53l28.28-63.04
						C163.13,86.37,171.53,85.59,179.63,86.85z"/>
				</g>
				<g>
					<path class="st0" d="M207.92,101.98l-36.49,81.32c-3.18-0.05-6.35-0.42-9.46-1.09l38.85-86.59
						C203.37,97.46,205.74,99.58,207.92,101.98z"/>
				</g>
				<g>
					<path class="st0" d="M186.1,88.32l-39.38,87.77c-0.5-0.31-1-0.62-1.49-0.95l39.17-87.3C184.97,87.98,185.54,88.13,186.1,88.32z
						"/>
				</g>
				<g>
					<path class="st0" d="M141.18,97.47l-17.48,38.96c-0.05-1.45-0.03-2.91,0.05-4.36l14.22-31.68
						C138.98,99.37,140.05,98.4,141.18,97.47z"/>
				</g>
			</g>
		</g>
		<g>
			<path class="st6" d="M173.22,189.57c-30.21,0-54.79-24.58-54.79-54.79c0-30.21,24.58-54.79,54.79-54.79
				c30.21,0,54.79,24.58,54.79,54.79C228,164.99,203.42,189.57,173.22,189.57z M173.22,86.28c-26.75,0-48.51,21.76-48.51,48.51
				c0,26.75,21.76,48.51,48.51,48.51c26.75,0,48.51-21.76,48.51-48.51C221.72,108.04,199.96,86.28,173.22,86.28z"/>
		</g>
	</g>
</g>
</svg>
