<?xml version="1.0" encoding="utf-8"?>
<!-- Generator: Adobe Illustrator 25.4.1, SVG Export Plug-In . SVG Version: 6.00 Build 0)  -->
<svg version="1.1" id="Layer_1" xmlns="http://www.w3.org/2000/svg" xmlns:xlink="http://www.w3.org/1999/xlink" x="0px" y="0px"
	 viewBox="0 0 199.32 78.83" style="enable-background:new 0 0 199.32 78.83;" xml:space="preserve">
<style type="text/css">
	.st0{fill:#3C89FF;}
	.st1{fill:#FFFFFF;}
</style>
<rect x="27.68" y="20.72" class="st0" width="150" height="40"/>
<g>
	<path class="st1" d="M63.83,40.8v4.01h-2.34V33.43h4.44c0.85,0,1.61,0.16,2.25,0.47s1.15,0.76,1.5,1.33
		c0.35,0.58,0.52,1.23,0.52,1.96c0,1.11-0.38,1.99-1.14,2.64c-0.76,0.64-1.82,0.96-3.17,0.96H63.83z M63.83,38.9h2.09
		c0.62,0,1.09-0.15,1.42-0.44c0.33-0.29,0.49-0.71,0.49-1.25c0-0.56-0.16-1.01-0.49-1.35s-0.78-0.52-1.36-0.53h-2.15V38.9z"/>
	<path class="st1" d="M75.43,44.97c-1.24,0-2.25-0.38-3.03-1.14c-0.78-0.76-1.17-1.77-1.17-3.04v-0.22c0-0.85,0.16-1.61,0.49-2.28
		s0.79-1.18,1.39-1.55s1.29-0.54,2.06-0.54c1.16,0,2.07,0.36,2.73,1.09s1,1.76,1,3.1v0.92h-5.38c0.07,0.55,0.29,1,0.66,1.33
		s0.83,0.5,1.39,0.5c0.87,0,1.55-0.32,2.04-0.95l1.11,1.24c-0.34,0.48-0.8,0.85-1.38,1.12S76.14,44.97,75.43,44.97z M75.17,38.02
		c-0.45,0-0.81,0.15-1.09,0.46c-0.28,0.3-0.46,0.74-0.54,1.3h3.14V39.6c-0.01-0.5-0.15-0.89-0.41-1.17
		C76.02,38.16,75.65,38.02,75.17,38.02z"/>
	<path class="st1" d="M83.69,43.14c0.42,0,0.75-0.11,1.02-0.34c0.26-0.23,0.4-0.53,0.41-0.91h2.12c-0.01,0.58-0.16,1.1-0.47,1.58
		c-0.31,0.47-0.73,0.84-1.27,1.11c-0.53,0.26-1.12,0.39-1.77,0.39c-1.2,0-2.15-0.38-2.85-1.15s-1.05-1.83-1.05-3.18v-0.16
		c0-1.3,0.35-2.34,1.04-3.12c0.69-0.78,1.65-1.16,2.86-1.16c1.05,0,1.9,0.3,2.54,0.9s0.97,1.4,0.98,2.4h-2.12
		c-0.01-0.45-0.15-0.81-0.41-1.08c-0.26-0.27-0.6-0.4-1.02-0.4c-0.98,0-1.51,0.66-1.59,1.97h2.38v1.38h-2.37
		c0.06,0.61,0.22,1.06,0.48,1.34S83.22,43.14,83.69,43.14z"/>
	<path class="st1" d="M92.03,43.14c0.42,0,0.75-0.11,1.02-0.34c0.26-0.23,0.4-0.53,0.41-0.91h2.12c-0.01,0.57-0.16,1.1-0.47,1.57
		c-0.31,0.48-0.73,0.85-1.26,1.11c-0.53,0.26-1.12,0.39-1.77,0.39c-1.21,0-2.16-0.38-2.86-1.15c-0.7-0.77-1.05-1.83-1.05-3.18v-0.15
		c0-1.3,0.35-2.34,1.04-3.12c0.69-0.78,1.64-1.16,2.85-1.16c1.06,0,1.9,0.3,2.54,0.9c0.64,0.6,0.96,1.4,0.97,2.4h-2.12
		c-0.01-0.44-0.15-0.79-0.41-1.07c-0.26-0.27-0.6-0.41-1.03-0.41c-0.53,0-0.92,0.19-1.19,0.58c-0.27,0.38-0.4,1-0.4,1.87v0.23
		c0,0.87,0.13,1.5,0.4,1.88S91.48,43.14,92.03,43.14z"/>
	<path class="st1" d="M103.87,38.18h-2.71v6.63h-2.27v-6.63h-2.66v-1.82h7.64V38.18z"/>
	<path class="st1" d="M112.61,40.66c0,1.3-0.3,2.34-0.89,3.13c-0.59,0.78-1.39,1.18-2.39,1.18c-0.85,0-1.54-0.3-2.07-0.89v3.98H105
		v-11.7h2.09l0.08,0.83c0.55-0.66,1.26-0.98,2.14-0.98c1.04,0,1.85,0.39,2.43,1.16s0.87,1.83,0.87,3.19V40.66z M110.35,40.5
		c0-0.79-0.14-1.39-0.42-1.82c-0.28-0.43-0.68-0.64-1.21-0.64c-0.71,0-1.2,0.27-1.46,0.81v3.46c0.28,0.56,0.77,0.84,1.48,0.84
		C109.81,43.14,110.35,42.26,110.35,40.5z"/>
	<path class="st1" d="M118.91,44.81c-0.1-0.2-0.18-0.46-0.23-0.76c-0.55,0.61-1.26,0.91-2.13,0.91c-0.83,0-1.51-0.24-2.06-0.72
		c-0.54-0.48-0.82-1.08-0.82-1.81c0-0.9,0.33-1.58,1-2.06s1.62-0.72,2.88-0.73h1.04v-0.48c0-0.39-0.1-0.7-0.3-0.94
		c-0.2-0.23-0.52-0.35-0.95-0.35c-0.38,0-0.68,0.09-0.89,0.27c-0.22,0.18-0.32,0.43-0.32,0.75h-2.26c0-0.49,0.15-0.94,0.45-1.36
		c0.3-0.42,0.73-0.74,1.28-0.98c0.55-0.24,1.17-0.36,1.86-0.36c1.04,0,1.87,0.26,2.48,0.79c0.61,0.52,0.92,1.26,0.92,2.21v3.66
		c0,0.8,0.12,1.41,0.34,1.82v0.13H118.91z M117.04,43.24c0.33,0,0.64-0.07,0.92-0.22s0.49-0.35,0.62-0.6v-1.45h-0.84
		c-1.13,0-1.73,0.39-1.8,1.17l-0.01,0.13c0,0.28,0.1,0.51,0.3,0.7C116.43,43.15,116.7,43.24,117.04,43.24z"/>
	<path class="st1" d="M122.59,36.36h2.26v6.63h2.83v-6.63h2.27V43h1.27l-0.16,4.31h-2.1v-2.51h-6.36V36.36z"/>
	<path class="st1" d="M132.32,34.17c0-0.34,0.11-0.62,0.34-0.84S133.2,33,133.59,33c0.38,0,0.69,0.11,0.92,0.33
		c0.23,0.22,0.34,0.5,0.34,0.84c0,0.34-0.12,0.62-0.35,0.84c-0.23,0.22-0.54,0.33-0.92,0.33c-0.38,0-0.69-0.11-0.92-0.33
		C132.44,34.79,132.32,34.51,132.32,34.17z M134.72,44.81h-2.27v-8.45h2.27V44.81z"/>
	<path class="st1" d="M143.63,36.36v8.45h-2.25v-2.92h-1.43l-1.62,2.92h-2.29l1.84-3.3c-0.51-0.23-0.89-0.55-1.17-0.95
		s-0.41-0.86-0.41-1.37c0-0.82,0.32-1.49,0.95-2.01s1.48-0.8,2.54-0.82H143.63z M139.83,40.31h1.55v-2.13h-1.47
		c-0.4,0-0.73,0.11-0.98,0.32s-0.38,0.47-0.38,0.77s0.12,0.55,0.36,0.75C139.16,40.2,139.46,40.3,139.83,40.31z"/>
</g>
</svg>
