<?xml version="1.0" encoding="utf-8"?>
<!-- Generator: Adobe Illustrator 25.4.1, SVG Export Plug-In . SVG Version: 6.00 Build 0)  -->
<svg version="1.1" id="Layer_1" xmlns="http://www.w3.org/2000/svg" xmlns:xlink="http://www.w3.org/1999/xlink" x="0px" y="0px"
	 viewBox="0 0 276.68 222.06" style="enable-background:new 0 0 276.68 222.06;" xml:space="preserve">
<style type="text/css">
	.st0{fill:#3C89FF;}
	.st1{fill:#F7A27E;}
	.st2{fill:#E44C37;}
	.st3{fill:#A65137;}
	.st4{fill:#142736;}
	.st5{fill:#FFFFFF;}
	.st6{fill:#FFD262;}
	.st7{fill:#D1E2FF;}
	.st8{fill:#245BB3;}
	.st9{fill:#85B2FF;}
	.st10{fill:#42BD83;}
	.st11{clip-path:url(#SVGID_00000116948625926205354730000017232358966395305613_);}
	.st12{fill:#AB3535;}
	.st13{fill:#FFE0AB;}
	.st14{fill:#FFAB8C;}
	.st15{fill:#331338;}
	.st16{fill:#FDFCFA;}
</style>
<g>
	<path class="st0" d="M248.84,147.43c-4.28-1.9-8.77-3.4-12.85-4.98c-3.2-1.24-12.52-4.24-10.37-9.42c0.41-0.98,1.2-1.74,2-2.43
		c5.07-4.32,30.12-10.53,27.68-19.88c-0.93-3.57-7.94-5.09-17.68-4.4c1.97-1.74,2.92-3.42,2.55-4.86c-1.09-4.2-13.1-4.7-26.83-1.13
		c-1.92,0.5-3.77,1.06-5.53,1.65c-7.65,1.45-16.43,1.83-16.74-4c-0.48-9.09,35.4-22.94,44.83-26.44c0.76-0.27,1.5-0.54,2.23-0.81
		c0,0,0.01,0,0.02-0.01c15.76-5.95,24.52-13.28,23.37-21.88c-2.64-20.08-61.21-30.79-129.64-18.34
		C57.78,44.01,9.47,62.89,12.63,81.75c0.92,5.47,10.05,6.67,14.25,7.37c7,1.16,14.11,1.32,21.19,1.49
		c6.18,0.15,14.99-0.87,20.51,2.47c11.68,7.07-6.46,17.03-12.3,20.03c-8.8,4.53-28.49,12.93-25.15,25.75
		c1.43,5.49,8.29,9,18.17,10.22c0,0,0.02,0,0.03,0c0.6,0.07,1.21,0.14,1.84,0.2c4.62,0.61,16.2,2.9,16.06,10.63
		c-0.2,10.53-11.41,15.56-16.66,23.15c-0.59,0.86-1.16,1.79-1.25,2.82c-0.78,8.74,25.84,5.18,30.14,4.47
		c41.34-6.78,50-18.12,148.16-16.04c16.11,0.34,26.5,2.78,34.5-5.14c3.94-3.9,2.84-9.15-0.47-13
		C258.29,152.27,253.71,149.59,248.84,147.43z"/>
	<path class="st1" d="M106.54,165.34l4.13,0.84l10.25-3.92c7.92-8.17,2.53-32.32,0-43.91l-7.6-40.04
		c-1.14-7.06-3.03-13.06-9.59-15.92l0,0c-1.41,0-2.47,1.28-2.21,2.66c1.35,7.09,1.73,30.76-3.12,60.01
		c-0.81,4.91,0.96,10.62,3.15,16.11C104.53,148.63,107.28,157.35,106.54,165.34z"/>
	<path class="st2" d="M101.1,67.54c0.2,3.29,1.12,4.45,1.12,4.45c1.08,0,1.9-1.97,1.63-4.72s-1.11-4.92-1.87-4.85
		C101.22,62.49,100.93,64.78,101.1,67.54z"/>
	<g>
		<path class="st3" d="M101.94,94.32c-0.11,0-0.21-0.07-0.24-0.18c-0.04-0.13,0.04-0.27,0.17-0.31c2.18-0.64,4.82-0.98,4.85-0.98
			c0.14-0.01,0.26,0.08,0.28,0.21c0.02,0.14-0.08,0.26-0.21,0.28c-0.03,0-2.64,0.34-4.77,0.97
			C101.98,94.32,101.96,94.32,101.94,94.32z"/>
	</g>
	<g>
		<path class="st3" d="M101.74,97.27c-0.12,0-0.23-0.09-0.24-0.21c-0.02-0.14,0.07-0.26,0.21-0.28c2.48-0.4,5.02-0.47,5.04-0.48
			c0.13-0.01,0.25,0.1,0.25,0.24c0,0.14-0.1,0.25-0.24,0.25c-0.02,0-2.53,0.07-4.98,0.47C101.77,97.27,101.75,97.27,101.74,97.27z"
			/>
	</g>
	<g>
		<path class="st3" d="M123.79,162.07c-0.02,0-0.03,0-0.05,0c-0.13-0.03-0.22-0.16-0.2-0.29c0.03-0.15,2.75-14.79-0.05-28.98
			c-0.03-0.13,0.06-0.26,0.2-0.29c0.13-0.03,0.26,0.06,0.29,0.2c2.81,14.28,0.07,29.02,0.05,29.17
			C124.01,161.99,123.91,162.07,123.79,162.07z"/>
	</g>
	<path class="st2" d="M175.5,70.07c-3.03,1.34-4.38,1.52-2.28,5.48c0.79,1.49,2.77,1.2,5.2-0.12c2.43-1.32,3.75-3.6,2.94-5.08
		S178.03,68.95,175.5,70.07z"/>
	<path class="st1" d="M155.61,77.04l4.47,10.74l16.29-7.88c3.28-1.59,4.73-5.22,3.48-8.22v0c-0.64-1.53-2.44-2.31-4.09-1.73
		L155.61,77.04z"/>
	<polygon class="st1" points="159.29,100.43 165.1,107.84 176.51,98.97 172.46,90.1 	"/>
	<polygon class="st1" points="174.69,138.54 165.61,149.04 160.23,143.5 168.78,134.14 	"/>
	<polygon class="st1" points="177.7,122.11 165.82,131.76 161.04,124.7 172.14,116.19 	"/>
	<path class="st1" d="M164.06,114.89l-2.67,31.9c-1.83,5.68-5.92,10.1-11.01,12.49c-0.29,0.13-0.58,0.26-0.87,0.38
		c-4.06,1.68-6.92,5.41-7.43,9.77c0,0.02-0.01,0.04-0.01,0.06l-1.04,9.21l-2.16,19.2l-1.31,11.66c-2.32-2.99-9.96-6.29-19.38-8.11
		c-0.44-0.09-0.88-0.17-1.31-0.24c-4.82-0.85-9.3-1.15-12.88-0.94c-3.35,0.18-5.92,0.8-7.26,1.81l0.84-3.15l6.24-23.38l4.18-15.67
		c0.54-2.03,1.01-4.09,1.4-6.17l8.94-47.6L164.06,114.89z"/>
	<g>
		<path class="st3" d="M126.96,151.63c-0.03,0-0.06,0-0.09-0.01c-0.13-0.05-0.19-0.19-0.15-0.32c0.08-0.22,8.37-22.55,22.3-34.98
			c0.1-0.09,0.26-0.08,0.35,0.02c0.09,0.1,0.08,0.26-0.02,0.35c-13.84,12.35-22.09,34.56-22.17,34.78
			C127.15,151.57,127.06,151.63,126.96,151.63z"/>
	</g>
	<g>
		<path class="st4" d="M119.55,146.07h46.84c2.04,0,3.7-1.65,3.7-3.7v-96.6c0-2.04-1.65-3.7-3.7-3.7h-46.84
			c-2.04,0-3.7,1.65-3.7,3.7v96.6C115.86,144.41,117.51,146.07,119.55,146.07z"/>
		<path class="st5" d="M122.11,143.07h41.73c1.87,0,3.39-1.52,3.39-3.39V48.46c0-1.87-1.52-3.39-3.39-3.39h-41.73
			c-1.87,0-3.39,1.52-3.39,3.39v91.22C118.71,141.55,120.23,143.07,122.11,143.07z"/>
		<path class="st4" d="M115.66,66.64h0.28c0.27,0,0.5-0.22,0.5-0.5V58.8c0-0.27-0.22-0.5-0.5-0.5h-0.28c-0.27,0-0.5,0.22-0.5,0.5
			v7.34C115.17,66.41,115.39,66.64,115.66,66.64z"/>
		<path class="st4" d="M115.66,75.53h0.28c0.27,0,0.5-0.22,0.5-0.5v-7.34c0-0.27-0.22-0.5-0.5-0.5h-0.28c-0.27,0-0.5,0.22-0.5,0.5
			v7.34C115.17,75.3,115.39,75.53,115.66,75.53z"/>
		<path class="st4" d="M169.95,66.3h0.28c0.27,0,0.5-0.22,0.5-0.5v-6.66c0-0.27-0.22-0.5-0.5-0.5h-0.28c-0.27,0-0.5,0.22-0.5,0.5
			v6.66C169.45,66.07,169.67,66.3,169.95,66.3z"/>
		<g>
			<path class="st5" d="M138.89,43.85h3.04c0.12,0,0.22-0.1,0.22-0.22V43.5c0-0.12-0.1-0.22-0.22-0.22h-3.04
				c-0.12,0-0.22,0.1-0.22,0.22v0.13C138.67,43.75,138.77,43.85,138.89,43.85z"/>
			<path class="st5" d="M144.84,43.57c0,0.51,0.41,0.92,0.92,0.92c0.51,0,0.92-0.41,0.92-0.92c0-0.51-0.41-0.92-0.92-0.92
				C145.25,42.64,144.84,43.06,144.84,43.57z"/>
			<path class="st5" d="M142.88,43.57c0,0.36,0.29,0.65,0.65,0.65c0.36,0,0.65-0.29,0.65-0.65s-0.29-0.65-0.65-0.65
				C143.17,42.91,142.88,43.21,142.88,43.57z"/>
		</g>
	</g>
	<path class="st1" d="M160.72,130.54L160.72,130.54c0.48-1.33,1.9-2.04,3.29-1.59l8.87,3.81c2.59,1.11,3.46,4.23,1.59,5.92
		l-2.67,2.4l-8.43-4.27C161.02,135.63,159.89,132.86,160.72,130.54z"/>
	<path class="st1" d="M164.06,107.49c0.85-1.48,3.03-2.45,5.31-0.41l6.93,6.73c2.31,2.27,4.67,5.47,1.81,8.08l-4.05,3.17l-8.17-9.31
		C162.3,111.03,164.06,107.49,164.06,107.49z"/>
	<path class="st1" d="M173.26,101.45l2.28-1.65c3.64-2.64,4.47-7.73,1.85-11.38l-5.86-8.17c-0.95-1.65-3.23-1.89-4.51-0.49
		L167,79.76c-2.33,2.55-2.74,6.32-1.01,9.31L173.26,101.45z"/>
	<path class="st2" d="M166.16,130.04c2.76,1.36,3.96,1.67,2.5,4.32c-0.55,1-2.3,0.54-4.54-0.74c-2.24-1.28-3.6-3.11-3.04-4.1
		S163.85,128.9,166.16,130.04z"/>
	<path class="st2" d="M170.15,107.73c2.06,2.29,3.08,3.01,0.58,5.04c-0.94,0.77-2.42-0.3-4.02-2.32c-1.6-2.02-2.13-4.27-1.18-5.03
		C166.48,104.67,168.43,105.81,170.15,107.73z"/>
	<path class="st2" d="M172.63,81.54c1.82,2.76,2.78,3.68-0.15,5.42c-1.1,0.65-2.5-0.71-3.87-3.11c-1.38-2.4-1.59-4.86-0.48-5.5
		C169.23,77.71,171.1,79.23,172.63,81.54z"/>
	<g>
		<path class="st4" d="M94.57,210.17l1.4-5.27c-0.23-0.49-0.32-0.95-0.23-1.4c0.1-0.54,0.44-1.01,0.99-1.42
			c0.17-0.13,0.36-0.25,0.57-0.37c0.1-0.06,0.2-0.11,0.31-0.16c0.22-0.11,0.46-0.21,0.72-0.3c0.13-0.05,0.26-0.1,0.4-0.14
			c0.34-0.11,0.7-0.21,1.1-0.3c0.19-0.05,0.39-0.09,0.59-0.13c0.8-0.16,1.7-0.28,2.67-0.35c0.29-0.03,0.59-0.05,0.9-0.06
			c0.07,0,0.14-0.01,0.22-0.01c0.09,0,0.19-0.01,0.28-0.01c0.39-0.02,0.78-0.03,1.19-0.03c0.41-0.01,0.83-0.01,1.26,0
			c0.2,0.01,0.41,0.01,0.61,0.02c0.28,0.01,0.57,0.02,0.86,0.03c0.18,0.01,0.35,0.02,0.54,0.03c0.24,0.01,0.48,0.03,0.72,0.04
			c0.48,0.04,0.96,0.07,1.45,0.12c1.98,0.18,4.08,0.46,6.24,0.86c0.27,0.05,0.54,0.1,0.82,0.15c0.59,0.11,1.17,0.23,1.74,0.36
			c1.43,0.31,2.82,0.65,4.14,1.03c0.53,0.15,1.05,0.3,1.56,0.46c5.85,1.8,10.27,4.12,11.93,6.26c0.16,0.21,0.29,0.41,0.4,0.61H94.57
			z"/>
	</g>
	<g>
		<path class="st3" d="M172.82,123.89c-0.07,0-0.14-0.03-0.19-0.08l-5.31-6.06c-0.09-0.1-0.08-0.26,0.02-0.35
			c0.1-0.09,0.26-0.08,0.35,0.02l5.31,6.06c0.09,0.1,0.08,0.26-0.02,0.35C172.93,123.87,172.87,123.89,172.82,123.89z"/>
	</g>
	<g>
		<path class="st3" d="M173.24,98.21c-0.09,0-0.18-0.05-0.22-0.14c-0.04-0.05-0.22-0.14-0.38-0.22c-0.82-0.42-2.54-1.29-4.41-4.47
			c-0.07-0.12-0.03-0.27,0.09-0.34c0.12-0.07,0.27-0.03,0.34,0.09c1.79,3.06,3.42,3.88,4.2,4.28c0.33,0.17,0.52,0.27,0.61,0.46
			c0.05,0.13,0,0.27-0.13,0.33C173.31,98.2,173.27,98.21,173.24,98.21z"/>
	</g>
	<path class="st4" d="M142.08,169.43c0.51-4.36,3.36-8.09,7.43-9.77c0.29-0.12,0.58-0.25,0.87-0.38c0,0-2.01,0.64-8.14,1.16
		C137.26,160.86,141.09,164.58,142.08,169.43z"/>
	<path class="st4" d="M141.03,178.7l-2.16,19.2c-5.88,2.04-13.57,3.28-22,3.32h-0.34c-4.43,0-8.66-0.34-12.54-0.94
		c-2.27-0.36-4.42-0.81-6.42-1.35l6.24-23.38c3.93-0.63,8.22-0.98,12.72-0.98C126.17,174.57,134.87,176.15,141.03,178.7z"/>
	<path class="st6" d="M156.48,210.17H56c7.26-10.1,15.05-18.62,23.02-25.2c5.18-4.27,10.45-7.73,15.71-10.27
		c2.85-0.19,5.98-0.2,9.32-0.03c5.46,0.28,11.5,1.06,17.77,2.37c6.91,1.45,13.3,3.37,18.78,5.55c0.99,0.39,1.94,0.79,2.87,1.2
		c4.42,5.32,8.06,11.98,10.87,19.72C155.11,205.66,155.83,207.88,156.48,210.17z"/>
	<path class="st7" d="M163.05,54.13h-20.16c-0.56,0-1.01-0.45-1.01-1.01v-2.27c0-0.56,0.45-1.01,1.01-1.01h20.16
		c0.56,0,1.01,0.45,1.01,1.01v2.27C164.06,53.68,163.61,54.13,163.05,54.13z"/>
	<path class="st7" d="M162.83,64.87h-20.16c-0.56,0-1.01-0.45-1.01-1.01v-6.42c0-0.56,0.45-1.01,1.01-1.01h20.16
		c0.56,0,1.01,0.45,1.01,1.01v6.42C163.85,64.41,163.39,64.87,162.83,64.87z"/>
	<path class="st7" d="M143.59,74.21h-20.44c-0.56,0-1.01-0.45-1.01-1.01v-1.16c0-0.56,0.45-1.01,1.01-1.01h20.44
		c0.56,0,1.01,0.45,1.01,1.01v1.16C144.6,73.76,144.15,74.21,143.59,74.21z"/>
	<path class="st7" d="M159.04,89.83h-35.89c-0.56,0-1.01-0.45-1.01-1.01v-1.16c0-0.56,0.45-1.01,1.01-1.01h35.89
		c0.56,0,1.01,0.45,1.01,1.01v1.16C160.05,89.38,159.6,89.83,159.04,89.83z"/>
	<path class="st7" d="M162.61,84.54h-39.47c-0.56,0-1.01-0.45-1.01-1.01v-6.19c0-0.56,0.45-1.01,1.01-1.01h39.47
		c0.56,0,1.01,0.45,1.01,1.01v6.19C163.63,84.09,163.17,84.54,162.61,84.54z"/>
	
		<ellipse transform="matrix(0.7071 -0.7071 0.7071 0.7071 -2.9247 109.3073)" class="st8" cx="130.48" cy="58.18" rx="8.35" ry="8.35"/>
	
		<ellipse transform="matrix(0.9213 -0.3889 0.3889 0.9213 -36.3345 65.2809)" class="st9" cx="143.1" cy="122.4" rx="13.29" ry="13.29"/>
	<g>
		
			<ellipse transform="matrix(0.7071 -0.7071 0.7071 0.7071 -28.0735 130.174)" class="st10" cx="143.1" cy="98.97" rx="4.79" ry="4.79"/>
		<g>
			<path class="st5" d="M143.01,101.62c-0.14,0-0.28-0.06-0.37-0.16l-2.41-2.63c-0.19-0.21-0.18-0.53,0.03-0.72
				c0.21-0.19,0.53-0.18,0.72,0.03l1.93,2.11l1.99-3.66c0.13-0.25,0.44-0.34,0.69-0.2c0.25,0.13,0.34,0.44,0.2,0.69l-2.33,4.28
				c-0.08,0.14-0.22,0.24-0.38,0.26C143.05,101.62,143.03,101.62,143.01,101.62z"/>
		</g>
	</g>
	<g>
		<g>
			<path class="st5" d="M135.13,124c-0.16,0-0.32-0.09-0.39-0.25c-0.65-1.37-1.16-4.5,0.21-7.07c1.01-1.89,2.86-3.08,5.36-3.45
				c0.24-0.03,0.45,0.13,0.49,0.36c0.03,0.24-0.13,0.45-0.36,0.49c-2.25,0.33-3.84,1.34-4.73,3.01c-1.16,2.17-0.81,4.99-0.19,6.3
				c0.1,0.21,0.01,0.47-0.21,0.57C135.26,123.99,135.19,124,135.13,124z"/>
		</g>
		<g>
			<path class="st5" d="M153.42,121.9c-0.04,0-0.08-0.01-0.12-0.02c-1.35-0.39-2.13-1.63-3.12-3.21c-0.87-1.4-1.96-3.13-3.8-4.78
				c-3.6-3.23-8.9-0.44-8.96-0.41c-0.21,0.11-0.47,0.04-0.58-0.17c-0.11-0.21-0.03-0.47,0.17-0.58c0.24-0.13,5.89-3.11,9.94,0.53
				c1.92,1.73,3.05,3.52,3.95,4.97c0.92,1.47,1.59,2.54,2.62,2.84c0.23,0.07,0.36,0.3,0.3,0.53
				C153.78,121.78,153.6,121.9,153.42,121.9z"/>
		</g>
		<g>
			<path class="st5" d="M142.97,127.83c-0.44,0-0.88-0.1-1.3-0.33c-1.2-0.67-1.91-2.32-1.78-4.22c0.11-1.72,0.9-3.08,2.07-3.54
				c2.57-1.02,4.19,0.64,4.26,0.71c0.16,0.17,0.16,0.44-0.01,0.61c-0.17,0.16-0.44,0.16-0.61-0.01l0,0c-0.05-0.05-1.3-1.3-3.32-0.5
				c-1.02,0.4-1.46,1.71-1.52,2.79c-0.08,1.28,0.3,2.83,1.34,3.41c1.01,0.56,2.12,0.01,2.77-0.62c0.63-0.62,1.19-1.7,0.66-2.71
				c-0.37-0.7-0.9-1.03-1.42-0.86c-0.6,0.19-1.13,1.02-0.97,2.23c0.03,0.24-0.14,0.45-0.37,0.48c-0.24,0.03-0.45-0.14-0.48-0.37
				c-0.23-1.76,0.66-2.87,1.57-3.16c0.73-0.23,1.76-0.02,2.44,1.28c0.62,1.17,0.29,2.63-0.82,3.72
				C144.83,127.36,143.92,127.83,142.97,127.83z"/>
		</g>
		<g>
			<path class="st5" d="M139.55,125.79c-0.15,0-0.3-0.08-0.38-0.22c-0.07-0.12-1.69-3.08-0.5-6.64c0.49-1.47,1.76-2.42,3.41-2.55
				c2.24-0.17,5.45,1.21,7.73,5.63c0.11,0.21,0.03,0.47-0.18,0.58c-0.21,0.11-0.47,0.03-0.58-0.18c-2.09-4.05-5.03-5.31-6.9-5.16
				c-1.31,0.1-2.28,0.82-2.66,1.96c-1.07,3.2,0.42,5.92,0.44,5.95c0.12,0.21,0.04,0.47-0.17,0.59
				C139.7,125.77,139.62,125.79,139.55,125.79z"/>
		</g>
		<g>
			<path class="st5" d="M137.14,123.71c-0.17,0-0.33-0.1-0.4-0.26c-0.08-0.19-1.88-4.57,0.94-7.36c1.33-1.31,2.91-1.97,4.59-1.9
				c2.14,0.08,4.33,1.35,6.32,3.66c0.16,0.18,0.14,0.45-0.04,0.61c-0.18,0.16-0.45,0.14-0.61-0.04c-1.84-2.13-3.81-3.29-5.71-3.36
				c-1.43-0.05-2.8,0.52-3.95,1.66c-2.41,2.38-0.77,6.37-0.76,6.41c0.09,0.22-0.01,0.47-0.23,0.56
				C137.25,123.7,137.19,123.71,137.14,123.71z"/>
		</g>
		<g>
			<path class="st5" d="M143.3,129.9c-1.32,0-2.19-0.68-2.21-0.69c-0.19-0.15-0.21-0.42-0.06-0.61c0.15-0.19,0.42-0.21,0.6-0.07
				c0.07,0.05,1.58,1.21,3.65-0.15c1.2-0.79,2.34-1.68,2.52-2.85c0.12-0.77-0.2-1.63-0.95-2.57c-0.15-0.19-0.12-0.46,0.07-0.61
				c0.19-0.15,0.46-0.12,0.61,0.07c0.91,1.13,1.29,2.22,1.13,3.24c-0.24,1.5-1.54,2.54-2.9,3.43
				C144.85,129.7,144.01,129.9,143.3,129.9z"/>
		</g>
		<g>
			<path class="st5" d="M143.69,132.26c-0.63,0-1.27-0.09-1.86-0.28c-1.35-0.43-2.28-1.34-2.61-2.55c-0.43-1.6-1-2.8-1.69-3.56
				c-0.08-0.08-0.14-0.15-0.17-0.28c-0.05-0.23,0.09-0.46,0.32-0.52c0.18-0.04,0.36,0.04,0.46,0.19l0.03,0.03
				c0.78,0.86,1.41,2.18,1.88,3.91c0.32,1.17,1.28,1.71,2.04,1.95c1.4,0.45,3.25,0.23,4.12-0.48c0.54-0.44,0.71-0.88,0.86-1.28
				c0.33-0.84,0.67-1.36,2.4-0.97c0.65,0.15,1.1,0.06,1.34-0.28c0.39-0.55,0.2-1.66-0.21-2.31c-0.31-0.5-0.71-0.91-1.13-1.34
				c-0.58-0.6-1.24-1.29-1.8-2.34c-0.11-0.21-0.03-0.47,0.18-0.58c0.21-0.11,0.47-0.03,0.58,0.18c0.5,0.94,1.09,1.55,1.66,2.14
				c0.45,0.47,0.88,0.91,1.24,1.48c0.58,0.92,0.8,2.39,0.18,3.27c-0.31,0.44-0.95,0.91-2.23,0.62c-1.13-0.26-1.18-0.12-1.4,0.44
				c-0.17,0.44-0.41,1.05-1.12,1.63C146.04,131.94,144.88,132.26,143.69,132.26z"/>
		</g>
		<g>
			<path class="st5" d="M143.73,133.95c-0.58,0-1.2-0.05-1.87-0.17c-4.92-0.85-6.17-6.9-6.13-7.38c0.02-0.24,0.23-0.41,0.47-0.39
				c0.21,0.02,0.38,0.19,0.39,0.4c0.03,0.21,0.97,5.76,5.42,6.52c4.47,0.77,6.44-1.59,6.53-1.69c0.15-0.18,0.42-0.21,0.61-0.06
				c0.18,0.15,0.21,0.42,0.07,0.6C149.12,131.88,147.42,133.95,143.73,133.95z"/>
		</g>
		<g>
			<path class="st5" d="M150.09,132.56c-0.16,0-0.32-0.09-0.39-0.25c-0.1-0.22,0-0.47,0.21-0.57c0.37-0.18,2.29-1.32,2.67-2.56
				c0.43-1.42-0.18-3.58-1.28-4.55c-0.18-0.16-0.2-0.43-0.04-0.61c0.16-0.18,0.43-0.2,0.61-0.04c1.34,1.17,2.06,3.72,1.54,5.44
				c-0.54,1.79-3.11,3.08-3.13,3.09C150.21,132.55,150.15,132.56,150.09,132.56z"/>
		</g>
	</g>
	<g>
		<defs>
			
				<ellipse id="SVGID_1_" transform="matrix(0.7071 -0.7071 0.7071 0.7071 -2.9247 109.3073)" cx="130.48" cy="58.18" rx="8.35" ry="8.35"/>
		</defs>
		<clipPath id="SVGID_00000136369789872949233220000012426007653912762028_">
			<use xlink:href="#SVGID_1_"  style="overflow:visible;"/>
		</clipPath>
		<g style="clip-path:url(#SVGID_00000136369789872949233220000012426007653912762028_);">
			<path class="st12" d="M129.96,65.27c0.85,2.21,0.17,4.53-1.52,5.18c-1.69,0.65-3.75-0.61-4.6-2.82
				c-0.85-2.21-0.17-4.53,1.52-5.18C127.05,61.8,129.11,63.06,129.96,65.27z"/>
			<path class="st12" d="M131.42,66.02c-0.31,2.31,0.9,4.37,2.7,4.61c1.79,0.24,3.5-1.44,3.8-3.75c0.31-2.31-0.9-4.37-2.7-4.61
				C133.43,62.03,131.73,63.71,131.42,66.02z"/>
			<path class="st13" d="M130.96,54.05c0-1.22-1.27-1.59-2.38-1.59c-1.07,0-1.6,0.72-1.64,2.11h0v0.09c0,0.02,0,0.05,0,0.07
				c0,0.01,0,0.02,0,0.04v5.75h4.02v-5.94h-0.05C130.94,54.4,130.96,54.22,130.96,54.05z"/>
			<path class="st12" d="M137.46,74.44h-13.57c0.33-0.53,0.53-1.24,0.66-2.08c0.16-1.03,0.23-2.24,0.32-3.56
				c0.16-2.1,0.4-4.46,1.27-6.7c3.02,0.34,6.05,0.34,9.07,0c1.09,2.61,1.02,5.39,1.09,7.74c0.04,1.27,0.11,2.41,0.42,3.33
				c0,0,0.01,0.01,0.01,0.01c0.05,0.16,0.12,0.31,0.19,0.46c0,0,0,0.01,0.01,0.01v0C137.06,73.94,137.24,74.21,137.46,74.44z"/>
			<path class="st14" d="M135.3,61.95l-3.6,5.41c-0.37,0.55-1.17,0.59-1.59,0.08l-4.5-5.49l1.04-2.69h7.62L135.3,61.95z"/>
			<path class="st15" d="M129.19,59.52c-0.04,0.15,0.8,1.71,2.95,1.57c2.15-0.14,0.73-1.62,0.73-1.62l-1.65,0.04H129.19z"/>
			<path class="st13" d="M131.77,56.5l0.47,2.32c0,0-0.95,1.84-0.58,2.83c0.33,0.89,2.38,0.94,2.98,2.21c0,0.01,0,0.02,0.01,0.03
				c0.03,0.14,0.08,0.3,0.13,0.43c0.35,0.86,1.06,1.44,1.77,1.44c0.1,0,0.2-0.01,0.3-0.03c0.93-0.22,1.44-1.41,1.14-2.65
				c-0.24-1-0.93-1.72-1.67-1.85c0.38-0.45,0.6-1.04,0.6-1.7c0-0.83-0.37-1.56-0.93-2.04c-0.12-0.1-0.26-0.19-0.4-0.27
				c-0.5-0.35-1.33-1.03-1.75-1.86c-0.07-0.13-0.12-0.27-0.17-0.41c-0.04-0.12-0.07-0.25-0.08-0.39h-2.22l0.12,0.63L131.77,56.5z"/>
			<path class="st15" d="M131.27,56.53c0.17,0,0.33,0,0.5-0.03c1-0.13,1.71-0.74,2.07-1.14c-0.07-0.13-0.12-0.27-0.17-0.41
				l-1.51-0.23c0,0-0.32,0.21-0.67,0.48C130.83,55.72,130.08,56.5,131.27,56.53z"/>
			<path class="st13" d="M129.12,59.42l-2.19-2c0.03,1.7-1.77,1.7-3.12,2.34c-0.99,0.47-1.59,1.96-1.22,3.08
				c0.28,0.84-0.54,1.34-0.45,2.4c0.13,1.5,1.7,1.79,2.53,0.96c0.39-0.39,0.37-1.04,0.19-1.67c0,0,0-0.01,0-0.01
				c-0.5-1.76,1.32-2.04,3.13-2.34C129.79,61.88,129.12,59.42,129.12,59.42z"/>
			<path class="st14" d="M132.61,58.47c-0.18,1.08-0.63,1.79-1.9,1.91c-1.42,0.14-2.25-0.86-2.4-2.11
				c-0.08-0.64-0.05-0.97-0.07-1.61c0.13-0.03,0.31-0.18,0.32-0.42c0.04-0.7-0.1-2.36,1.44-2.39c0.31-0.01,0.96-0.06,0.98-0.12
				c0.58,0.03,1.16,0.09,1.75,0.19C132.83,55.45,132.84,57.05,132.61,58.47z"/>
			<path class="st14" d="M128.61,56.9c0.27,0.33,0.3,0.76,0.06,0.96c-0.24,0.2-0.66,0.09-0.93-0.23c-0.27-0.33-0.3-0.76-0.06-0.96
				C127.92,56.46,128.33,56.57,128.61,56.9z"/>
			<path class="st13" d="M132.92,51.9c1.14,0.83,1.67,2.46,1.14,3.2c-0.53,0.73-1.89,0.66-3.03-0.17c-1.14-0.83-1.63-2.09-1.11-2.83
				C130.52,51.24,131.77,51.07,132.92,51.9z"/>
			<path class="st15" d="M126.8,70.35c-1.09,0.4-1.8,1.24-2.24,2.01c0.15-0.93,0.21-2.01,0.3-3.18
				C125.25,69.68,125.86,70.14,126.8,70.35z"/>
			<path class="st15" d="M136.72,73.17c-0.54-1.18-1.49-2.1-2.08-2.6c0.69-0.12,1.23-0.39,1.66-0.74
				C136.34,71.11,136.41,72.25,136.72,73.17z"/>
		</g>
	</g>
	<path class="st1" d="M239.16,210.17h-60.01c-1.01-0.46-1.98-1-2.91-1.62c-3.13-2.06-5.73-4.92-7.5-8.36l-10.7-20.83
		c-1.67-3.25-0.45-7.25,2.76-9.02l7.94-4.37l3.33,4.38l37.34-0.8l-5.85-11.47l3.15-1.61c3.43-1.75,7.64-0.39,9.38,3.06l0.32,0.63
		c3.1,6.08,5.75,12.39,7.94,18.85l3.69,11.39c1.97,6.06,4.95,11.75,8.84,16.81L239.16,210.17z"/>
	<path class="st1" d="M180.14,160.88l-11.79,17.7l-9.21-7.03l15.67-20.53c1.12-1.47,3.31-1.51,4.49-0.1l0.32,0.38
		C181.9,154.02,182.11,157.92,180.14,160.88z"/>
	<path class="st1" d="M194.28,172.33l-12.68,9.6l-36.15-53.56c-1.13-1.68-1.42-3.8-0.78-5.72l0,0c0.35-1.05,1.3-1.78,2.4-1.85
		l0.62-0.04c1.72-0.12,3.4,0.59,4.51,1.91L194.28,172.33z"/>
	<path class="st2" d="M150.18,122.22c1.92,2.69,2.97,3.56-0.59,5.76c-1.34,0.83-2.86-0.44-4.29-2.81c-1.43-2.37-1.49-4.95-0.15-5.76
		C146.5,118.59,148.58,119.97,150.18,122.22z"/>
	<g>
		<path class="st3" d="M161.64,146.51c-0.14,0-0.24-0.13-0.25-0.27c-0.01-0.49,2.35-2.84,4.89-3.51c0.13-0.03,0.27,0.04,0.3,0.18
			c0.03,0.13-0.04,0.27-0.18,0.3c-2.37,0.62-4.41,2.75-4.53,3.06C161.89,146.42,161.78,146.51,161.64,146.51
			C161.64,146.51,161.64,146.51,161.64,146.51z"/>
	</g>
	<g>
		<path class="st3" d="M164.4,147.83c-0.05,0-0.09-0.01-0.14-0.04c-0.11-0.08-0.15-0.23-0.07-0.34c0.05-0.08,1.35-2.04,2.86-2.32
			c0.13-0.03,0.26,0.06,0.29,0.2c0.02,0.13-0.06,0.26-0.2,0.29c-1.29,0.24-2.52,2.09-2.53,2.1
			C164.56,147.79,164.48,147.83,164.4,147.83z"/>
	</g>
	<path class="st1" d="M210.97,176.42l-10.26,9.83l-30.4-35.03l1.2-0.81c3.1-2.1,7.16-2.14,10.3-0.11l8.49,5.5
		c2.01,1.3,3.86,2.84,5.51,4.58L210.97,176.42z"/>
	<path class="st1" d="M216.62,174.06l-9.34,6.14l-14.52-22.08l1.21-0.79c4.49-2.95,10.52-1.7,13.47,2.79L216.62,174.06z"/>
	<path class="st4" d="M182.77,189.79c-1.61,2.82-6.08,2.84-6.32-1.2c-0.23-4.05-0.95-12.44-1.37-13.25
		C177.57,180.13,180.4,185.5,182.77,189.79z"/>
	<g>
		<path class="st3" d="M183.64,191.61c-0.09,0-0.17-0.05-0.22-0.13c-0.29-0.51-0.58-1.03-0.87-1.57c-2.01-3.64-4.6-8.5-7.69-14.46
			c-0.01-0.02-0.01-0.03-0.02-0.05c-2-7.34-14.11-23.67-14.23-23.83c-0.08-0.11-0.06-0.27,0.05-0.35c0.11-0.08,0.27-0.06,0.35,0.05
			c0.5,0.67,12.27,16.53,14.31,23.97c3.09,5.94,5.67,10.79,7.67,14.42c0.3,0.54,0.59,1.06,0.87,1.57c0.07,0.12,0.02,0.27-0.1,0.34
			C183.73,191.6,183.68,191.61,183.64,191.61z"/>
	</g>
	<g>
		<path class="st3" d="M192.56,173.83c-0.1,0-0.19-0.06-0.23-0.16c-2.27-5.84-19.04-25.78-19.87-26.44
			c-0.12-0.07-0.15-0.22-0.08-0.34c0.07-0.12,0.23-0.15,0.35-0.08c0.87,0.54,17.79,20.84,20.06,26.68c0.05,0.13-0.01,0.27-0.14,0.32
			C192.62,173.83,192.59,173.83,192.56,173.83z"/>
	</g>
	<g>
		<path class="st3" d="M201.75,168.61c-0.09,0-0.18-0.05-0.22-0.14c-3.89-8.35-10.03-11.57-10.09-11.6
			c-0.12-0.06-0.17-0.21-0.11-0.33c0.06-0.12,0.21-0.17,0.33-0.11c0.06,0.03,6.35,3.32,10.31,11.84c0.06,0.12,0,0.27-0.12,0.33
			C201.82,168.61,201.79,168.61,201.75,168.61z"/>
	</g>
	<g>
		<path class="st3" d="M209.85,164.56c-0.09,0-0.18-0.05-0.23-0.14c-2.96-6.44-6.81-7.19-6.85-7.19c-0.14-0.02-0.23-0.15-0.2-0.29
			c0.02-0.14,0.15-0.22,0.29-0.2c0.17,0.03,4.15,0.8,7.22,7.48c0.06,0.12,0,0.27-0.12,0.33
			C209.92,164.55,209.88,164.56,209.85,164.56z"/>
	</g>
	<g>
		<path class="st3" d="M174.55,174.58c-0.04,0-0.08-0.01-0.12-0.03c-3.02-1.68-7.14-0.99-9.35-0.62c-0.73,0.12-1.21,0.2-1.46,0.17
			c-0.14-0.02-0.23-0.15-0.21-0.28c0.02-0.14,0.14-0.23,0.28-0.21c0.17,0.03,0.7-0.06,1.3-0.16c2.27-0.38,6.5-1.09,9.67,0.68
			c0.12,0.07,0.16,0.22,0.1,0.34C174.72,174.53,174.64,174.58,174.55,174.58z"/>
	</g>
	
		<ellipse transform="matrix(0.2329 -0.9725 0.9725 0.2329 -17.0323 114.8636)" class="st16" cx="64.29" cy="68.23" rx="15.78" ry="15.78"/>
	
		<ellipse transform="matrix(0.2337 -0.9723 0.9723 0.2337 122.9136 236.0951)" class="st6" cx="211.25" cy="40.07" rx="29.05" ry="29.05"/>
	<g>
		<g>
			<path class="st6" d="M70.04,67.46c-1.49,0-2.96-0.67-3.92-1.95c-1.62-2.16-1.18-5.23,0.97-6.85l0,0
				c2.16-1.62,5.23-1.18,6.85,0.97c1.62,2.16,1.18,5.23-0.97,6.85C72.1,67.14,71.07,67.46,70.04,67.46z M68.35,60.32L68.35,60.32
				c-1.24,0.93-1.49,2.7-0.56,3.94c0.93,1.24,2.7,1.49,3.94,0.56c1.24-0.93,1.49-2.7,0.56-3.94C71.35,59.64,69.59,59.39,68.35,60.32
				z"/>
		</g>
		<g>
			
				<rect x="52.67" y="68.73" transform="matrix(0.7994 -0.6008 0.6008 0.7994 -29.6406 50.4225)" class="st6" width="16.04" height="1.74"/>
		</g>
		<g>
			
				<rect x="55.15" y="72.7" transform="matrix(0.7994 -0.6008 0.6008 0.7994 -34.0761 48.7877)" class="st6" width="1.74" height="5.45"/>
		</g>
		<g>
			
				<rect x="58.59" y="71.86" transform="matrix(0.7994 -0.6008 0.6008 0.7994 -32.6926 50.6229)" class="st6" width="1.74" height="4.81"/>
		</g>
		<g>
			
				<rect x="59.62" y="70.52" transform="matrix(0.7994 -0.6008 0.6008 0.7994 -31.0287 50.7555)" class="st6" width="1.74" height="2.64"/>
		</g>
		<g>
			
				<rect x="56.99" y="75.01" transform="matrix(0.7994 -0.6008 0.6008 0.7994 -34.0133 49.8897)" class="st6" width="1.43" height="1.74"/>
		</g>
	</g>
	<path class="st0" d="M224.58,26.56v7.42c0,10-4.97,19.35-13.27,24.93l-0.11-0.07c-8.64-5.52-13.87-15.06-13.87-25.31v-6.97
		c0.42,0,2.97-0.46,5.77-1.01c5.45-1.05,11.05-1.04,16.5,0.02L224.58,26.56z"/>
	<g>
		<path class="st16" d="M236.88,165.81c-3.41,0-6.19-2.78-6.19-6.19c0-3.41,2.78-6.19,6.19-6.19c3.41,0,6.19,2.78,6.19,6.19
			C243.07,163.03,240.29,165.81,236.88,165.81z M236.88,153.93c-3.13,0-5.69,2.55-5.69,5.69c0,3.13,2.55,5.68,5.69,5.68
			c3.13,0,5.68-2.55,5.68-5.68C242.57,156.48,240.02,153.93,236.88,153.93z"/>
	</g>
	<g>
		<path class="st16" d="M86.04,113.61c-3.41,0-6.19-2.78-6.19-6.19c0-3.41,2.78-6.19,6.19-6.19c3.41,0,6.19,2.78,6.19,6.19
			C92.23,110.83,89.46,113.61,86.04,113.61z M86.04,101.73c-3.13,0-5.69,2.55-5.69,5.69s2.55,5.68,5.69,5.68s5.68-2.55,5.68-5.68
			S89.18,101.73,86.04,101.73z"/>
	</g>
	<g>
		<path class="st16" d="M194.66,133.71c-1.93,0-3.51-1.57-3.51-3.51c0-1.93,1.57-3.51,3.51-3.51c1.93,0,3.51,1.57,3.51,3.51
			C198.17,132.14,196.6,133.71,194.66,133.71z M194.66,126.98c-1.78,0-3.22,1.45-3.22,3.22s1.45,3.22,3.22,3.22s3.22-1.44,3.22-3.22
			S196.44,126.98,194.66,126.98z"/>
	</g>
</g>
</svg>
